<?xml version="1.0" standalone="no"?>
<!DOCTYPE svg PUBLIC "-//W3C//DTD SVG 1.1//EN" "http://www.w3.org/Graphics/SVG/1.1/DTD/svg11.dtd" >
<svg xmlns="http://www.w3.org/2000/svg" xmlns:xlink="http://www.w3.org/1999/xlink" version="1.1">
<metadata>
Created by FontForge 20150804 at Thu Feb  1 10:36:56 2018
 By cloudconvert
Helsinki Type Studio
</metadata>
<defs>
<font id="." horiz-adv-x="1228" >
  <font-face 
    font-family="."
    font-weight="400"
    font-stretch="normal"
    units-per-em="2048"
    panose-1="0 0 5 0 0 0 0 0 0 0"
    ascent="1536"
    descent="-512"
    x-height="1044"
    cap-height="1434"
    bbox="-860 -537 2281 2003"
    underline-thickness="102"
    underline-position="-204"
    unicode-range="U+0020-FB04"
  />
<missing-glyph horiz-adv-x="1024" 
d="M190 -512v2048h650v-2048h-650zM342 -92h340v231h-340v-231zM342 -139v-68h143l-143 -96v-68h340v68h-209l143 96h66v68h-340zM342 262h340v232h-205v-115h70v47h67v-96h-204v164h-68v-232zM342 539h340v204h-68v-135h-272v-69zM342 655h205v144h135v67h-340v-67h135v-76
h-135v-68zM342 922h340v69h-135v144h-205v-213zM342 1188h340v67h-135v76h135v68h-338v-68h133v-76h-135v-67zM410 -25v97h204v-97h-204zM410 991v74h67v-74h-67z" />
    <glyph glyph-name="fi" unicode="fi" horiz-adv-x="1320" 
d="M41 791v253h176v115q0 180 122.5 281.5t330.5 101.5q99 0 186.5 -28.5t147.5 -79.5h184v-250h-307v55q-77 66 -166 66q-191 0 -191 -125v-136h664v-1044h-307v791h-357v-791h-307v791h-176z" />
    <glyph glyph-name="fl" unicode="fl" horiz-adv-x="1384" 
d="M41 791v253h176v115q0 179 116 281t310 102q135 0 248 -61v55h299v-1237q0 -13 10 -23t23 -10h110v-264h-196q-107 0 -176.5 68.5t-69.5 175.5v991q-100 68 -217 68q-150 0 -150 -125v-136h213v-253h-213v-791h-307v791h-176z" />
    <glyph glyph-name=".notdef" horiz-adv-x="1024" 
d="M190 -512v2048h650v-2048h-650zM342 -92h340v231h-340v-231zM342 -139v-68h143l-143 -96v-68h340v68h-209l143 96h66v68h-340zM342 262h340v232h-205v-115h70v47h67v-96h-204v164h-68v-232zM342 539h340v204h-68v-135h-272v-69zM342 655h205v144h135v67h-340v-67h135v-76
h-135v-68zM342 922h340v69h-135v144h-205v-213zM342 1188h340v67h-135v76h135v68h-338v-68h133v-76h-135v-67zM410 -25v97h204v-97h-204zM410 991v74h67v-74h-67z" />
    <glyph glyph-name=".null" horiz-adv-x="0" 
 />
    <glyph glyph-name="nonmarkingreturn" horiz-adv-x="682" 
 />
    <glyph glyph-name="space" unicode=" " horiz-adv-x="614" 
 />
    <glyph glyph-name="exclam" unicode="!" horiz-adv-x="636" 
d="M123 1434h391l-72 -963h-245zM160 0v297h321v-297h-321z" />
    <glyph glyph-name="quotedbl" unicode="&#x22;" horiz-adv-x="942" 
d="M123 862v674h246v-674h-246zM573 862v674h246v-674h-246z" />
    <glyph glyph-name="numbersign" unicode="#" horiz-adv-x="1597" 
d="M102 0l88 244l84 104q14 17 9 29t-27 12h-139v258h1269v-258h-231l-143 -389h-328l141 389h-252l-143 -389h-328zM211 786v258h231l144 390h327l-141 -390h252l143 390h328l-88 -244l-84 -105q-14 -17 -9 -29t27 -12h140v-258h-1270z" />
    <glyph glyph-name="dollar" unicode="$" horiz-adv-x="1118" 
d="M72 111l94 258q98 -59 174.5 -83t175.5 -24q98 0 154.5 43.5t56.5 124.5q0 70 -41.5 114t-122.5 54l-76 10q-178 23 -287.5 125t-109.5 281q0 164 84.5 275t247.5 149v303h287v-289q176 -22 295 -111l-91 -241q-143 76 -299 76q-112 0 -164.5 -40t-52.5 -102
q0 -115 131 -131l82 -10q203 -23 313.5 -140t110.5 -309q0 -181 -83 -293.5t-242 -150.5v-307h-287v291q-184 19 -350 127z" />
    <glyph glyph-name="percent" unicode="%" horiz-adv-x="1505" 
d="M61 1098q0 55 9 104t31 95.5t56 80t87 54t121 20.5q85 0 147 -30t95 -82.5t48 -112t15 -129.5q0 -74 -15.5 -136t-49.5 -114t-95.5 -81.5t-144.5 -29.5q-68 0 -121 20.5t-87 55t-56 82t-31 97.5t-9 106zM195 0l536 924l207 510h389l-520 -893l-223 -541h-389zM270 1092
q0 -70 20 -106t75 -36q56 0 76 37.5t20 104.5q0 71 -19.5 109t-76.5 38q-55 0 -75 -38t-20 -109zM856 340q0 55 8.5 104t30.5 95.5t55.5 80t87 54t121.5 20.5q85 0 146.5 -30t95 -82.5t48.5 -112t15 -129.5q0 -59 -9.5 -110t-31.5 -98t-56.5 -80t-87.5 -52.5t-120 -19.5
q-68 0 -121.5 20.5t-87 54.5t-55.5 81.5t-30.5 97.5t-8.5 106zM1065 334q0 -70 19.5 -105.5t74.5 -35.5q56 0 76 37t20 104q0 71 -19.5 109t-76.5 38q-55 0 -74.5 -38t-19.5 -109z" />
    <glyph glyph-name="ampersand" unicode="&#x26;" horiz-adv-x="1480" 
d="M102 397q0 122 51 197.5t144 128.5q-174 110 -174 319q0 86 33 157.5t86.5 118.5t125 79.5t146.5 46.5t152 14q133 0 238 -29t196 -96l-101 -252q-128 99 -319 99q-122 0 -188 -44t-66 -124q0 -79 53 -122.5t146 -43.5h114v-256h-114q-219 0 -219 -154q0 -174 309 -174
q193 0 311 70v258h-139v256h532v-256h-127v-430q-231 -180 -577 -185q-281 -4 -447 111t-166 311z" />
    <glyph glyph-name="quotesingle" unicode="'" horiz-adv-x="491" 
d="M123 862v674h246v-674h-246z" />
    <glyph glyph-name="parenleft" unicode="(" horiz-adv-x="954" 
d="M184 717q0 291 27 583q25 210 136 337.5t329 185.5l94 -254q-128 -36 -190.5 -120t-71.5 -224q-19 -321 -19 -508t19 -508q9 -140 71.5 -224t190.5 -120l-94 -254q-218 58 -329 185t-136 337q-27 293 -27 584z" />
    <glyph glyph-name="parenright" unicode=")" horiz-adv-x="954" 
d="M184 -135q128 36 190.5 120t71.5 224q19 321 19 508t-19 508q-9 140 -71.5 224t-190.5 120l95 254q218 -58 328.5 -185t135.5 -338q27 -292 27 -583q0 -292 -27 -584q-25 -210 -135.5 -337t-328.5 -185z" />
    <glyph glyph-name="asterisk" unicode="*" horiz-adv-x="1085" 
d="M80 1069v145h342l-197 279l133 88l144 -229l20 -82q4 -14 12 -19.5t16.5 0t12.5 19.5l21 82l143 229l133 -88l-196 -279h342v-145h-342l196 -278l-133 -86l-143 225l-21 80q-4 14 -12.5 19.5t-16.5 0t-12 -19.5l-20 -80l-144 -225l-133 86l197 278h-342z" />
    <glyph glyph-name="plus" unicode="+" 
d="M102 578v278h373v373h279v-373h372v-278h-372v-373h-279v373h-373z" />
    <glyph glyph-name="comma" unicode="," horiz-adv-x="638" 
d="M-20 -430l28 156q147 4 228 78t81 196h-180v297h359v-234q0 -124 -43 -220.5t-116.5 -154t-164 -87t-192.5 -31.5z" />
    <glyph glyph-name="hyphen" unicode="-" horiz-adv-x="716" 
d="M102 408v278h512v-278h-512z" />
    <glyph glyph-name="period" unicode="." horiz-adv-x="608" 
d="M143 0v307h322v-307h-322z" />
    <glyph glyph-name="slash" unicode="/" horiz-adv-x="993" 
d="M61 0l543 1434h328l-539 -1434h-332z" />
    <glyph glyph-name="zero" unicode="0" horiz-adv-x="1269" 
d="M92 717q0 180 22 301.5t54 182t86 114.5q143 143 381 143t381 -143q54 -54 86 -114.5t54 -182t22 -301.5t-22 -301.5t-54 -182t-86 -114.5q-144 -144 -381 -144t-381 144q-54 54 -86 114.5t-54 182t-22 301.5zM381 717q0 -130 8 -248q6 -104 74.5 -170t171.5 -66
t171.5 66t74.5 170q8 118 8 248t-8 248q-6 104 -74.5 169.5t-171.5 65.5t-171.5 -65.5t-74.5 -169.5q-8 -118 -8 -248zM514 512v410h246v-410h-246z" />
    <glyph glyph-name="one" unicode="1" horiz-adv-x="1087" 
d="M113 1141v186l657 131l-4 -1192h270v-266h-886v266h290v875h-327z" />
    <glyph glyph-name="two" unicode="2" horiz-adv-x="1103" 
d="M92 0v283q0 172 79.5 290t252.5 203l178 80q70 32 100.5 69t30.5 97q0 66 -56.5 114t-152.5 48q-171 0 -336 -82l-90 244q107 61 212 85.5t233 24.5q69 0 136.5 -14t132 -46t113 -78.5t78 -118t29.5 -157.5q0 -156 -60 -251t-204 -162l-178 -84q-189 -101 -189 -226v-32
h615v-287h-924z" />
    <glyph glyph-name="three" unicode="3" horiz-adv-x="1083" 
d="M41 131l96 260q86 -75 161.5 -103t190.5 -28q101 0 155 45t54 129q0 70 -53.5 113t-165.5 43h-155v256h155q199 0 199 166q0 78 -57 125t-158 47q-177 0 -309 -82l-88 241q95 65 194 90t221 25q71 0 139.5 -14t134.5 -46.5t115.5 -79.5t80 -118.5t30.5 -157.5
q0 -84 -23 -147t-59 -101.5t-92 -74.5q194 -96 194 -322q0 -83 -30.5 -153.5t-80.5 -118t-114.5 -81t-131.5 -49t-132 -15.5q-147 0 -258.5 33.5t-212.5 117.5z" />
    <glyph glyph-name="four" unicode="4" horiz-adv-x="1150" 
d="M41 356v144l422 934h325l-378 -824h301v414h297v-1024h-297v356h-670z" />
    <glyph glyph-name="five" unicode="5" horiz-adv-x="1114" 
d="M82 111l92 262q71 -59 157 -88t158 -29q120 0 192 56.5t71 158.5q-2 91 -71 147t-181 56q-141 0 -248 -101l-102 82v779h815v-252h-527v-279q0 -14 11 -18t26 6l60 39q14 4 34 4q219 0 351.5 -129t132.5 -334q0 -227 -148.5 -358t-396.5 -131q-255 0 -426 129z" />
    <glyph glyph-name="six" unicode="6" horiz-adv-x="1148" 
d="M61 469q0 116 39 224t152 278l305 463h344l-366 -519q-14 -21 -6.5 -33t30.5 1l80 45q16 2 41 2q169 0 288 -130.5t119 -330.5q0 -227 -138 -360.5t-374 -133.5t-375 133.5t-139 360.5zM360 469q4 -101 62.5 -160t152.5 -59q95 0 152.5 59t60.5 160q-3 101 -60.5 160
t-152.5 59q-94 0 -152.5 -59t-62.5 -160z" />
    <glyph glyph-name="seven" unicode="7" horiz-adv-x="1202" 
d="M96 1157v277h991v-181l-108 -256l-90 -118q-9 -12 -3 -20.5t21 -8.5h195l-4 -268h-324l-272 -582h-320l273 582h-310v268h437l147 307h-633z" />
    <glyph glyph-name="eight" unicode="8" horiz-adv-x="1212" 
d="M78 401q0 93 48.5 178.5t133.5 129.5l70 8q25 2 27 10.5t-21 17.5q-225 99 -225 308q0 185 131 295t356 110q230 0 368 -116t138 -310q0 -72 -40 -141t-103 -103l-62 -10q-14 -2 -20 -6.5t-2.5 -10t16.5 -11.5q242 -121 242 -347q0 -198 -139 -313t-382 -115
q-244 0 -390 116.5t-146 309.5zM385 420q0 -85 63.5 -136t169.5 -51q97 0 154 45.5t55 120.5q-3 146 -278 230q-164 -58 -164 -209zM418 1061q1 -69 62.5 -116.5t181.5 -86.5q65 25 100.5 71.5t34.5 108.5q-1 76 -58 123t-145 47q-84 0 -131 -40.5t-45 -106.5z" />
    <glyph glyph-name="nine" unicode="9" horiz-adv-x="1148" 
d="M61 965q0 227 138 360t374 133t375 -133t139 -360q0 -116 -38.5 -224t-151.5 -278l-305 -463h-344l366 518q14 21 6.5 33.5t-30.5 -0.5l-80 -45q-16 -2 -41 -2q-169 0 -288.5 130.5t-119.5 330.5zM360 965q3 -101 60.5 -160.5t152.5 -59.5q94 0 152.5 59.5t62.5 160.5
q-4 101 -62.5 160t-152.5 59q-95 0 -152.5 -59t-60.5 -160z" />
    <glyph glyph-name="colon" unicode=":" horiz-adv-x="608" 
d="M164 0v307h321v-307h-321zM164 737v307h321v-307h-321z" />
    <glyph glyph-name="semicolon" unicode=";" horiz-adv-x="638" 
d="M-20 -430l28 156q147 4 228 78t81 196h-180v297h359v-234q0 -124 -43 -220.5t-116.5 -154t-164 -87t-192.5 -31.5zM143 737v307h322v-307h-322z" />
    <glyph glyph-name="less" unicode="&#x3c;" horiz-adv-x="1105" 
d="M102 557v354l902 342v-270l-646 -229q-15 -6 -16 -17.5t16 -17.5l646 -221v-277z" />
    <glyph glyph-name="equal" unicode="=" horiz-adv-x="1146" 
d="M102 389v254h942v-254h-942zM102 791v253h942v-253h-942z" />
    <glyph glyph-name="greater" unicode="&#x3e;" horiz-adv-x="1105" 
d="M102 221v277l646 221q17 6 16 17.5t-16 17.5l-646 229v270l902 -342v-354z" />
    <glyph glyph-name="question" unicode="?" horiz-adv-x="1017" 
d="M61 1341q172 117 394 117q225 0 363 -113t138 -321q0 -236 -235 -346l-68 -35q-51 -19 -77.5 -44.5t-26.5 -68.5v-59h-258q-8 68 -8 96q0 91 47.5 165.5t134.5 111.5l96 47q29 15 45 26.5t30.5 39.5t14.5 67q0 81 -59 117.5t-146 36.5q-86 0 -154 -19.5t-140 -60.5z
M260 0v297h322v-297h-322z" />
    <glyph glyph-name="at" unicode="@" horiz-adv-x="1536" 
d="M102 528q0 397 180 606t529 209q141 0 254 -40.5t185 -111t110.5 -163.5t38.5 -199v-309l96 -160l-225 -127l-74 97q-22 28 -47 6q-104 -94 -244 -94q-148 0 -234.5 85.5t-86.5 221.5q0 147 102.5 228t261.5 81h158q-11 96 -85 150.5t-198 54.5q-204 0 -308.5 -127
t-104.5 -399q0 -258 122 -393.5t324 -133.5q95 0 156 20t139 66l135 -209q-108 -75 -208 -110t-230 -35q-368 0 -557 197.5t-189 588.5zM856 567q0 -42 31.5 -68t83.5 -26q70 0 110.5 43.5t40.5 116.5v26q0 27 -37 17l-73 -23h-58q-48 0 -73 -23t-25 -63z" />
    <glyph glyph-name="A" unicode="A" horiz-adv-x="1249" 
d="M61 0l283 1167h-149v267h665l348 -1434h-325l-70 332h-356l-70 -332h-326zM514 598h242l-88 420l-15 129q-1 13 -10 17q-4 2 -8.5 2t-8.5 -2q-8 -4 -10 -17l-14 -129z" />
    <glyph glyph-name="B" unicode="B" horiz-adv-x="1212" 
d="M143 0v1434h490q219 0 339 -102.5t120 -289.5q0 -103 -47.5 -181.5t-133.5 -119.5q104 -32 161.5 -120t57.5 -215q0 -194 -119 -300t-337 -106h-531zM440 266h234q77 0 118.5 39.5t41.5 114.5q0 74 -42.5 119t-117.5 45h-234v-318zM440 850h193q77 0 120.5 45.5
t43.5 118.5t-43 113t-121 40h-193v-317z" />
    <glyph glyph-name="C" unicode="C" horiz-adv-x="1032" 
d="M92 717q0 137 10 270q15 209 163.5 340t369.5 131q100 0 177 -27.5t157 -87.5l-88 -243q-56 40 -101 55.5t-110 15.5q-105 0 -168.5 -53.5t-71.5 -146.5q-10 -160 -10 -254q0 -91 10 -254q10 -96 68 -148q57 -51 153 -51h4q46 0 87.5 11.5t65.5 24t66 38.5l97 -256
q-78 -55 -150 -81t-166 -26q-230 0 -384 131t-169 340q-10 133 -10 271z" />
    <glyph glyph-name="D" unicode="D" horiz-adv-x="1232" 
d="M143 0v1434h418q261 0 405.5 -124.5t163.5 -346.5q11 -136 11 -246t-11 -246q-18 -222 -162.5 -346.5t-406.5 -124.5h-418zM471 266h90q125 0 191 68t77 180q9 92 9 203q0 109 -9 203q-10 111 -76 179t-192 68h-90v-901z" />
    <glyph glyph-name="E" unicode="E" horiz-adv-x="1126" 
d="M143 0v1434h881v-287h-584v-297h549v-266h-549v-297h584v-287h-881z" />
    <glyph glyph-name="F" unicode="F" horiz-adv-x="1085" 
d="M143 0v1434h881v-287h-553v-287h518v-287h-518v-573h-328z" />
    <glyph glyph-name="G" unicode="G" horiz-adv-x="1224" 
d="M92 717q0 158 12 278q26 224 174.5 343.5t389.5 119.5q232 0 401 -125l-100 -256q-106 94 -301 94q-127 0 -189 -57.5t-73 -169.5q-11 -136 -11 -227q0 -74 11 -246q7 -99 63.5 -151t153.5 -54q93 0 168 17v290h-140v287h533v-287h-127v-483q-144 -105 -414 -110h-12
q-235 0 -370 114q-138 118 -157 344q-12 160 -12 279z" />
    <glyph glyph-name="H" unicode="H" horiz-adv-x="1310" 
d="M143 0v1434h328v-574h369v574h327v-1434h-327v573h-369v-573h-328z" />
    <glyph glyph-name="I" unicode="I" horiz-adv-x="907" 
d="M102 0v266h189v901h-189v267h703v-267h-189v-901h189v-266h-703z" />
    <glyph glyph-name="J" unicode="J" horiz-adv-x="980" 
d="M20 82l97 256q59 -39 111.5 -56.5t127.5 -17.5h7q80 0 123 44q44 47 44 143v716h-286v267h614v-983q0 -227 -134 -351.5t-368 -124.5q-100 0 -177 26t-159 81z" />
    <glyph glyph-name="K" unicode="K" horiz-adv-x="1200" 
d="M143 0v1434h320v-584h117l233 584h346l-307 -697l297 -737h-342l-227 584h-117v-584h-320z" />
    <glyph glyph-name="L" unicode="L" horiz-adv-x="909" 
d="M143 0v1434h328v-1147h397v-287h-725z" />
    <glyph glyph-name="M" unicode="M" horiz-adv-x="1392" 
d="M143 0v1434h267l268 -506q6 -12 18.5 -12t18.5 12l268 506h266v-1434h-307v594l29 180q3 15 -10.5 21t-22.5 -9l-197 -317h-106l-180 317q-9 15 -22.5 9t-10.5 -21l29 -180v-594h-308z" />
    <glyph glyph-name="N" unicode="N" horiz-adv-x="1310" 
d="M143 0v1434h267l448 -787q9 -15 22.5 -9t10.5 21l-31 181v594h307v-1434h-266l-446 786q-9 15 -22.5 9t-10.5 -21l29 -180v-594h-308z" />
    <glyph glyph-name="O" unicode="O" horiz-adv-x="1269" 
d="M92 717q0 180 22 301.5t54 182t86 114.5q143 143 381 143t381 -143q54 -54 86 -114.5t54 -182t22 -301.5t-22 -301.5t-54 -182t-86 -114.5q-144 -144 -381 -144t-381 144q-54 54 -86 114.5t-54 182t-22 301.5zM422 717q0 -122 10 -252q6 -93 61 -147t142 -54t142 54
t61 147q10 130 10 252t-10 252q-6 93 -61 146.5t-142 53.5t-142 -53.5t-61 -146.5q-10 -130 -10 -252z" />
    <glyph glyph-name="P" unicode="P" horiz-adv-x="1187" 
d="M143 0v1434h543q204 0 322 -117.5t118 -321.5q0 -193 -118.5 -307.5t-321.5 -114.5h-217v-573h-326zM469 840h217q66 0 104.5 44.5t38.5 116.5q0 79 -37.5 122.5t-105.5 43.5h-217v-327z" />
    <glyph glyph-name="Q" unicode="Q" horiz-adv-x="1269" 
d="M92 717q0 180 22 301.5t54 182t86 114.5q143 143 381 143t381 -143q54 -54 86 -114.5t54 -182t22 -301.5t-22 -301.5t-54 -182t-86 -114.5q-33 -33 -66 -53l94 -189l-249 -113l-99 213q-20 -2 -61 -2q-237 0 -381 144q-54 54 -86 114.5t-54 182t-22 301.5zM401 717
q0 -124 11 -260q6 -83 64 -148t132 -65q23 0 33 2q13 2 18 10.5t1 18.5t-15 16l-110 61l-52 123l236 109l104 -224q27 32 35 105q10 130 10 252t-10 252q-7 97 -67.5 152t-155.5 55t-155.5 -55t-67.5 -152q-11 -143 -11 -252z" />
    <glyph glyph-name="R" unicode="R" 
d="M143 0v1434h535q233 0 361 -113t128 -317q0 -137 -69.5 -240t-196.5 -154q-30 -12 -12 -43l72 -102l169 -465h-325l-211 573h-123v-573h-328zM469 840h221q88 0 137.5 43t49.5 121t-49.5 120.5t-137.5 42.5h-221v-327z" />
    <glyph glyph-name="S" unicode="S" horiz-adv-x="1064" 
d="M51 111l94 258q98 -59 175 -83t176 -24q98 0 154.5 43.5t56.5 124.5q0 70 -41.5 114t-122.5 54l-76 10q-178 23 -287.5 125t-109.5 281q0 206 131 325t383 119q243 0 399 -117l-90 -241q-143 76 -299 76q-112 0 -164.5 -40t-52.5 -102q0 -115 131 -131l82 -10
q203 -23 313.5 -140t110.5 -309q0 -227 -132 -345.5t-378 -118.5q-136 0 -241.5 31.5t-211.5 99.5z" />
    <glyph glyph-name="T" unicode="T" horiz-adv-x="1044" 
d="M41 1147v287h963v-287h-318v-1147h-328v1147h-317z" />
    <glyph glyph-name="U" unicode="U" horiz-adv-x="1236" 
d="M123 442v992h328v-998q0 -75 46 -121.5t121 -46.5q73 0 120.5 47t47.5 121v998h328l-6 -992q-2 -206 -137.5 -334t-352.5 -128q-220 0 -357.5 128.5t-137.5 333.5z" />
    <glyph glyph-name="V" unicode="V" horiz-adv-x="1148" 
d="M41 1434h324l176 -969l12 -184q1 -12 9 -16.5t16.5 0t9.5 16.5l14 184l184 969h322l-320 -1434h-436z" />
    <glyph glyph-name="W" unicode="W" horiz-adv-x="1310" 
d="M61 1434h293l68 -615v-221q0 -14 7.5 -20t16 -2t11.5 14l125 454h147l125 -454q3 -10 11.5 -14.5t16 1.5t7.5 21v221l67 615h293l-157 -1434h-287l-131 506q-4 15 -18 15t-19 -15l-131 -506h-287z" />
    <glyph glyph-name="X" unicode="X" horiz-adv-x="1167" 
d="M41 0l293 727l-293 707h346l156 -418l22 -160q2 -12 9 -16.5t14.5 0t11.5 16.5l25 160l155 418h346l-297 -707l297 -727h-346l-155 438l-25 160q-4 12 -11.5 16.5t-14.5 0t-9 -16.5l-22 -160l-156 -438h-346z" />
    <glyph glyph-name="Y" unicode="Y" horiz-adv-x="1040" 
d="M0 1434h330l151 -410l23 -160q2 -12 9 -16.5t14.5 0t11.5 16.5l24 160l152 410h325l-356 -912v-522h-328v522z" />
    <glyph glyph-name="Z" unicode="Z" horiz-adv-x="1099" 
d="M72 0v201l514 864l71 65q12 12 8.5 24.5t-20.5 12.5h-276v-135h-297v402h956v-201l-512 -844l-72 -65q-12 -12 -8 -24.5t21 -12.5h571v-287h-956z" />
    <glyph glyph-name="bracketleft" unicode="[" horiz-adv-x="909" 
d="M184 -385v2189h541v-239h-233v-1708h233v-242h-541z" />
    <glyph glyph-name="backslash" unicode="\" horiz-adv-x="993" 
d="M61 1434h328l543 -1434h-332z" />
    <glyph glyph-name="bracketright" unicode="]" horiz-adv-x="909" 
d="M184 -143h234v1708h-234v239h541v-2189h-541v242z" />
    <glyph glyph-name="asciicircum" unicode="^" horiz-adv-x="1024" 
d="M20 717l302 819h374l308 -819h-324l-129 432l-23 117q-2 12 -9.5 16.5t-15 0t-9.5 -16.5l-21 -117l-127 -432h-326z" />
    <glyph glyph-name="underscore" unicode="_" horiz-adv-x="1122" 
d="M178 -369h766v-143h-766v143z" />
    <glyph glyph-name="grave" unicode="`" horiz-adv-x="798" 
d="M102 1536h308l286 -352h-307z" />
    <glyph glyph-name="a" unicode="a" horiz-adv-x="1034" 
d="M72 291q0 143 101 222t259 79h178v100q0 129 -182 129q-119 0 -260 -82l-84 230q174 100 367 100q215 0 324.5 -102.5t109.5 -272.5v-409l108 -156l-235 -154l-66 88q-22 29 -47 7q-111 -86 -252 -86q-148 0 -234.5 85.5t-86.5 221.5zM338 295q0 -40 34.5 -68t86.5 -28
q70 0 110.5 43.5t40.5 113.5v27q0 19 -19 19q-7 0 -18 -3l-73 -22h-64q-98 0 -98 -82z" />
    <glyph glyph-name="b" unicode="b" horiz-adv-x="1183" 
d="M51 129l109 154v1253h307v-530q37 28 98.5 45.5t126.5 17.5q183 0 277 -85t112 -251q11 -110 11 -207q0 -45 -11 -170q-14 -181 -125 -278.5t-305 -97.5q-130 0 -248 86q-29 21 -51 -7l-65 -84zM467 381q0 -64 42 -103.5t116 -39.5q71 0 107.5 31.5t41.5 82.5q8 85 8 170
t-8 170q-5 55 -43 88t-106 33q-158 0 -158 -147v-285z" />
    <glyph glyph-name="c" unicode="c" horiz-adv-x="942" 
d="M92 524q0 103 12 185q23 162 142 261t317 99q197 0 316 -98l-82 -226q-93 72 -213 72q-84 0 -135 -42.5t-56 -108.5q-6 -72 -5.5 -143t5.5 -142q5 -66 57 -109t140 -43q106 0 213 66l78 -219q-129 -101 -312 -101q-202 0 -323 101t-142 264q-12 99 -12 184z" />
    <glyph glyph-name="d" unicode="d" horiz-adv-x="1146" 
d="M92 526q0 107 10 207q36 336 392 336q65 0 125.5 -17.5t97.5 -45.5v530h307v-1536h-307v47q0 18 -10.5 22.5t-32.5 -6.5l-131 -75q-31 -8 -70 -8q-343 0 -371 335q-10 140 -10 211zM410 348q5 -51 41.5 -83t107.5 -32q74 0 116 40t42 104v295q0 141 -158 141
q-67 0 -105.5 -32.5t-43.5 -82.5q-8 -88 -8 -175t8 -175z" />
    <glyph glyph-name="e" unicode="e" horiz-adv-x="1052" 
d="M92 510q0 80 12 182q23 166 137.5 269.5t297.5 103.5q222 0 332 -130.5t110 -379.5l-43 -106h-561q0 -27 2 -39q16 -181 229 -181q105 0 234 60l78 -219q-136 -90 -312 -90q-209 0 -344 99t-160 255q-12 99 -12 176zM381 655h321q-16 170 -159 170t-162 -170z" />
    <glyph glyph-name="f" unicode="f" horiz-adv-x="798" 
d="M41 791v253h176v115q0 180 122.5 281.5t330.5 101.5q99 0 186.5 -28.5t147.5 -79.5l-97 -209q-86 59 -192 59q-191 0 -191 -125v-115h213v-253h-213v-791h-307v791h-176z" />
    <glyph glyph-name="g" unicode="g" horiz-adv-x="1144" 
d="M92 526q0 107 10 207q28 336 390 336q64 0 124.5 -23.5t98.5 -60.5v59h307v-1093q0 -157 -137 -273t-359 -116q-114 0 -186.5 18.5t-183.5 73.5l86 221q91 -47 137 -57.5t149 -10.5q87 0 138 49t51 148v45q0 17 -12 21.5t-29 -4.5l-137 -80q-38 -6 -88 -6
q-151 0 -243.5 88t-105.5 247q-10 105 -10 211zM410 346q5 -52 40.5 -83.5t106.5 -31.5q74 0 116 40t42 104v297q0 141 -158 141q-67 0 -104.5 -32.5t-42.5 -82.5q-8 -97 -8 -185t8 -167z" />
    <glyph glyph-name="h" unicode="h" horiz-adv-x="1153" 
d="M133 0v1538h299v-530q115 61 248 61q70 0 132 -20t111 -58.5t78 -100.5t29 -140v-750h-307v625q0 91 -29.5 129.5t-111.5 38.5t-116 -39.5t-34 -128.5v-625h-299z" />
    <glyph glyph-name="i" unicode="i" horiz-adv-x="665" 
d="M41 791v253h491v-1044h-307v791h-184zM225 1184v250h307v-250h-307z" />
    <glyph glyph-name="j" unicode="j" horiz-adv-x="665" 
d="M20 -186q102 25 153.5 71.5t51.5 130.5v777h-184v251h491v-1015q0 -96 -26.5 -175.5t-69.5 -133.5t-101 -93t-119.5 -58.5t-125.5 -23.5zM225 1184v250h305v-250h-305z" />
    <glyph glyph-name="k" unicode="k" horiz-adv-x="1071" 
d="M133 0v1536h299v-813h76l176 324h336l-256 -451l266 -596h-332l-190 457h-76v-457h-299z" />
    <glyph glyph-name="l" unicode="l" horiz-adv-x="626" 
d="M133 246v1290h299v-1237q0 -13 10 -23t23 -10h110v-264h-196q-107 0 -176.5 68.5t-69.5 175.5z" />
    <glyph glyph-name="m" unicode="m" horiz-adv-x="1751" 
d="M133 0v1044h291v-77q33 40 104.5 71t155.5 31q89 0 150 -21.5t131 -78.5q38 47 122.5 73.5t169.5 26.5q102 0 184.5 -36.5t134.5 -116t52 -189.5v-727h-307v662q0 68 -33 98.5t-106 30.5q-77 0 -112.5 -31t-35.5 -98v-662h-307v662q0 68 -33 98.5t-106 30.5
q-77 0 -112.5 -31t-35.5 -98v-662h-307z" />
    <glyph glyph-name="n" unicode="n" horiz-adv-x="1161" 
d="M133 0v1044h307v-57q108 82 248 82q95 0 172 -33t127.5 -107t50.5 -179v-750h-307v643q0 80 -29.5 114t-111.5 34t-116 -35t-34 -113v-643h-307z" />
    <glyph glyph-name="o" unicode="o" horiz-adv-x="1124" 
d="M92 518q0 107 12 189q23 162 142 262t315 100q197 0 317.5 -100t141.5 -262q12 -102 12 -189q0 -81 -12 -180q-24 -162 -143.5 -262.5t-315.5 -100.5t-316 101t-141 262q-12 99 -12 180zM393 659q-6 -59 -6 -123q0 -73 8 -151q6 -68 49.5 -112t116.5 -44q74 0 117 44
t51 110q9 71 9 145q0 65 -7 131q-6 68 -50.5 113t-119.5 45q-73 0 -117.5 -45t-50.5 -113z" />
    <glyph glyph-name="p" unicode="p" horiz-adv-x="1157" 
d="M133 -410v1454h307v-59q38 37 99 60.5t125 23.5q183 0 278 -85.5t113 -250.5q10 -100 10 -207q0 -71 -10 -211q-28 -335 -371 -335q-39 0 -70 8l-131 75q-22 11 -32.5 6.5t-10.5 -22.5v-457h-307zM440 377q0 -64 42 -104t116 -40q71 0 108 32t42 83q8 88 8 175t-8 175
q-5 50 -44 82.5t-106 32.5q-158 0 -158 -141v-295z" />
    <glyph glyph-name="q" unicode="q" horiz-adv-x="1157" 
d="M92 526q0 107 10 207q36 336 392 336q64 0 124.5 -23.5t98.5 -60.5v59h307v-1454h-307v457q0 18 -10.5 22.5t-32.5 -6.5l-131 -75q-31 -8 -70 -8q-343 0 -371 335q-10 140 -10 211zM410 348q5 -51 41.5 -83t107.5 -32q74 0 116 40t42 104v295q0 141 -158 141
q-67 0 -105.5 -32.5t-43.5 -82.5q-8 -88 -8 -175t8 -175z" />
    <glyph glyph-name="r" unicode="r" horiz-adv-x="833" 
d="M41 907l246 162l78 -115q21 -30 49 -2q139 117 344 117h35v-270q-176 0 -253 -60.5t-77 -183.5v-555h-299v727z" />
    <glyph glyph-name="s" unicode="s" horiz-adv-x="974" 
d="M82 94l86 221q94 -60 157 -76t156 -16q73 0 108.5 26t35.5 68q0 77 -95 82l-110 7q-157 8 -247.5 83.5t-90.5 227.5q0 168 111.5 260t302.5 92q119 0 203 -21t165 -73l-86 -221q-63 41 -126.5 56t-153.5 15q-73 0 -111.5 -24.5t-38.5 -63.5q0 -67 94 -73l113 -7
q158 -8 248 -86.5t90 -230.5q0 -176 -111 -269.5t-303 -93.5q-118 0 -206 27t-191 90z" />
    <glyph glyph-name="t" unicode="t" horiz-adv-x="772" 
d="M41 799v245h129q28 0 36.5 24t33.5 153l12 69h250v-246h170v-245h-170v-500q0 -13 10 -23t23 -10h155v-264h-241h-9q-102 0 -168 66q-70 70 -69 178v553h-162z" />
    <glyph glyph-name="u" unicode="u" horiz-adv-x="1161" 
d="M123 297v750h307v-644q0 -80 29.5 -113.5t111.5 -33.5t116 34.5t34 112.5v644h307v-1047h-311v47q0 18 -10.5 22.5t-32.5 -6.5l-131 -75q-31 -8 -70 -8q-70 0 -132 20t-111 58t-78 100t-29 139z" />
    <glyph glyph-name="v" unicode="v" horiz-adv-x="1011" 
d="M41 1044h301l129 -651l16 -160q1 -12 9.5 -16.5t16.5 0t9 16.5l17 160l131 651h301l-248 -1044h-436z" />
    <glyph glyph-name="w" unicode="w" horiz-adv-x="1392" 
d="M82 1044h287l61 -450v-180q0 -14 7.5 -20t16 -2t11.5 14l158 638h147l158 -638q3 -10 11.5 -14.5t16 1.5t7.5 21v180l61 450h287l-164 -1044h-277l-155 485q-5 15 -19 15t-18 -15l-156 -485h-276z" />
    <glyph glyph-name="x" unicode="x" horiz-adv-x="1040" 
d="M41 0l252 522l-252 522h319l121 -286l23 -99q3 -12 10 -16.5t14 0t11 16.5l24 99l121 286h315l-251 -522l251 -522h-315l-121 287l-24 98q-4 12 -11 16.5t-14 0t-10 -16.5l-23 -98l-121 -287h-319z" />
    <glyph glyph-name="y" unicode="y" horiz-adv-x="989" 
d="M20 1044h314l127 -444l20 -190q1 -12 9 -16.5t16.5 0t9.5 16.5l23 190l102 444h307l-338 -1132q-43 -154 -169.5 -249t-301.5 -101l-73 260q106 10 175.5 59t90.5 123l30 111z" />
    <glyph glyph-name="z" unicode="z" horiz-adv-x="980" 
d="M92 0v213l379 496l68 57q16 14 12 23.5t-19 9.5h-440v245h797v-210l-381 -498l-68 -57q-16 -13 -12.5 -23t18.5 -10h443v-246h-797z" />
    <glyph glyph-name="braceleft" unicode="{" horiz-adv-x="1140" 
d="M184 571v275l60 2q73 3 114 48.5t41 119.5l2 379q1 211 109.5 310t302.5 99h143v-239h-102q-74 0 -104.5 -42t-30.5 -128v-400q0 -93 -23 -145t-73 -100l-86 -25q-19 -6 -19 -16q0 -11 19 -17l86 -24q50 -52 73 -107.5t23 -159.5v-378q0 -86 30.5 -128t104.5 -42h102
v-240h-143q-194 0 -302.5 99.5t-109.5 310.5l-2 378q0 74 -41 119.5t-114 48.5z" />
    <glyph glyph-name="bar" unicode="|" horiz-adv-x="696" 
d="M184 -307v2048h328v-2048h-328z" />
    <glyph glyph-name="braceright" unicode="}" horiz-adv-x="1140" 
d="M184 -147h103q74 0 104.5 42t30.5 128v358q0 112 22.5 171t73.5 116l86 24q19 6 19 17q0 10 -19 16l-86 25q-49 51 -72.5 108.5t-23.5 157.5v379q0 86 -30.5 128t-104.5 42h-103v239h144q194 0 302 -99t109 -310l2 -379q0 -74 41.5 -119.5t114.5 -48.5l59 -2v-275l-59 -2
q-73 -3 -114.5 -48.5t-41.5 -119.5l-2 -378q-1 -211 -109 -310.5t-302 -99.5h-144v240z" />
    <glyph glyph-name="asciitilde" unicode="~" 
d="M47 614q141 125 350 125q73 0 134 -18t96 -39t86.5 -39t107.5 -18q121 0 221 84l125 -207q-143 -125 -356 -125q-73 0 -133.5 18t-95 39.5t-85.5 39.5t-106 18q-119 0 -219 -84z" />
    <glyph glyph-name="uni00A0" unicode="&#xa0;" horiz-adv-x="614" 
 />
    <glyph glyph-name="exclamdown" unicode="&#xa1;" horiz-adv-x="636" 
d="M123 -389l72 962h245l74 -962h-391zM156 748v296h321v-296h-321z" />
    <glyph glyph-name="cent" unicode="&#xa2;" horiz-adv-x="942" 
d="M92 524q0 103 12 185q15 116 81 201t177 126v248h287v-221q140 -18 230 -92l-82 -226q-93 72 -213 72q-84 0 -135 -42.5t-56 -108.5q-11 -143 0 -285q5 -66 57 -109t140 -43q106 0 213 66l78 -219q-99 -78 -232 -94v-222h-287v250q-112 42 -178 128.5t-80 201.5
q-12 99 -12 184z" />
    <glyph glyph-name="sterling" unicode="&#xa3;" horiz-adv-x="1234" 
d="M143 0v258q84 27 133.5 95.5t49.5 164.5v60h-176v278h176v221q0 180 122 281.5t330 101.5q99 0 186.5 -28.5t147.5 -79.5l-117 -209q-67 59 -172 59q-190 0 -190 -125v-221h465v-278h-465v-33q-3 -150 -68 -221q-14 -17 -8 -31t29 -14h512v-279h-955z" />
    <glyph glyph-name="yen" unicode="&#xa5;" horiz-adv-x="1245" 
d="M102 1434h330l152 -410l22 -160q2 -12 10 -16.5t15.5 0t9.5 16.5l25 160l151 410h326l-152 -390h103v-253h-203l-57 -148h260v-254h-308v-389h-327v389h-307v254h260l-58 148h-202v253h102z" />
    <glyph glyph-name="section" unicode="&#xa7;" horiz-adv-x="1110" 
d="M143 94l86 221q94 -60 157.5 -76t156.5 -16q73 0 108 26t35 68q0 77 -94 82l-111 7q-155 8 -246.5 89.5t-91.5 235.5q0 133 74 223q-61 77 -61 199q0 168 111 260t302 92q119 0 203.5 -21t165.5 -73l-86 -221q-63 41 -127.5 56.5t-153.5 15.5q-73 0 -111 -24.5t-38 -63.5
q0 -68 94 -74l113 -6q158 -8 248 -86.5t90 -231.5q0 -145 -76 -233q63 -75 63 -203q0 -176 -110.5 -269.5t-302.5 -93.5q-118 0 -206.5 27t-191.5 90zM410 752q0 -48 29.5 -66.5t113.5 -21.5q87 0 116 19.5t29 68.5q0 43 -29.5 62t-115.5 22q-82 -1 -112.5 -21.5
t-30.5 -62.5z" />
    <glyph glyph-name="dieresis" unicode="&#xa8;" horiz-adv-x="897" 
d="M102 1184v250h275v-250h-275zM520 1184v250h275v-250h-275z" />
    <glyph glyph-name="copyright" unicode="&#xa9;" horiz-adv-x="1978" 
d="M143 711q0 172 67 328.5t180.5 269.5t270 180t328.5 67t328.5 -67t270 -180t180.5 -269.5t67 -328.5q0 -230 -113.5 -424.5t-308 -308t-424.5 -113.5t-424.5 113.5t-308 308t-113.5 424.5zM297 711q0 -141 55 -269.5t147.5 -221t221 -147.5t268.5 -55q141 0 269.5 55
t221.5 147.5t148 221t55 269.5q0 188 -93 348t-253 253t-348 93q-187 0 -346.5 -93t-252.5 -253t-93 -348zM479 709q0 106 23 184q23 77 62 140.5t97 113.5t139.5 78t180.5 28t190 -26.5t146 -71.5l-82 -225q-92 71 -234 71q-85 0 -142 -42.5t-68 -108.5q-25 -142 0 -285
q11 -65 70 -108t147 -43q128 0 233 65l78 -219q-128 -100 -332 -100q-197 0 -318 100t-167 264q-23 84 -23 185z" />
    <glyph glyph-name="ordfeminine" unicode="&#xaa;" horiz-adv-x="923" 
d="M82 991q0 123 88 191.5t223 68.5h137v78q0 101 -147 101q-95 0 -217 -68l-78 211q155 86 318 86q188 0 284 -90.5t96 -239.5v-354l86 -141l-206 -117l-56 74q-18 24 -43 6q-93 -72 -213 -72q-125 0 -198.5 74t-73.5 192zM328 993q0 -30 26.5 -50.5t65.5 -20.5
q52 0 81 35.5t29 93.5v12q0 20 -30 10l-54 -18h-51q-67 0 -67 -62z" />
    <glyph glyph-name="guillemotleft" unicode="&#xab;" horiz-adv-x="1382" 
d="M102 379v205l289 276h336l-297 -291l-115 -71q-26 -16 0 -33l115 -72l297 -291h-336zM655 379v205l289 276h336l-297 -291l-115 -71q-26 -16 0 -33l115 -72l297 -291h-336z" />
    <glyph glyph-name="logicalnot" unicode="&#xac;" 
d="M143 578v278h942v-651h-278v373h-664z" />
    <glyph glyph-name="uni00AD" unicode="&#xad;" horiz-adv-x="716" 
d="M102 408v278h512v-278h-512z" />
    <glyph glyph-name="registered" unicode="&#xae;" horiz-adv-x="1978" 
d="M143 711q0 172 67 328.5t180.5 269.5t270 180t328.5 67t328.5 -67t270 -180t180.5 -269.5t67 -328.5q0 -230 -113.5 -424.5t-308 -308t-424.5 -113.5t-424.5 113.5t-308 308t-113.5 424.5zM297 711q0 -141 55 -269.5t147.5 -221t221 -147.5t268.5 -55q141 0 269.5 55
t221.5 147.5t148 221t55 269.5q0 188 -93 348t-253 253t-348 93q-187 0 -346.5 -93t-252.5 -253t-93 -348zM608 199v1024h492q163 0 248.5 -93.5t85.5 -250.5q0 -133 -40 -211t-126 -105q-16 -5 -4 -26l39 -64l116 -274h-332l-141 329h-51v-329h-287zM893 784h151
q40 0 62 24t22 62t-22 63t-62 25h-151v-174z" />
    <glyph glyph-name="macron" unicode="&#xaf;" horiz-adv-x="821" 
d="M102 1180v233h617v-233h-617z" />
    <glyph glyph-name="degree" unicode="&#xb0;" horiz-adv-x="987" 
d="M131 1182q0 106 31 182t85 116.5t115 58t134 17.5q72 0 132 -17.5t113.5 -58t84 -116.5t30.5 -182q0 -86 -20.5 -153t-54.5 -108.5t-81.5 -68t-97 -37t-106.5 -10.5q-75 0 -137 18.5t-115 59.5t-83 117t-30 182zM358 1182q0 -56 10 -93t30.5 -54t41.5 -23t52 -6
q33 0 55 6t42 23.5t30 54t10 92.5t-10 92t-30 53t-42 23t-55 6q-66 0 -100 -37.5t-34 -136.5z" />
    <glyph glyph-name="plusminus" unicode="&#xb1;" horiz-adv-x="1310" 
d="M143 737v279h373v311h279v-311h372v-279h-372v-311h-279v311h-373zM184 4v279h942v-279h-942z" />
    <glyph glyph-name="uni00B2" unicode="&#xb2;" horiz-adv-x="862" 
d="M92 717v207q0 113 55 191t179 138l123 58q61 27 61 67q0 21 -25 35t-71 14q-110 0 -238 -43l-76 209q146 66 332 66q65 0 126 -15t114.5 -45.5t86 -84t32.5 -123.5q0 -97 -34.5 -153t-135.5 -108l-146 -75q-66 -35 -89 -52t-24 -38h410v-248h-680z" />
    <glyph glyph-name="uni00B3" unicode="&#xb3;" horiz-adv-x="847" 
d="M41 799l82 225q66 -51 114.5 -65.5t145.5 -14.5q121 0 121 64q0 26 -35 46.5t-111 20.5h-100v211h100q72 0 101.5 17.5t29.5 50.5q0 30 -36.5 50.5t-100.5 20.5q-128 0 -221 -43l-74 207q71 42 144.5 57t167.5 15q69 0 135 -16.5t122.5 -48t91 -85.5t34.5 -122
q0 -77 -25.5 -118t-89.5 -89q66 -41 97.5 -82.5t31.5 -122.5q0 -63 -36.5 -117t-92.5 -87t-118.5 -52t-119.5 -19q-114 0 -197 21t-161 76z" />
    <glyph glyph-name="acute" unicode="&#xb4;" horiz-adv-x="798" 
d="M96 1184l287 352h307l-287 -352h-307z" />
    <glyph glyph-name="paragraph" unicode="&#xb6;" horiz-adv-x="1673" 
d="M143 979q0 103 23.5 183.5t62.5 131t93.5 82.5t111.5 45t121 13h983v-279h-164v-1667h-327v1667h-164v-1667h-328v1034q-67 0 -125 13t-112 46t-92 84t-60.5 131t-22.5 183z" />
    <glyph glyph-name="periodcentered" unicode="&#xb7;" horiz-adv-x="608" 
d="M143 393v307h322v-307h-322z" />
    <glyph glyph-name="cedilla" unicode="&#xb8;" horiz-adv-x="694" 
d="M102 -532l45 167q112 0 177 21.5t65 56.5q0 32 -46 43t-169 11l76 305l162 -60l-27 -100q95 -15 151 -65.5t56 -122.5q0 -127 -135 -194t-355 -62z" />
    <glyph glyph-name="uni00B9" unicode="&#xb9;" horiz-adv-x="849" 
d="M113 1393v174l520 96l-4 -719h170v-227h-647v227h192v449h-231z" />
    <glyph glyph-name="ordmasculine" unicode="&#xba;" horiz-adv-x="970" 
d="M92 1182q0 85 8 164q19 142 120.5 230.5t264.5 88.5q165 0 270.5 -89.5t114.5 -229.5q9 -128 9 -164q0 -96 -9 -160q-20 -138 -122 -227.5t-263 -89.5q-166 0 -270 89t-115 228q-8 114 -8 160zM377 1300q-6 -63 2 -227q3 -57 30 -92t76 -35q48 0 74 35t33 90
q14 100 2 229q-5 57 -32.5 93.5t-76.5 36.5q-48 0 -74.5 -36.5t-33.5 -93.5z" />
    <glyph glyph-name="guillemotright" unicode="&#xbb;" horiz-adv-x="1382" 
d="M102 102l297 291l115 72q26 17 0 33l-115 71l-297 291h336l289 -276v-205l-289 -277h-336zM655 102l297 291l115 72q26 17 0 33l-115 71l-297 291h336l289 -276v-205l-289 -277h-336z" />
    <glyph glyph-name="questiondown" unicode="&#xbf;" horiz-adv-x="1017" 
d="M61 20q0 236 236 347l68 34q51 19 77.5 44.5t26.5 68.5v59h258q8 -68 8 -96q0 -91 -47 -164.5t-135 -111.5l-96 -47q-28 -15 -44.5 -27t-31 -40t-14.5 -67q0 -81 58.5 -117t145.5 -36q86 0 154.5 19.5t140.5 60.5l90 -244q-172 -117 -393 -117q-225 0 -363.5 113
t-138.5 321zM436 748v296h322v-296h-322z" />
    <glyph glyph-name="Agrave" unicode="&#xc0;" horiz-adv-x="1249" 
d="M61 0l283 1167h-149v267h665l348 -1434h-325l-70 332h-356l-70 -332h-326zM256 1925h307l287 -352h-307zM514 598h242l-88 420l-15 129q-1 12 -10 16.5t-17.5 0t-9.5 -16.5l-14 -129z" />
    <glyph glyph-name="Aacute" unicode="&#xc1;" horiz-adv-x="1249" 
d="M61 0l283 1167h-149v267h665l348 -1434h-325l-70 332h-356l-70 -332h-326zM420 1573l287 352h307l-287 -352h-307zM514 598h242l-88 420l-15 129q-1 12 -10 16.5t-17.5 0t-9.5 -16.5l-14 -129z" />
    <glyph glyph-name="Acircumflex" unicode="&#xc2;" horiz-adv-x="1249" 
d="M61 0l283 1167h-149v267h665l348 -1434h-325l-70 332h-356l-70 -332h-326zM297 1573l184 352h307l185 -352h-246l-61 115l-21 69q-12 27 -24 0l-21 -69l-57 -115h-246zM514 598h242l-88 420l-15 129q-1 12 -10 16.5t-17.5 0t-9.5 -16.5l-14 -129z" />
    <glyph glyph-name="Atilde" unicode="&#xc3;" horiz-adv-x="1249" 
d="M61 0l283 1167h-149v267h665l348 -1434h-325l-70 332h-356l-70 -332h-326zM266 1733q84 90 217 90q66 0 118 -17.5t93 -35t80 -17.5q83 0 148 72l82 -189q-84 -90 -218 -90q-66 0 -117.5 17.5t-92.5 35t-80 17.5q-83 0 -148 -72zM514 598h242l-88 420l-15 129
q-1 12 -10 16.5t-17.5 0t-9.5 -16.5l-14 -129z" />
    <glyph glyph-name="Adieresis" unicode="&#xc4;" horiz-adv-x="1249" 
d="M61 0l283 1167h-149v267h665l348 -1434h-325l-70 332h-356l-70 -332h-326zM289 1573v250h274v-250h-274zM514 598h242l-88 420l-15 129q-1 12 -10 16.5t-17.5 0t-9.5 -16.5l-14 -129zM707 1573v250h274v-250h-274z" />
    <glyph glyph-name="Aring" unicode="&#xc5;" horiz-adv-x="1249" 
d="M61 0l283 1167h-149v267h665l348 -1434h-325l-70 332h-356l-70 -332h-326zM313 1772q0 65 27.5 111.5t75.5 71.5t102.5 36.5t118.5 11.5t117.5 -11t100.5 -36.5t74 -72t27 -111.5t-27 -112.5t-74 -73t-101 -37t-117 -11.5q-67 0 -122.5 12t-102 38t-73 73t-26.5 111z
M514 598h242l-88 420l-15 129q-1 12 -10 16.5t-17.5 0t-9.5 -16.5l-14 -129zM520 1772q0 -49 29.5 -66.5t83.5 -17.5q57 0 87 17t30 67q0 48 -30 64.5t-87 16.5t-85 -16.5t-28 -64.5z" />
    <glyph glyph-name="AE" unicode="&#xc6;" horiz-adv-x="1781" 
d="M61 0l281 1157h-147v277h1484v-277h-583v-307h549v-266h-549v-297h583v-287h-880v332h-342l-70 -332h-326zM514 598h285v559h-166z" />
    <glyph glyph-name="Ccedilla" unicode="&#xc7;" horiz-adv-x="1032" 
d="M92 717q0 137 10 270q15 209 163.5 340t369.5 131q100 0 177 -27.5t157 -87.5l-88 -243q-56 40 -101 55.5t-110 15.5q-105 0 -168.5 -53.5t-71.5 -146.5q-10 -160 -10 -254q0 -91 10 -254q9 -96 67.5 -148t157.5 -51q46 0 87.5 11.5t65.5 24t66 38.5l97 -256
q-78 -55 -150 -81t-166 -26q-33 0 -49 2l-16 -65q95 -15 151 -65.5t56 -122.5q0 -127 -135 -194t-355 -62l45 167q112 0 177 21.5t65 56.5q0 32 -46 43t-169 11l61 243q-147 52 -237.5 166.5t-100.5 269.5q-10 133 -10 271z" />
    <glyph glyph-name="Egrave" unicode="&#xc8;" horiz-adv-x="1126" 
d="M143 0v1434h881v-287h-584v-297h549v-266h-549v-297h584v-287h-881zM225 1925h307l287 -352h-307z" />
    <glyph glyph-name="Eacute" unicode="&#xc9;" horiz-adv-x="1126" 
d="M143 0v1434h881v-287h-584v-297h549v-266h-549v-297h584v-287h-881zM389 1573l287 352h307l-287 -352h-307z" />
    <glyph glyph-name="Ecircumflex" unicode="&#xca;" horiz-adv-x="1126" 
d="M143 0v1434h881v-287h-584v-297h549v-266h-549v-297h584v-287h-881zM266 1573l185 352h307l184 -352h-246l-61 115l-21 69q-12 27 -24 0l-21 -69l-57 -115h-246z" />
    <glyph glyph-name="Edieresis" unicode="&#xcb;" horiz-adv-x="1126" 
d="M143 0v1434h881v-287h-584v-297h549v-266h-549v-297h584v-287h-881zM258 1573v250h274v-250h-274zM676 1573v250h274v-250h-274z" />
    <glyph glyph-name="Igrave" unicode="&#xcc;" horiz-adv-x="907" 
d="M76 1925h307l287 -352h-308zM102 0v266h189v901h-189v267h703v-267h-189v-901h189v-266h-703z" />
    <glyph glyph-name="Iacute" unicode="&#xcd;" horiz-adv-x="907" 
d="M102 0v266h189v901h-189v267h703v-267h-189v-901h189v-266h-703zM240 1573l286 352h308l-287 -352h-307z" />
    <glyph glyph-name="Icircumflex" unicode="&#xce;" horiz-adv-x="907" 
d="M102 0v266h189v901h-189v267h703v-267h-189v-901h189v-266h-703zM117 1573l184 352h307l185 -352h-246l-62 115l-20 69q-13 28 -25 0l-20 -69l-58 -115h-245z" />
    <glyph glyph-name="Idieresis" unicode="&#xcf;" horiz-adv-x="907" 
d="M102 0v266h189v901h-189v267h703v-267h-189v-901h189v-266h-703zM109 1573v250h274v-250h-274zM526 1573v250h275v-250h-275z" />
    <glyph glyph-name="Eth" unicode="&#xd0;" horiz-adv-x="1273" 
d="M0 600v234h184v600h418q261 0 405.5 -124.5t163.5 -346.5q11 -136 11 -246t-11 -246q-18 -222 -162.5 -346.5t-406.5 -124.5h-418v600h-184zM512 266h90q125 0 191 68t77 180q9 92 9 203q0 109 -9 203q-10 111 -76 179t-192 68h-90v-333h184v-234h-184v-334z" />
    <glyph glyph-name="Ntilde" unicode="&#xd1;" horiz-adv-x="1310" 
d="M143 0v1434h267l448 -787q9 -15 22.5 -9t10.5 21l-31 181v594h307v-1434h-266l-446 786q-9 15 -22.5 9t-10.5 -21l29 -180v-594h-308zM287 1733q84 90 217 90q66 0 118 -17.5t93 -35t80 -17.5q82 0 147 72l82 -189q-84 -90 -217 -90q-66 0 -118 17.5t-93 35t-80 17.5
q-82 0 -147 -72z" />
    <glyph glyph-name="Ograve" unicode="&#xd2;" horiz-adv-x="1269" 
d="M92 717q0 180 22 301.5t54 182t86 114.5q143 143 381 143t381 -143q54 -54 86 -114.5t54 -182t22 -301.5t-22 -301.5t-54 -182t-86 -114.5q-144 -144 -381 -144t-381 144q-54 54 -86 114.5t-54 182t-22 301.5zM256 1925h307l287 -352h-307zM422 717q0 -122 10 -252
q6 -93 61 -147t142 -54t142 54t61 147q10 130 10 252t-10 252q-6 93 -61 146.5t-142 53.5t-142 -53.5t-61 -146.5q-10 -130 -10 -252z" />
    <glyph glyph-name="Oacute" unicode="&#xd3;" horiz-adv-x="1269" 
d="M92 717q0 180 22 301.5t54 182t86 114.5q143 143 381 143t381 -143q54 -54 86 -114.5t54 -182t22 -301.5t-22 -301.5t-54 -182t-86 -114.5q-144 -144 -381 -144t-381 144q-54 54 -86 114.5t-54 182t-22 301.5zM420 1573l287 352h307l-287 -352h-307zM422 717
q0 -122 10 -252q6 -93 61 -147t142 -54t142 54t61 147q10 130 10 252t-10 252q-6 93 -61 146.5t-142 53.5t-142 -53.5t-61 -146.5q-10 -130 -10 -252z" />
    <glyph glyph-name="Ocircumflex" unicode="&#xd4;" horiz-adv-x="1269" 
d="M92 717q0 180 22 301.5t54 182t86 114.5q143 143 381 143t381 -143q54 -54 86 -114.5t54 -182t22 -301.5t-22 -301.5t-54 -182t-86 -114.5q-144 -144 -381 -144t-381 144q-54 54 -86 114.5t-54 182t-22 301.5zM297 1573l184 352h307l185 -352h-246l-61 115l-21 69
q-12 27 -24 0l-21 -69l-57 -115h-246zM422 717q0 -122 10 -252q6 -93 61 -147t142 -54t142 54t61 147q10 130 10 252t-10 252q-6 93 -61 146.5t-142 53.5t-142 -53.5t-61 -146.5q-10 -130 -10 -252z" />
    <glyph glyph-name="Otilde" unicode="&#xd5;" horiz-adv-x="1269" 
d="M92 717q0 180 22 301.5t54 182t86 114.5q143 143 381 143t381 -143q54 -54 86 -114.5t54 -182t22 -301.5t-22 -301.5t-54 -182t-86 -114.5q-144 -144 -381 -144t-381 144q-54 54 -86 114.5t-54 182t-22 301.5zM266 1733q84 90 217 90q66 0 118 -17.5t93 -35t80 -17.5
q83 0 148 72l82 -189q-84 -90 -218 -90q-66 0 -117.5 17.5t-92.5 35t-80 17.5q-83 0 -148 -72zM422 717q0 -122 10 -252q6 -93 61 -147t142 -54t142 54t61 147q10 130 10 252t-10 252q-6 93 -61 146.5t-142 53.5t-142 -53.5t-61 -146.5q-10 -130 -10 -252z" />
    <glyph glyph-name="Odieresis" unicode="&#xd6;" horiz-adv-x="1269" 
d="M92 717q0 180 22 301.5t54 182t86 114.5q143 143 381 143t381 -143q54 -54 86 -114.5t54 -182t22 -301.5t-22 -301.5t-54 -182t-86 -114.5q-144 -144 -381 -144t-381 144q-54 54 -86 114.5t-54 182t-22 301.5zM289 1573v250h274v-250h-274zM422 717q0 -122 10 -252
q6 -93 61 -147t142 -54t142 54t61 147q10 130 10 252t-10 252q-6 93 -61 146.5t-142 53.5t-142 -53.5t-61 -146.5q-10 -130 -10 -252zM707 1573v250h274v-250h-274z" />
    <glyph glyph-name="multiply" unicode="&#xd7;" 
d="M154 453l264 264l-264 264l196 197l264 -265l265 265l196 -197l-264 -264l264 -264l-196 -197l-265 264l-264 -264z" />
    <glyph glyph-name="Oslash" unicode="&#xd8;" horiz-adv-x="1269" 
d="M-41 0l197 260q-64 151 -64 457q0 180 22 301.5t54 182t86 114.5q143 143 381 143q208 0 346 -112l66 88h262l-197 -258q66 -151 66 -459q0 -180 -22 -301.5t-54 -182t-86 -114.5q-144 -144 -381 -144q-207 0 -346 113l-68 -88h-262zM422 717q0 -70 2 -105l369 486
q-56 71 -158 71q-87 0 -142 -53.5t-61 -146.5q-10 -130 -10 -252zM477 336q56 -72 158 -72q87 0 142 54t61 147q10 130 10 252q0 71 -2 106z" />
    <glyph glyph-name="Ugrave" unicode="&#xd9;" horiz-adv-x="1236" 
d="M123 442v992h328v-998q0 -75 46 -121.5t121 -46.5q73 0 120.5 47t47.5 121v998h328l-6 -992q-2 -206 -137.5 -334t-352.5 -128q-220 0 -357.5 128.5t-137.5 333.5zM240 1925h307l287 -352h-308z" />
    <glyph glyph-name="Uacute" unicode="&#xda;" horiz-adv-x="1236" 
d="M123 442v992h328v-998q0 -75 46 -121.5t121 -46.5q73 0 120.5 47t47.5 121v998h328l-6 -992q-2 -206 -137.5 -334t-352.5 -128q-220 0 -357.5 128.5t-137.5 333.5zM403 1573l287 352h307l-286 -352h-308z" />
    <glyph glyph-name="Ucircumflex" unicode="&#xdb;" horiz-adv-x="1236" 
d="M123 442v992h328v-998q0 -75 46 -121.5t121 -46.5q73 0 120.5 47t47.5 121v998h328l-6 -992q-2 -206 -137.5 -334t-352.5 -128q-220 0 -357.5 128.5t-137.5 333.5zM281 1573l184 352h307l184 -352h-245l-62 115l-20 69q-13 28 -25 0l-20 -69l-58 -115h-245z" />
    <glyph glyph-name="Udieresis" unicode="&#xdc;" horiz-adv-x="1236" 
d="M123 442v992h328v-998q0 -75 46 -121.5t121 -46.5q73 0 120.5 47t47.5 121v998h328l-6 -992q-2 -206 -137.5 -334t-352.5 -128q-220 0 -357.5 128.5t-137.5 333.5zM272 1573v250h275v-250h-275zM690 1573v250h275v-250h-275z" />
    <glyph glyph-name="Yacute" unicode="&#xdd;" horiz-adv-x="1040" 
d="M0 1434h330l151 -410l23 -160q2 -12 9 -16.5t14.5 0t11.5 16.5l24 160l152 410h325l-356 -912v-522h-328v522zM305 1573l287 352h307l-287 -352h-307z" />
    <glyph glyph-name="Thorn" unicode="&#xde;" horiz-adv-x="1187" 
d="M143 0v1434h326v-267h217q204 0 322 -117t118 -321q0 -193 -118.5 -307.5t-321.5 -114.5h-217v-307h-326zM469 573h217q66 0 104.5 45t38.5 117q0 79 -37.5 122.5t-105.5 43.5h-217v-328z" />
    <glyph glyph-name="germandbls" unicode="&#xdf;" horiz-adv-x="1505" 
d="M133 0v1036q0 237 165.5 371.5t446.5 134.5q139 0 248 -34.5t174 -92t98 -125.5t33 -141q0 -239 -270 -318l-70 -20q-63 -18 -63 -74q0 -67 84 -73l106 -7q158 -9 248 -87t90 -230q0 -176 -110.5 -269.5t-302.5 -93.5q-118 0 -206.5 27t-191.5 90l86 221
q95 -61 153 -76.5t148 -15.5q73 0 108.5 26t35.5 68q0 77 -94 82l-99 7q-338 21 -338 311q0 252 267 330l71 20q62 17 62 80q0 50 -64 83.5t-194 33.5q-293 0 -293 -228v-1036h-328z" />
    <glyph glyph-name="agrave" unicode="&#xe0;" horiz-adv-x="1034" 
d="M72 291q0 143 101 222t259 79h178v100q0 129 -182 129q-119 0 -260 -82l-84 230q174 100 367 100q215 0 324.5 -102.5t109.5 -272.5v-409l108 -156l-235 -154l-66 88q-22 29 -47 7q-111 -86 -252 -86q-148 0 -234.5 85.5t-86.5 221.5zM139 1536h307l287 -352h-307z
M338 295q0 -40 34.5 -68t86.5 -28q70 0 110.5 43.5t40.5 113.5v27q0 26 -37 16l-73 -22h-64q-98 0 -98 -82z" />
    <glyph glyph-name="aacute" unicode="&#xe1;" horiz-adv-x="1034" 
d="M72 291q0 143 101 222t259 79h178v100q0 129 -182 129q-119 0 -260 -82l-84 230q174 100 367 100q215 0 324.5 -102.5t109.5 -272.5v-409l108 -156l-235 -154l-66 88q-22 29 -47 7q-111 -86 -252 -86q-148 0 -234.5 85.5t-86.5 221.5zM303 1184l287 352h307l-287 -352
h-307zM338 295q0 -40 34.5 -68t86.5 -28q70 0 110.5 43.5t40.5 113.5v27q0 26 -37 16l-73 -22h-64q-98 0 -98 -82z" />
    <glyph glyph-name="acircumflex" unicode="&#xe2;" horiz-adv-x="1034" 
d="M72 291q0 143 101 222t259 79h178v100q0 129 -182 129q-119 0 -260 -82l-84 230q174 100 367 100q215 0 324.5 -102.5t109.5 -272.5v-409l108 -156l-235 -154l-66 88q-22 29 -47 7q-111 -86 -252 -86q-148 0 -234.5 85.5t-86.5 221.5zM180 1184l185 352h307l184 -352
h-246l-61 114l-21 70q-12 27 -24 0l-21 -70l-57 -114h-246zM338 295q0 -40 34.5 -68t86.5 -28q70 0 110.5 43.5t40.5 113.5v27q0 26 -37 16l-73 -22h-64q-98 0 -98 -82z" />
    <glyph glyph-name="atilde" unicode="&#xe3;" horiz-adv-x="1034" 
d="M72 291q0 143 101 222t259 79h178v100q0 129 -182 129q-119 0 -260 -82l-84 230q174 100 367 100q215 0 324.5 -102.5t109.5 -272.5v-409l108 -156l-235 -154l-66 88q-22 29 -47 7q-111 -86 -252 -86q-148 0 -234.5 85.5t-86.5 221.5zM150 1343q85 91 217 91
q66 0 117.5 -17.5t92.5 -35t80 -17.5q83 0 148 72l82 -189q-84 -90 -217 -90q-66 0 -118 17.5t-93 35t-80 17.5q-83 0 -148 -72zM338 295q0 -40 34.5 -68t86.5 -28q70 0 110.5 43.5t40.5 113.5v27q0 26 -37 16l-73 -22h-64q-98 0 -98 -82z" />
    <glyph glyph-name="adieresis" unicode="&#xe4;" horiz-adv-x="1034" 
d="M72 291q0 143 101 222t259 79h178v100q0 129 -182 129q-119 0 -260 -82l-84 230q174 100 367 100q215 0 324.5 -102.5t109.5 -272.5v-409l108 -156l-235 -154l-66 88q-22 29 -47 7q-111 -86 -252 -86q-148 0 -234.5 85.5t-86.5 221.5zM172 1184v250h274v-250h-274z
M338 295q0 -40 34.5 -68t86.5 -28q70 0 110.5 43.5t40.5 113.5v27q0 26 -37 16l-73 -22h-64q-98 0 -98 -82zM590 1184v250h274v-250h-274z" />
    <glyph glyph-name="aring" unicode="&#xe5;" horiz-adv-x="1034" 
d="M72 291q0 143 101 222t259 79h178v100q0 129 -182 129q-119 0 -260 -82l-84 230q174 100 367 100q215 0 324.5 -102.5t109.5 -272.5v-409l108 -156l-235 -154l-66 88q-22 29 -47 7q-111 -86 -252 -86q-148 0 -234.5 85.5t-86.5 221.5zM197 1382q0 65 27.5 112t75 72
t102 36.5t118.5 11.5q63 0 117 -11.5t101.5 -36.5t74.5 -72t27 -112t-27 -112.5t-74.5 -72.5t-101 -36.5t-117.5 -11.5q-67 0 -122 12t-102 37.5t-73 72.5t-26 111zM338 295q0 -40 34.5 -68t86.5 -28q70 0 110.5 43.5t40.5 113.5v27q0 26 -37 16l-73 -22h-64q-98 0 -98 -82z
M403 1382q0 -49 29.5 -66.5t83.5 -17.5q57 0 87 17t30 67q0 48 -30 65t-87 17q-56 0 -84.5 -17t-28.5 -65z" />
    <glyph glyph-name="ae" unicode="&#xe6;" horiz-adv-x="1570" 
d="M72 291q0 143 101 222t259 79h178v100q0 129 -182 129q-119 0 -260 -82l-84 230q174 100 367 100q158 0 266 -59l37 -41q16 -19 32 0l35 39q102 57 236 57q222 0 332 -130.5t110 -379.5l-43 -106h-561q0 -115 58.5 -167.5t172.5 -52.5q105 0 234 60l78 -219
q-133 -88 -312 -88q-196 0 -327 86l-39 43q-17 20 -35 -2l-35 -39q-125 -88 -276 -88q-157 0 -249.5 86.5t-92.5 222.5zM338 295q0 -40 34.5 -68t86.5 -28q70 0 110.5 43.5t40.5 113.5v27q0 26 -37 16l-73 -22h-64q-98 0 -98 -82zM899 655h322q-16 170 -160 170
q-143 0 -162 -170z" />
    <glyph glyph-name="ccedilla" unicode="&#xe7;" horiz-adv-x="942" 
d="M92 524q0 103 12 185q23 162 142 261t317 99q197 0 316 -98l-82 -226q-93 72 -213 72q-84 0 -135 -42.5t-56 -108.5q-11 -143 0 -285q5 -66 57 -109t140 -43q106 0 213 66l78 -219q-129 -101 -312 -101h-20l-17 -63q95 -15 151 -65.5t56 -122.5q0 -127 -134.5 -194
t-354.5 -62l45 167q112 0 177 21.5t65 56.5q0 32 -46 43t-169 11l59 237q-119 39 -190.5 127.5t-86.5 208.5q-12 99 -12 184z" />
    <glyph glyph-name="egrave" unicode="&#xe8;" horiz-adv-x="1052" 
d="M92 510q0 80 12 182q23 166 137.5 269.5t297.5 103.5q222 0 332 -130.5t110 -379.5l-43 -106h-561q0 -27 2 -39q16 -181 229 -181q105 0 234 60l78 -219q-136 -90 -312 -90q-209 0 -344 99t-160 255q-12 99 -12 176zM160 1536h307l287 -352h-308zM381 655h321
q-16 170 -159 170t-162 -170z" />
    <glyph glyph-name="eacute" unicode="&#xe9;" horiz-adv-x="1052" 
d="M92 510q0 80 12 182q23 166 137.5 269.5t297.5 103.5q222 0 332 -130.5t110 -379.5l-43 -106h-561q0 -27 2 -39q16 -181 229 -181q105 0 234 60l78 -219q-136 -90 -312 -90q-209 0 -344 99t-160 255q-12 99 -12 176zM324 1184l286 352h308l-287 -352h-307zM381 655h321
q-16 170 -159 170t-162 -170z" />
    <glyph glyph-name="ecircumflex" unicode="&#xea;" horiz-adv-x="1052" 
d="M92 510q0 80 12 182q23 166 137.5 269.5t297.5 103.5q222 0 332 -130.5t110 -379.5l-43 -106h-561q0 -27 2 -39q16 -181 229 -181q105 0 234 60l78 -219q-136 -90 -312 -90q-209 0 -344 99t-160 255q-12 99 -12 176zM201 1184l184 352h307l185 -352h-246l-62 114l-20 70
q-13 28 -25 0l-20 -70l-58 -114h-245zM381 655h321q-16 170 -159 170t-162 -170z" />
    <glyph glyph-name="edieresis" unicode="&#xeb;" horiz-adv-x="1052" 
d="M92 510q0 80 12 182q23 166 137.5 269.5t297.5 103.5q222 0 332 -130.5t110 -379.5l-43 -106h-561q0 -27 2 -39q16 -181 229 -181q105 0 234 60l78 -219q-136 -90 -312 -90q-209 0 -344 99t-160 255q-12 99 -12 176zM193 1184v250h274v-250h-274zM381 655h321
q-16 170 -159 170t-162 -170zM610 1184v250h275v-250h-275z" />
    <glyph glyph-name="igrave" unicode="&#xec;" horiz-adv-x="665" 
d="M-41 1536h307l287 -352h-307zM41 791v253h491v-1044h-307v791h-184z" />
    <glyph glyph-name="iacute" unicode="&#xed;" horiz-adv-x="665" 
d="M41 791v253h491v-1044h-307v791h-184zM123 1184l287 352h307l-287 -352h-307z" />
    <glyph glyph-name="icircumflex" unicode="&#xee;" horiz-adv-x="675" 
d="M31 1184l153 352h314l153 -352h-241l-45 114l-19 70q-9 27 -18 0l-17 -70l-41 -114h-239zM41 791v253h491v-1044h-307v791h-184z" />
    <glyph glyph-name="idieresis" unicode="&#xef;" horiz-adv-x="675" 
d="M41 791v253h491v-1044h-307v791h-184zM41 1184v250h246v-250h-246zM373 1184v250h245v-250h-245z" />
    <glyph glyph-name="eth" unicode="&#xf0;" horiz-adv-x="1148" 
d="M61 469q0 200 119.5 330.5t288.5 130.5q25 0 41 -2l80 -45q23 -13 30.5 -1t-6.5 33l-118 166l-154 -80l-96 166l139 72l-137 195h344l43 -68l131 68l100 -158l-127 -66l158 -239q113 -170 151.5 -278t38.5 -224q0 -227 -139 -360.5t-375 -133.5t-374 133.5t-138 360.5z
M360 469q3 -101 60.5 -160t152.5 -59q94 0 152.5 59t62.5 160q-4 101 -62.5 160t-152.5 59q-95 0 -152.5 -59t-60.5 -160z" />
    <glyph glyph-name="ntilde" unicode="&#xf1;" horiz-adv-x="1161" 
d="M133 0v1044h307v-57q108 82 248 82q95 0 172 -33t127.5 -107t50.5 -179v-750h-307v643q0 80 -29.5 114t-111.5 34t-116 -35t-34 -113v-643h-307zM213 1343q85 91 217 91q66 0 118 -17.5t93 -35t80 -17.5q82 0 147 72l82 -189q-84 -90 -217 -90q-66 0 -118 17.5t-93 35
t-80 17.5q-82 0 -147 -72z" />
    <glyph glyph-name="ograve" unicode="&#xf2;" horiz-adv-x="1124" 
d="M92 518q0 107 12 189q23 162 142 262t315 100q197 0 317.5 -100t141.5 -262q12 -102 12 -189q0 -81 -12 -180q-24 -162 -143.5 -262.5t-315.5 -100.5t-316 101t-141 262q-12 99 -12 180zM184 1536h308l286 -352h-307zM393 659q-13 -128 2 -274q6 -68 49.5 -112t116.5 -44
q74 0 117 44t51 110q16 133 2 276q-6 68 -50.5 113t-119.5 45q-73 0 -117.5 -45t-50.5 -113z" />
    <glyph glyph-name="oacute" unicode="&#xf3;" horiz-adv-x="1124" 
d="M92 518q0 107 12 189q23 162 142 262t315 100q197 0 317.5 -100t141.5 -262q12 -102 12 -189q0 -81 -12 -180q-24 -162 -143.5 -262.5t-315.5 -100.5t-316 101t-141 262q-12 99 -12 180zM348 1184l287 352h307l-287 -352h-307zM393 659q-13 -128 2 -274q6 -68 49.5 -112
t116.5 -44q74 0 117 44t51 110q16 133 2 276q-6 68 -50.5 113t-119.5 45q-73 0 -117.5 -45t-50.5 -113z" />
    <glyph glyph-name="ocircumflex" unicode="&#xf4;" horiz-adv-x="1124" 
d="M92 518q0 107 12 189q23 162 142 262t315 100q197 0 317.5 -100t141.5 -262q12 -102 12 -189q0 -81 -12 -180q-24 -162 -143.5 -262.5t-315.5 -100.5t-316 101t-141 262q-12 99 -12 180zM225 1184l185 352h307l184 -352h-246l-61 114l-21 70q-12 27 -24 0l-21 -70
l-57 -114h-246zM393 659q-13 -128 2 -274q6 -68 49.5 -112t116.5 -44q74 0 117 44t51 110q16 133 2 276q-6 68 -50.5 113t-119.5 45q-73 0 -117.5 -45t-50.5 -113z" />
    <glyph glyph-name="otilde" unicode="&#xf5;" horiz-adv-x="1124" 
d="M92 518q0 107 12 189q23 162 142 262t315 100q197 0 317.5 -100t141.5 -262q12 -102 12 -189q0 -81 -12 -180q-24 -162 -143.5 -262.5t-315.5 -100.5t-316 101t-141 262q-12 99 -12 180zM195 1343q85 91 217 91q66 0 117.5 -17.5t92.5 -35t80 -17.5q83 0 148 72l82 -189
q-84 -90 -217 -90q-66 0 -118 17.5t-93 35t-80 17.5q-83 0 -148 -72zM393 659q-13 -128 2 -274q6 -68 49.5 -112t116.5 -44q74 0 117 44t51 110q16 133 2 276q-6 68 -50.5 113t-119.5 45q-73 0 -117.5 -45t-50.5 -113z" />
    <glyph glyph-name="odieresis" unicode="&#xf6;" horiz-adv-x="1124" 
d="M92 518q0 107 12 189q23 162 142 262t315 100q197 0 317.5 -100t141.5 -262q12 -102 12 -189q0 -81 -12 -180q-24 -162 -143.5 -262.5t-315.5 -100.5t-316 101t-141 262q-12 99 -12 180zM217 1184v250h275v-250h-275zM393 659q-13 -128 2 -274q6 -68 49.5 -112t116.5 -44
q74 0 117 44t51 110q16 133 2 276q-6 68 -50.5 113t-119.5 45q-73 0 -117.5 -45t-50.5 -113zM635 1184v250h274v-250h-274z" />
    <glyph glyph-name="divide" unicode="&#xf7;" 
d="M102 578v278h942v-278h-942zM414 113v307h321v-307h-321zM414 1014v307h321v-307h-321z" />
    <glyph glyph-name="oslash" unicode="&#xf8;" horiz-adv-x="1124" 
d="M35 0l129 170q-48 76 -60 168q-12 99 -12 180q0 107 12 189q23 162 142 262t315 100q144 0 244 -53l22 28h263l-129 -170q47 -74 59 -167q12 -102 12 -189q0 -81 -12 -180q-24 -162 -143.5 -262.5t-315.5 -100.5q-140 0 -242 54l-22 -29h-262zM389 467l252 332
q-35 18 -80 18q-73 0 -117.5 -45t-50.5 -113q-10 -93 -4 -192zM483 246q39 -17 78 -17q74 0 117 44t51 110q13 118 8 197z" />
    <glyph glyph-name="ugrave" unicode="&#xf9;" horiz-adv-x="1161" 
d="M123 297v750h307v-644q0 -80 29.5 -113.5t111.5 -33.5t116 34.5t34 112.5v644h307v-1047h-311v47q0 18 -10.5 22.5t-32.5 -6.5l-131 -75q-31 -8 -70 -8q-70 0 -132 20t-111 58t-78 100t-29 139zM207 1536h307l287 -352h-307z" />
    <glyph glyph-name="uacute" unicode="&#xfa;" horiz-adv-x="1161" 
d="M123 297v750h307v-644q0 -80 29.5 -113.5t111.5 -33.5t116 34.5t34 112.5v644h307v-1047h-311v47q0 18 -10.5 22.5t-32.5 -6.5l-131 -75q-31 -8 -70 -8q-70 0 -132 20t-111 58t-78 100t-29 139zM371 1184l286 352h308l-287 -352h-307z" />
    <glyph glyph-name="ucircumflex" unicode="&#xfb;" horiz-adv-x="1161" 
d="M123 297v750h307v-644q0 -80 29.5 -113.5t111.5 -33.5t116 34.5t34 112.5v644h307v-1047h-311v47q0 18 -10.5 22.5t-32.5 -6.5l-131 -75q-31 -8 -70 -8q-70 0 -132 20t-111 58t-78 100t-29 139zM248 1184l184 352h307l185 -352h-246l-62 114l-20 70q-12 28 -25 0l-20 -70
l-57 -114h-246z" />
    <glyph glyph-name="udieresis" unicode="&#xfc;" horiz-adv-x="1161" 
d="M123 297v750h307v-644q0 -80 29.5 -113.5t111.5 -33.5t116 34.5t34 112.5v644h307v-1047h-311v47q0 18 -10.5 22.5t-32.5 -6.5l-131 -75q-31 -8 -70 -8q-70 0 -132 20t-111 58t-78 100t-29 139zM240 1184v250h274v-250h-274zM657 1184v250h275v-250h-275z" />
    <glyph glyph-name="yacute" unicode="&#xfd;" horiz-adv-x="989" 
d="M20 1044h314l127 -444l20 -190q1 -12 9 -16.5t16.5 0t9.5 16.5l23 190l102 444h307l-338 -1132q-43 -154 -169.5 -249t-301.5 -101l-73 260q106 10 175.5 59t90.5 123l30 111zM281 1184l286 352h307l-286 -352h-307z" />
    <glyph glyph-name="thorn" unicode="&#xfe;" horiz-adv-x="1157" 
d="M133 -410v1844h307v-449q38 37 99 60.5t125 23.5q183 0 278 -85.5t113 -250.5q10 -100 10 -207q0 -71 -10 -211q-28 -335 -371 -335q-39 0 -70 8l-131 75q-22 11 -32.5 6.5t-10.5 -22.5v-457h-307zM440 377q0 -64 42 -104t116 -40q71 0 108 32t42 83q15 175 0 350
q-5 50 -44 82.5t-106 32.5q-158 0 -158 -141v-295z" />
    <glyph glyph-name="ydieresis" unicode="&#xff;" horiz-adv-x="989" 
d="M20 1044h314l127 -444l20 -190q1 -12 9 -16.5t16.5 0t9.5 16.5l23 190l102 444h307l-338 -1132q-43 -154 -169.5 -249t-301.5 -101l-73 260q106 10 175.5 59t90.5 123l30 111zM150 1184v250h274v-250h-274zM567 1184v250h275v-250h-275z" />
    <glyph glyph-name="Gbreve" unicode="&#x11e;" horiz-adv-x="1224" 
d="M92 717q0 158 12 278q26 224 174.5 343.5t389.5 119.5q232 0 401 -125l-100 -256q-106 94 -301 94q-127 0 -189 -57.5t-73 -169.5q-11 -136 -11 -227q0 -74 11 -246q7 -99 63.5 -151t153.5 -54q93 0 168 17v290h-140v287h533v-287h-127v-483q-144 -105 -414 -110
q-244 -3 -382 114.5t-157 343.5q-12 160 -12 279zM231 1862l207 51q40 -117 164 -117q123 0 164 117l207 -51q-44 -128 -129.5 -194t-241.5 -66t-241.5 66t-129.5 194z" />
    <glyph glyph-name="gbreve" unicode="&#x11f;" horiz-adv-x="1144" 
d="M92 526q0 107 10 207q28 336 390 336q64 0 124.5 -23.5t98.5 -60.5v59h307v-1093q0 -157 -137 -273t-359 -116q-114 0 -186.5 18.5t-183.5 73.5l86 221q91 -47 137 -57.5t149 -10.5q87 0 138 49t51 148v45q0 17 -12 21.5t-29 -4.5l-137 -80q-38 -6 -88 -6
q-151 0 -243.5 88t-105.5 247q-10 105 -10 211zM197 1473l206 51q41 -117 164 -117t164 117l207 -51q-29 -84 -72 -139t-118 -88.5t-181 -33.5t-181 33.5t-117.5 88.5t-71.5 139zM410 346q5 -52 40.5 -83.5t106.5 -31.5q74 0 116 40t42 104v297q0 141 -158 141
q-67 0 -104.5 -32.5t-42.5 -82.5q-17 -194 0 -352z" />
    <glyph glyph-name="Idotaccent" unicode="&#x130;" horiz-adv-x="907" 
d="M102 0v266h189v901h-189v267h703v-267h-189v-901h189v-266h-703zM301 1573v250h307v-250h-307z" />
    <glyph glyph-name="dotlessi" unicode="&#x131;" horiz-adv-x="665" 
d="M41 791v253h491v-1044h-307v791h-184z" />
    <glyph glyph-name="IJ" unicode="&#x132;" horiz-adv-x="1908" 
d="M102 0v266h189v901h-189v267h703v-267h-189v-901h189v-266h-703zM969 41v287q136 -62 270 -62q219 0 219 185v716h-287v267h615v-983q0 -227 -134 -351.5t-368 -124.5q-89 0 -156 16t-159 50z" />
    <glyph glyph-name="ij" unicode="&#x133;" horiz-adv-x="1331" 
d="M41 791v253h491v-1044h-307v791h-184zM225 1184v250h307v-250h-307zM686 -186q102 25 153.5 71.5t51.5 130.5v777h-184v251h491v-1015q0 -96 -26.5 -175.5t-69.5 -133.5t-101 -93t-119.5 -58.5t-125.5 -23.5zM891 1184v250h305v-250h-305z" />
    <glyph glyph-name="OE" unicode="&#x152;" horiz-adv-x="1867" 
d="M92 717q0 180 22 301.5t54 182t86 114.5q143 143 381 143q84 0 170 -22l51 -31q12 -7 20.5 -2.5t8.5 18.5v13h880v-287h-583v-297h549v-266h-549v-297h583v-287h-880v12q0 14 -8.5 19t-20.5 -2l-57 -33q-79 -21 -164 -21q-237 0 -381 144q-54 54 -86 114.5t-54 182
t-22 301.5zM422 717q0 -122 10 -252q6 -93 61 -147t142 -54t142 54t61 147q10 130 10 252t-10 252q-6 93 -61 146.5t-142 53.5t-142 -53.5t-61 -146.5q-10 -130 -10 -252z" />
    <glyph glyph-name="oe" unicode="&#x153;" horiz-adv-x="1712" 
d="M92 518q0 107 12 189q23 162 142 262t315 100q153 0 275 -76l36 -39q16 -19 35 0l37 39q117 72 254 72q222 0 332 -130.5t110 -379.5l-43 -106h-561q0 -27 2 -39q16 -181 230 -181q104 0 233 60l78 -219q-136 -90 -311 -90q-189 0 -322 81l-31 35q-16 19 -32 0l-31 -35
q-120 -86 -291 -86q-196 0 -316 101t-141 262q-12 99 -12 180zM393 659q-13 -128 2 -274q6 -68 49.5 -112t116.5 -44q74 0 117 44t51 110q16 133 2 276q-6 68 -50.5 113t-119.5 45q-73 0 -117.5 -45t-50.5 -113zM1040 655h322q-16 170 -160 170q-143 0 -162 -170z" />
    <glyph glyph-name="Scedilla" unicode="&#x15e;" horiz-adv-x="1064" 
d="M51 111l94 258q98 -59 175 -83t176 -24q98 0 154.5 43.5t56.5 124.5q0 70 -41.5 114t-122.5 54l-76 10q-178 23 -287.5 125t-109.5 281q0 206 131 325t383 119q243 0 399 -117l-90 -241q-143 76 -299 76q-112 0 -164.5 -40t-52.5 -102q0 -115 131 -131l82 -10
q203 -23 313.5 -140t110.5 -309q0 -207 -110 -323.5t-316 -136.5l-19 -72q95 -15 151 -65.5t56 -122.5q0 -127 -134.5 -194t-354.5 -62l45 167q112 0 176.5 21t64.5 57q0 32 -46 43t-169 11l54 217q-192 17 -361 127z" />
    <glyph glyph-name="scedilla" unicode="&#x15f;" horiz-adv-x="974" 
d="M82 94l86 221q94 -60 157 -76t156 -16q73 0 108.5 26t35.5 68q0 77 -95 82l-110 7q-157 8 -247.5 83.5t-90.5 227.5q0 168 111.5 260t302.5 92q119 0 203 -21t165 -73l-86 -221q-63 41 -126.5 56t-153.5 15q-73 0 -111.5 -24.5t-38.5 -63.5q0 -67 94 -73l113 -7
q158 -8 248 -86.5t90 -230.5q0 -161 -93 -253t-257 -107l-19 -68q95 -15 151 -65.5t56 -122.5q0 -127 -134.5 -194t-354.5 -62l45 167q112 0 176.5 21t64.5 57q0 32 -46 43t-169 11l54 217q-135 19 -285 110z" />
    <glyph glyph-name="Scaron" unicode="&#x160;" horiz-adv-x="1064" 
d="M51 111l94 258q98 -59 175 -83t176 -24q98 0 154.5 43.5t56.5 124.5q0 70 -41.5 114t-122.5 54l-76 10q-178 23 -287.5 125t-109.5 281q0 206 131 325t383 119q243 0 399 -117l-90 -241q-143 76 -299 76q-112 0 -164.5 -40t-52.5 -102q0 -115 131 -131l82 -10
q203 -23 313.5 -140t110.5 -309q0 -227 -132 -345.5t-378 -118.5q-136 0 -241.5 31.5t-211.5 99.5zM195 1925h245l58 -115l20 -69q12 -28 25 0l20 69l62 115h245l-184 -352h-307z" />
    <glyph glyph-name="scaron" unicode="&#x161;" horiz-adv-x="974" 
d="M82 94l86 221q94 -60 157 -76t156 -16q73 0 108.5 26t35.5 68q0 77 -95 82l-110 7q-157 8 -247.5 83.5t-90.5 227.5q0 168 111.5 260t302.5 92q119 0 203 -21t165 -73l-86 -221q-63 41 -126.5 56t-153.5 15q-73 0 -111.5 -24.5t-38.5 -63.5q0 -67 94 -73l113 -7
q158 -8 248 -86.5t90 -230.5q0 -176 -111 -269.5t-303 -93.5q-118 0 -206 27t-191 90zM150 1538h245l58 -115l20 -69q13 -28 25 0l20 69l62 115h245l-184 -352h-307z" />
    <glyph glyph-name="Ydieresis" unicode="&#x178;" horiz-adv-x="1040" 
d="M0 1434h330l151 -410l23 -160q2 -12 9 -16.5t14.5 0t11.5 16.5l24 160l152 410h325l-356 -912v-522h-328v522zM174 1573v250h275v-250h-275zM592 1573v250h274v-250h-274z" />
    <glyph glyph-name="Zcaron" unicode="&#x17d;" horiz-adv-x="1099" 
d="M72 0v201l514 864l71 65q12 12 8.5 24.5t-20.5 12.5h-276v-135h-297v402h956v-201l-512 -844l-72 -65q-12 -12 -8 -24.5t21 -12.5h571v-287h-956zM203 1925h246l57 -115l20 -69q12 -28 25 0l20 69l62 115h246l-185 -352h-307z" />
    <glyph glyph-name="zcaron" unicode="&#x17e;" horiz-adv-x="980" 
d="M92 0v213l379 496l68 57q16 14 12 23.5t-19 9.5h-440v245h797v-210l-381 -498l-68 -57q-16 -13 -12.5 -23t18.5 -10h443v-246h-797zM154 1536h245l58 -115l20 -69q13 -28 25 0l20 69l62 115h245l-184 -352h-307z" />
    <glyph glyph-name="florin" unicode="&#x192;" 
 />
    <glyph glyph-name="circumflex" unicode="&#x2c6;" horiz-adv-x="880" 
d="M102 1184l185 352h307l184 -352h-246l-61 114l-20 70q-13 28 -25 0l-20 -70l-58 -114h-246z" />
    <glyph glyph-name="caron" unicode="&#x2c7;" horiz-adv-x="880" 
d="M102 1536h246l58 -115l20 -69q12 -28 25 0l20 69l61 115h246l-184 -352h-307z" />
    <glyph glyph-name="breve" unicode="&#x2d8;" horiz-adv-x="978" 
d="M119 1473l207 51q40 -117 163 -117t164 117l207 -51q-29 -84 -72 -139t-118 -88.5t-181 -33.5t-181 33.5t-117.5 88.5t-71.5 139z" />
    <glyph glyph-name="dotaccent" unicode="&#x2d9;" horiz-adv-x="552" 
d="M102 1184v250h308v-250h-308z" />
    <glyph glyph-name="ring" unicode="&#x2da;" horiz-adv-x="847" 
d="M102 1382q0 65 27.5 112t75.5 72t102.5 36.5t118.5 11.5q63 0 117 -11.5t101 -36.5t74 -72t27 -112t-27 -112.5t-74 -72.5t-100.5 -36.5t-117.5 -11.5q-67 0 -122.5 12t-102 37.5t-73 72.5t-26.5 111zM309 1382q0 -49 29.5 -66.5t83.5 -17.5q57 0 87 17t30 67
q0 48 -30 65t-87 17q-56 0 -84.5 -17t-28.5 -65z" />
    <glyph glyph-name="tilde" unicode="&#x2dc;" horiz-adv-x="942" 
d="M102 1343q85 91 217 91q66 0 118 -17.5t93 -35t80 -17.5q83 0 148 72l82 -189q-84 -90 -217 -90q-66 0 -118 17.5t-93 35t-80 17.5q-83 0 -148 -72z" />
    <glyph glyph-name="hungarumlaut" unicode="&#x2dd;" horiz-adv-x="1251" 
d="M102 1184l287 352h307l-286 -352h-308zM555 1184l287 352h307l-287 -352h-307z" />
    <glyph glyph-name="uni0394" unicode="&#x394;" 
 />
    <glyph glyph-name="uni03BC" unicode="&#x3bc;" horiz-adv-x="1171" 
d="M123 -336v1383h307v-644q0 -80 29.5 -113.5t111.5 -33.5t116 34.5t34 112.5v644h307v-1047h-311v47q0 18 -10.5 22.5t-32.5 -6.5l-131 -75q-31 -8 -70 -8q-29 0 -43 2v-318h-307z" />
    <glyph glyph-name="uni0400" unicode="&#x400;" horiz-adv-x="1126" 
d="M143 0v1434h881v-287h-584v-297h549v-266h-549v-297h584v-287h-881zM225 1925h307l287 -352h-307z" />
    <glyph glyph-name="uni0401" unicode="&#x401;" horiz-adv-x="1126" 
d="M143 0v1434h881v-287h-584v-297h549v-266h-549v-297h584v-287h-881zM258 1573v250h274v-250h-274zM676 1573v250h274v-250h-274z" />
    <glyph glyph-name="uni0402" unicode="&#x402;" horiz-adv-x="1445" 
d="M41 1147v287h963v-287h-318v-305q0 -38 41 -21l119 53q53 9 106 9q93 0 170 -26t136.5 -79t92.5 -140.5t33 -203.5q0 -201 -112 -326.5t-318 -125.5q-88 0 -170 20l58 256q30 -10 67 -10q72 0 108 53t36 133q0 85 -52.5 128.5t-144.5 43.5q-88 0 -170 -33v-573h-328v1147
h-317z" />
    <glyph glyph-name="uni0403" unicode="&#x403;" horiz-adv-x="970" 
d="M143 0v1434h787v-287h-459v-1147h-328zM281 1573l286 352h307l-286 -352h-307z" />
    <glyph glyph-name="uni0404" unicode="&#x404;" horiz-adv-x="1073" 
d="M92 717q0 148 10 291q15 199 162 324.5t365 125.5q114 0 200 -21.5t177 -68.5l-84 -268q-69 40 -123.5 55.5t-134.5 15.5q-103 0 -165.5 -48.5t-68.5 -131.5q-1 -28 -4 -75.5t-4 -65.5h409v-266h-409q1 -17 4 -64.5t4 -77.5q7 -86 64.5 -133t154.5 -45q56 0 106 11.5
t80 24t80 38.5l97 -256q-90 -56 -172 -81.5t-191 -25.5q-227 0 -379.5 125.5t-167.5 325.5q-10 143 -10 291z" />
    <glyph glyph-name="uni0405" unicode="&#x405;" horiz-adv-x="1064" 
d="M51 111l94 258q98 -59 175 -83t176 -24q98 0 154.5 43.5t56.5 124.5q0 70 -41.5 114t-122.5 54l-76 10q-178 23 -287.5 125t-109.5 281q0 206 131 325t383 119q243 0 399 -117l-90 -241q-143 76 -299 76q-112 0 -164.5 -40t-52.5 -102q0 -115 131 -131l82 -10
q203 -23 313.5 -140t110.5 -309q0 -227 -132 -345.5t-378 -118.5q-136 0 -241.5 31.5t-211.5 99.5z" />
    <glyph glyph-name="uni0406" unicode="&#x406;" horiz-adv-x="907" 
d="M102 0v266h189v901h-189v267h703v-267h-189v-901h189v-266h-703z" />
    <glyph glyph-name="uni0407" unicode="&#x407;" horiz-adv-x="907" 
d="M102 0v266h189v901h-189v267h703v-267h-189v-901h189v-266h-703zM109 1573v250h274v-250h-274zM526 1573v250h275v-250h-275z" />
    <glyph glyph-name="uni0408" unicode="&#x408;" horiz-adv-x="980" 
d="M20 82l97 256q59 -39 111.5 -56.5t127.5 -17.5q85 -2 129.5 44.5t44.5 142.5v716h-286v267h614v-983q0 -227 -134 -351.5t-368 -124.5q-100 0 -177 26t-159 81z" />
    <glyph glyph-name="uni0409" unicode="&#x409;" horiz-adv-x="1896" 
d="M20 246q166 29 193 219q33 305 39 969h885v-533h217q222 0 351.5 -120t129.5 -322q0 -213 -129 -336t-352 -123h-545v1147h-254q-14 -567 -41 -770q-26 -163 -135 -266.5t-285 -135.5zM1137 266h217q72 0 112.5 49t40.5 138q0 81 -41 131.5t-112 50.5h-217v-369z" />
    <glyph glyph-name="uni040A" unicode="&#x40a;" horiz-adv-x="1927" 
d="M143 0v1434h328v-533h369v533h327v-533h217q222 0 352 -120t130 -322q0 -213 -129.5 -336t-352.5 -123h-544v614h-369v-614h-328zM1167 266h217q72 0 113 49t41 138q0 81 -41.5 131.5t-112.5 50.5h-217v-369z" />
    <glyph glyph-name="uni040B" unicode="&#x40b;" horiz-adv-x="1484" 
d="M41 1147v287h963v-287h-318v-305q0 -38 41 -21l119 53q53 9 106 9q88 0 161 -25.5t129.5 -77.5t88 -138.5t31.5 -199.5v-442h-328v422q0 92 -47 138t-131 46q-88 0 -170 -33v-573h-328v1147h-317z" />
    <glyph glyph-name="uni040C" unicode="&#x40c;" horiz-adv-x="1200" 
d="M143 0v1434h320v-584h117l233 584h346l-307 -697l297 -737h-342l-227 584h-117v-584h-320zM391 1573l287 352h307l-287 -352h-307z" />
    <glyph glyph-name="uni040D" unicode="&#x40d;" horiz-adv-x="1320" 
d="M143 0v1434h318v-625l-31 -180q-3 -15 11.5 -21.5t21.5 8.5l418 818h297v-1434h-318v625l29 180q3 15 -11.5 21t-21.5 -9l-416 -817h-297zM283 1925h307l287 -352h-308z" />
    <glyph glyph-name="uni040E" unicode="&#x40e;" horiz-adv-x="1085" 
d="M-20 1434h335l217 -617l21 -207q1 -10 18 -10t19 10l20 207l164 617h332l-361 -1084q-66 -199 -165 -287t-271 -88q-52 0 -113 19t-108 47l94 258q61 -41 123 -41q75 0 109 80zM168 1862l207 51q40 -117 164 -117q123 0 163 117l207 -51q-29 -84 -71.5 -138.5t-117.5 -88
t-181 -33.5q-156 0 -241.5 66t-129.5 194z" />
    <glyph glyph-name="uni040F" unicode="&#x40f;" horiz-adv-x="1300" 
d="M143 0v1434h328v-1147h358v1147h328v-1434h-354v-287h-307v287h-353z" />
    <glyph glyph-name="uni0410" unicode="&#x410;" horiz-adv-x="1249" 
d="M61 0l283 1167h-149v267h665l348 -1434h-325l-70 332h-356l-70 -332h-326zM514 598h242l-88 420l-15 129q-1 12 -10 16.5t-17.5 0t-9.5 -16.5l-14 -129z" />
    <glyph glyph-name="uni0411" unicode="&#x411;" horiz-adv-x="1212" 
d="M143 0v1434h899v-287h-602v-256h213q125 0 218.5 -34t149 -95.5t82.5 -140t27 -175.5q0 -217 -124 -331.5t-353 -114.5h-510zM440 266h213q87 0 134 44.5t47 129.5q0 83 -48 134t-133 51h-213v-359z" />
    <glyph glyph-name="uni0412" unicode="&#x412;" horiz-adv-x="1212" 
d="M143 0v1434h490q219 0 339 -102.5t120 -289.5q0 -103 -47.5 -181.5t-133.5 -119.5q104 -32 161.5 -120t57.5 -215q0 -194 -119 -300t-337 -106h-531zM440 266h234q77 0 118.5 39.5t41.5 114.5q0 74 -42.5 119t-117.5 45h-234v-318zM440 850h193q77 0 120.5 45.5
t43.5 118.5t-43 113t-121 40h-193v-317z" />
    <glyph glyph-name="uni0413" unicode="&#x413;" horiz-adv-x="970" 
d="M143 0v1434h787v-287h-459v-1147h-328z" />
    <glyph glyph-name="uni0414" unicode="&#x414;" horiz-adv-x="1404" 
d="M41 -287v574h72q127 88 151 344q25 278 31 803h895v-1147h143v-574h-307v287h-678v-287h-307zM465.5 298q5.5 -11 23.5 -11h385v860h-280q-4 -279 -29 -524q-5 -51 -33 -195l-63 -104q-9 -15 -3.5 -26z" />
    <glyph glyph-name="uni0415" unicode="&#x415;" horiz-adv-x="1126" 
d="M143 0v1434h881v-287h-584v-297h549v-266h-549v-297h584v-287h-881z" />
    <glyph glyph-name="uni0416" unicode="&#x416;" horiz-adv-x="1794" 
d="M41 1434h346l234 -584h116v584h320v-584h117l233 584h346l-303 -697l293 -737h-342l-227 584h-117v-584h-320v584h-116l-228 -584h-342l293 737z" />
    <glyph glyph-name="uni0417" unicode="&#x417;" horiz-adv-x="1103" 
d="M41 131l96 260q89 -75 166.5 -103t196.5 -28q105 0 162 43t57 121t-57.5 126t-176.5 48h-217v266h238q172 0 172 154q0 75 -50.5 120.5t-140.5 45.5q-178 0 -319 -76l-88 242q98 61 199.5 84.5t226.5 23.5q68 0 133 -14t127.5 -45.5t110 -77.5t76 -116.5t28.5 -155.5
q0 -218 -154 -318q195 -97 195 -328q0 -190 -141 -306.5t-359 -116.5q-150 0 -263.5 33.5t-217.5 117.5z" />
    <glyph glyph-name="uni0418" unicode="&#x418;" horiz-adv-x="1320" 
d="M143 0v1434h318v-625l-31 -180q-3 -15 11.5 -21.5t21.5 8.5l418 818h297v-1434h-318v625l29 180q3 15 -11.5 21t-21.5 -9l-416 -817h-297z" />
    <glyph glyph-name="uni0419" unicode="&#x419;" horiz-adv-x="1320" 
d="M143 0v1434h318v-625l-31 -180q-3 -15 11.5 -21.5t21.5 8.5l418 818h297v-1434h-318v625l29 180q3 15 -11.5 21t-21.5 -9l-416 -817h-297zM291 1862l207 51q41 -117 164 -117t163 117l207 -51q-29 -84 -71.5 -138.5t-117.5 -88t-181 -33.5q-156 0 -241.5 66t-129.5 194z
" />
    <glyph glyph-name="uni041A" unicode="&#x41a;" horiz-adv-x="1200" 
d="M143 0v1434h320v-584h117l233 584h346l-307 -697l297 -737h-342l-227 584h-117v-584h-320z" />
    <glyph glyph-name="uni041B" unicode="&#x41b;" horiz-adv-x="1310" 
d="M20 246q175 30 193 219q33 335 39 969h915v-1434h-327v1147h-285q-1 -36 -3.5 -150t-4 -152.5t-4.5 -126t-6.5 -132.5t-9 -104t-13.5 -105q-26 -163 -135 -266.5t-285 -135.5z" />
    <glyph glyph-name="uni041C" unicode="&#x41c;" horiz-adv-x="1392" 
d="M143 0v1434h267l268 -506q6 -12 18.5 -12t18.5 12l268 506h266v-1434h-307v594l29 180q3 15 -10.5 21t-22.5 -9l-197 -317h-106l-180 317q-9 15 -22.5 9t-10.5 -21l29 -180v-594h-308z" />
    <glyph glyph-name="uni041D" unicode="&#x41d;" horiz-adv-x="1310" 
d="M143 0v1434h328v-574h369v574h327v-1434h-327v573h-369v-573h-328z" />
    <glyph glyph-name="uni041E" unicode="&#x41e;" horiz-adv-x="1269" 
d="M92 717q0 180 22 301.5t54 182t86 114.5q143 143 381 143t381 -143q54 -54 86 -114.5t54 -182t22 -301.5t-22 -301.5t-54 -182t-86 -114.5q-144 -144 -381 -144t-381 144q-54 54 -86 114.5t-54 182t-22 301.5zM422 717q0 -122 10 -252q6 -93 61 -147t142 -54t142 54
t61 147q10 130 10 252t-10 252q-6 93 -61 146.5t-142 53.5t-142 -53.5t-61 -146.5q-10 -130 -10 -252z" />
    <glyph glyph-name="uni041F" unicode="&#x41f;" horiz-adv-x="1300" 
d="M143 0v1434h1014v-1434h-328v1147h-358v-1147h-328z" />
    <glyph glyph-name="uni0420" unicode="&#x420;" horiz-adv-x="1187" 
d="M143 0v1434h543q204 0 322 -117.5t118 -321.5q0 -193 -118.5 -307.5t-321.5 -114.5h-217v-573h-326zM469 840h217q66 0 104.5 44.5t38.5 116.5q0 79 -37.5 122.5t-105.5 43.5h-217v-327z" />
    <glyph glyph-name="uni0421" unicode="&#x421;" horiz-adv-x="1032" 
d="M92 717q0 137 10 270q15 209 163.5 340t369.5 131q100 0 177 -27.5t157 -87.5l-88 -243q-56 40 -101 55.5t-110 15.5q-105 0 -168.5 -53.5t-71.5 -146.5q-10 -160 -10 -254q0 -91 10 -254q9 -96 67.5 -148t157.5 -51q46 0 87.5 11.5t65.5 24t66 38.5l97 -256
q-78 -55 -150 -81t-166 -26q-230 0 -384 131t-169 340q-10 133 -10 271z" />
    <glyph glyph-name="uni0422" unicode="&#x422;" horiz-adv-x="1044" 
d="M41 1147v287h963v-287h-318v-1147h-328v1147h-317z" />
    <glyph glyph-name="uni0423" unicode="&#x423;" horiz-adv-x="1085" 
d="M-20 1434h335l217 -617l21 -207q1 -10 18 -10t19 10l20 207l164 617h332l-361 -1084q-66 -199 -165 -287t-271 -88q-52 0 -113 19t-108 47l94 258q61 -41 123 -41q75 0 109 80z" />
    <glyph glyph-name="uni0424" unicode="&#x424;" horiz-adv-x="1720" 
d="M82 727q0 87 14 180q23 156 131 261.5t303 138.5l134 -19q32 -3 32 29v137h328v-137q0 -32 33 -29l133 19q195 -32 302.5 -137.5t131.5 -262.5q14 -93 14 -180t-14 -180q-24 -157 -131.5 -262.5t-302.5 -137.5l-133 19q-33 3 -33 -29v-157h-328v157q0 32 -32 29l-134 -19
q-195 32 -302.5 137.5t-131.5 262.5q-14 93 -14 180zM422 563q25 -97 89.5 -141.5t184.5 -44.5v700q-114 0 -180.5 -42.5t-93.5 -143.5q-46 -161 0 -328zM1024 377q227 0 274 186q43 161 0 328q-45 186 -274 186v-700z" />
    <glyph glyph-name="uni0425" unicode="&#x425;" horiz-adv-x="1167" 
d="M41 0l293 727l-293 707h346l156 -418l22 -160q2 -12 9 -16.5t14.5 0t11.5 16.5l25 160l155 418h346l-297 -707l297 -727h-346l-155 438l-25 160q-4 12 -11.5 16.5t-14.5 0t-9 -16.5l-22 -160l-156 -438h-346z" />
    <glyph glyph-name="uni0426" unicode="&#x426;" horiz-adv-x="1372" 
d="M143 0v1434h328v-1147h358v1147h328v-1147h143v-574h-307v287h-850z" />
    <glyph glyph-name="uni0427" unicode="&#x427;" horiz-adv-x="1249" 
d="M102 950v484h328v-463q0 -92 47 -138.5t131 -46.5q88 0 170 33v615h328v-1434h-328v551q0 37 -41 20l-119 -53q-47 -8 -106 -8q-88 0 -161 25.5t-129.5 77.5t-88 138t-31.5 199z" />
    <glyph glyph-name="uni0428" unicode="&#x428;" horiz-adv-x="1925" 
d="M143 0v1434h328v-1147h328v1147h327v-1147h328v1147h328v-1434h-1639z" />
    <glyph glyph-name="uni0429" unicode="&#x429;" horiz-adv-x="1996" 
d="M143 0v1434h328v-1147h328v1147h327v-1147h328v1147h328v-1147h143v-574h-307v287h-1475z" />
    <glyph glyph-name="uni042A" unicode="&#x42a;" horiz-adv-x="1394" 
d="M61 1188v246h574v-533h217q222 0 351.5 -120t129.5 -322q0 -213 -129 -336t-352 -123h-545v1188h-246zM635 266h217q72 0 113 49t41 138q0 81 -41.5 131.5t-112.5 50.5h-217v-369z" />
    <glyph glyph-name="uni042B" unicode="&#x42b;" horiz-adv-x="1763" 
d="M143 0v1434h328v-533h217q222 0 351.5 -120t129.5 -322q0 -213 -129 -336t-352 -123h-545zM471 266h217q72 0 113 49t41 138q0 81 -41.5 131.5t-112.5 50.5h-217v-369zM1292 0v1434h328v-1434h-328z" />
    <glyph glyph-name="uni042C" unicode="&#x42c;" horiz-adv-x="1230" 
d="M143 0v1434h328v-533h217q222 0 351.5 -120t129.5 -322q0 -213 -129 -336t-352 -123h-545zM471 266h217q72 0 113 49t41 138q0 81 -41.5 131.5t-112.5 50.5h-217v-369z" />
    <glyph glyph-name="uni042D" unicode="&#x42d;" horiz-adv-x="1073" 
d="M61 82l97 256q50 -26 80 -38.5t80 -24t106 -11.5q97 -2 154.5 45t64.5 133q1 30 4 77.5t4 64.5h-409v266h409q-1 18 -4 65.5t-4 75.5q-6 84 -64.5 132t-154.5 48q-80 0 -134.5 -15.5t-123.5 -55.5l-84 268q91 47 177 68.5t200 21.5q212 0 354.5 -125t157.5 -325
q10 -143 10 -291t-10 -291q-15 -200 -167.5 -325.5t-379.5 -125.5q-109 0 -191 25.5t-172 81.5z" />
    <glyph glyph-name="uni042E" unicode="&#x42e;" horiz-adv-x="1822" 
d="M143 0v1434h328v-574h178q10 186 49 285.5t109 169.5q143 143 381 143t381 -143q54 -54 86 -114.5t54 -182t22 -301.5t-22 -301.5t-54 -182t-86 -114.5q-144 -144 -381 -144t-381 144q-70 70 -109 169t-49 285h-178v-573h-328zM975 717q0 -122 10 -252q6 -93 61 -147
t142 -54t142 54t61 147q10 130 10 252t-10 252q-6 93 -61 146.5t-142 53.5t-142 -53.5t-61 -146.5q-10 -130 -10 -252z" />
    <glyph glyph-name="uni042F" unicode="&#x42f;" horiz-adv-x="1253" 
d="M82 0l215 434l92 107q12 15 8 26.5t-20 16.5q-134 40 -209.5 145.5t-75.5 261.5q0 210 137 326.5t387 116.5h494v-1434h-328v543h-90l-270 -543h-340zM416 989q0 -86 61 -133t170 -47h135v358h-135q-109 0 -170 -46.5t-61 -131.5z" />
    <glyph glyph-name="uni0430" unicode="&#x430;" horiz-adv-x="1034" 
d="M72 291q0 143 101 222t259 79h178v100q0 129 -182 129q-119 0 -260 -82l-84 230q174 100 367 100q215 0 324.5 -102.5t109.5 -272.5v-409l108 -156l-235 -154l-66 88q-22 29 -47 7q-111 -86 -252 -86q-148 0 -234.5 85.5t-86.5 221.5zM338 295q0 -40 34.5 -68t86.5 -28
q70 0 110.5 43.5t40.5 113.5v27q0 26 -37 16l-73 -22h-64q-98 0 -98 -82z" />
    <glyph glyph-name="uni0431" unicode="&#x431;" horiz-adv-x="1142" 
d="M92 641q0 181 14.5 309t47 227.5t90 162.5t139.5 101.5t199 55.5l127 16q44 7 68 11.5t59 17.5t65 33l96 -219q-53 -43 -114 -64t-158 -32q-29 -3 -141 -25q-96 -21 -139.5 -75.5t-45.5 -147.5q0 -17 9.5 -23.5t21.5 0.5l94 66q46 14 94 14q99 0 177 -31t126.5 -84
t77 -114.5t39.5 -132.5q13 -110 13 -189q0 -73 -13 -180q-24 -162 -143 -262.5t-315 -100.5q-160 0 -280.5 79.5t-158.5 199.5q-49 157 -49 387zM412 659q-13 -128 2 -274q6 -68 49.5 -112t116.5 -44q74 0 117 44t51 110q16 133 2 276q-6 69 -50.5 113.5t-119.5 44.5
q-73 0 -117.5 -45t-50.5 -113z" />
    <glyph glyph-name="uni0432" unicode="&#x432;" horiz-adv-x="1110" 
d="M133 0v1044h438q202 0 312 -74t110 -212q0 -70 -40 -126t-111 -85q89 -22 137.5 -85.5t48.5 -158.5q0 -145 -108 -224t-306 -79h-481zM440 248h176q105 0 105 82q0 40 -26.5 64t-76.5 24h-178v-170zM440 625h138q53 0 81.5 23t28.5 67q0 82 -110 82h-138v-172z" />
    <glyph glyph-name="uni0433" unicode="&#x433;" horiz-adv-x="884" 
d="M133 0v1044h690v-245h-383v-799h-307z" />
    <glyph glyph-name="uni0434" unicode="&#x434;" horiz-adv-x="1216" 
d="M20 246h56q79 29 96 135q43 186 43 663h807v-798h143v-512h-286v266h-572v-266h-287v512zM409 256q6 -10 23 -10h293v553h-225q-9 -288 -41 -412l-49 -104q-7 -17 -1 -27z" />
    <glyph glyph-name="uni0435" unicode="&#x435;" horiz-adv-x="1052" 
d="M92 510q0 80 12 182q23 166 137.5 269.5t297.5 103.5q222 0 332 -130.5t110 -379.5l-43 -106h-561q0 -27 2 -39q16 -181 229 -181q105 0 234 60l78 -219q-136 -90 -312 -90q-209 0 -344 99t-160 255q-12 99 -12 176zM381 655h321q-16 170 -159 170t-162 -170z" />
    <glyph glyph-name="uni0436" unicode="&#x436;" horiz-adv-x="1529" 
d="M41 0l242 522l-238 522h320l172 -399h75v399h299v-399h76l172 399h320l-234 -516l244 -528h-332l-170 399h-76v-399h-299v399h-75l-170 -399h-326z" />
    <glyph glyph-name="uni0437" unicode="&#x437;" horiz-adv-x="948" 
d="M20 94l89 240q78 -57 140 -74.5t175 -17.5q75 0 116.5 25.5t41.5 74.5q0 31 -43 58.5t-129 27.5h-123v197h123q157 0 157 94q0 43 -44.5 70.5t-125.5 27.5q-161 0 -276 -61l-80 221q180 92 377 92q85 0 163.5 -18.5t144 -54.5t105 -96.5t39.5 -137.5q0 -96 -34.5 -150
t-100.5 -86q152 -62 152 -233q0 -94 -64.5 -166t-164.5 -107.5t-216 -35.5q-135 0 -233 23.5t-189 86.5z" />
    <glyph glyph-name="uni0438" unicode="&#x438;" horiz-adv-x="1167" 
d="M133 0v1044h297v-395l-31 -180q-3 -15 10.5 -21t22.5 9l346 587h256v-1044h-297v373l29 180q3 16 -10 22t-23 -10l-344 -565h-256z" />
    <glyph glyph-name="uni0439" unicode="&#x439;" horiz-adv-x="1167" 
d="M133 0v1044h297v-395l-31 -180q-3 -15 10.5 -21t22.5 9l346 587h256v-1044h-297v373l29 180q3 16 -10 22t-23 -10l-344 -565h-256zM215 1473l207 51q41 -117 164 -117q124 0 164 117l206 -51q-29 -84 -71.5 -139t-117.5 -88.5t-181 -33.5t-181 33.5t-118 88.5t-72 139z
" />
    <glyph glyph-name="uni043A" unicode="&#x43a;" horiz-adv-x="1071" 
d="M133 0v1044h299v-399h76l192 399h320l-252 -514l262 -530h-332l-190 399h-76v-399h-299z" />
    <glyph glyph-name="uni043B" unicode="&#x43b;" horiz-adv-x="1183" 
d="M41 240q151 23 178 141q43 186 43 663h789v-1044h-308v799h-186q-6 -176 -41 -443q-45 -339 -403 -381z" />
    <glyph glyph-name="uni043C" unicode="&#x43c;" horiz-adv-x="1359" 
d="M133 0v1042h279l247 -432q7 -12 19 -12t20 12l250 432h279v-1042h-289v354l27 172q3 15 -9.5 21.5t-21.5 -8.5l-209 -322h-104l-195 322q-9 15 -22.5 8.5t-10.5 -21.5l29 -172v-354h-289z" />
    <glyph glyph-name="uni043D" unicode="&#x43d;" horiz-adv-x="1159" 
d="M133 0v1044h307v-399h279v399h307v-1044h-307v399h-279v-399h-307z" />
    <glyph glyph-name="uni043E" unicode="&#x43e;" horiz-adv-x="1124" 
d="M92 518q0 107 12 189q23 162 142 262t315 100q197 0 317.5 -100t141.5 -262q12 -102 12 -189q0 -81 -12 -180q-24 -162 -143.5 -262.5t-315.5 -100.5t-316 101t-141 262q-12 99 -12 180zM393 659q-13 -128 2 -274q6 -68 49.5 -112t116.5 -44q74 0 117 44t51 110
q16 133 2 276q-6 68 -50.5 113t-119.5 45q-73 0 -117.5 -45t-50.5 -113z" />
    <glyph glyph-name="uni043F" unicode="&#x43f;" horiz-adv-x="1146" 
d="M133 0v1044h881v-1044h-307v799h-267v-799h-307z" />
    <glyph glyph-name="uni0440" unicode="&#x440;" horiz-adv-x="1157" 
d="M133 -410v1454h307v-59q38 37 99 60.5t125 23.5q183 0 278 -85.5t113 -250.5q10 -100 10 -207q0 -71 -10 -211q-28 -335 -371 -335q-39 0 -70 8l-131 75q-22 11 -32.5 6.5t-10.5 -22.5v-457h-307zM440 377q0 -64 42 -104t116 -40q71 0 108 32t42 83q15 175 0 350
q-5 50 -44 82.5t-106 32.5q-158 0 -158 -141v-295z" />
    <glyph glyph-name="uni0441" unicode="&#x441;" horiz-adv-x="942" 
d="M92 524q0 103 12 185q23 162 142 261t317 99q197 0 316 -98l-82 -226q-93 72 -213 72q-84 0 -135 -42.5t-56 -108.5q-11 -143 0 -285q5 -66 57 -109t140 -43q106 0 213 66l78 -219q-129 -101 -312 -101q-202 0 -323 101t-142 264q-12 99 -12 184z" />
    <glyph glyph-name="uni0442" unicode="&#x442;" horiz-adv-x="921" 
d="M41 799v245h840v-245h-267v-799h-307v799h-266z" />
    <glyph glyph-name="uni0443" unicode="&#x443;" horiz-adv-x="989" 
d="M20 1044h314l127 -444l20 -190q1 -12 9 -16.5t16.5 0t9.5 16.5l23 190l102 444h307l-338 -1132q-43 -154 -169.5 -249t-301.5 -101l-73 260q106 10 175.5 59t90.5 123l30 111z" />
    <glyph glyph-name="uni0444" unicode="&#x444;" horiz-adv-x="1587" 
d="M92 526q0 107 14 181q23 146 115 239.5t258 112.5l133 -19q33 -3 33 29v467h297v-467q0 -32 33 -29l133 19q166 -19 258 -112.5t115 -239.5q14 -93 14 -181q0 -106 -14 -180q-61 -315 -373 -352l-133 18q-33 3 -33 -28v-467h-297v467q0 31 -33 28l-133 -18
q-312 37 -373 352q-14 74 -14 180zM399 526q0 -100 21 -164q22 -69 75.5 -101t149.5 -32v594q-96 0 -149.5 -32t-75.5 -101q-21 -64 -21 -164zM942 229q96 0 149 31.5t76 101.5q21 65 21 164q0 100 -21 164q-23 70 -76 101.5t-149 31.5v-594z" />
    <glyph glyph-name="uni0445" unicode="&#x445;" horiz-adv-x="1040" 
d="M41 0l252 522l-252 522h319l121 -286l23 -99q3 -12 10 -16.5t14 0t11 16.5l24 99l121 286h315l-251 -522l251 -522h-315l-121 287l-24 98q-4 12 -11 16.5t-14 0t-10 -16.5l-23 -98l-121 -287h-319z" />
    <glyph glyph-name="uni0446" unicode="&#x446;" horiz-adv-x="1208" 
d="M133 0v1044h307v-798h267v798h307v-798h143v-512h-287v266h-737z" />
    <glyph glyph-name="uni0447" unicode="&#x447;" horiz-adv-x="1120" 
d="M102 692v352h308v-284q0 -87 31.5 -124.5t109.5 -37.5q89 0 129 66v380h307v-1044h-311v379q0 18 -11.5 22.5t-31.5 -6.5l-111 -65q-31 -8 -69 -8q-75 0 -135.5 19t-110.5 60t-77.5 115t-27.5 176z" />
    <glyph glyph-name="uni0448" unicode="&#x448;" horiz-adv-x="1679" 
d="M133 0v1044h307v-798h246v798h307v-798h246v798h307v-1044h-1413z" />
    <glyph glyph-name="uni0449" unicode="&#x449;" horiz-adv-x="1740" 
d="M133 0v1044h307v-798h246v798h307v-798h246v798h307v-798h144v-512h-287v266h-1270z" />
    <glyph glyph-name="uni044A" unicode="&#x44a;" horiz-adv-x="1150" 
d="M0 799v245h543v-317h131q207 0 321.5 -93t114.5 -263q0 -178 -114 -274.5t-322 -96.5h-438v799h-236zM543 236h131q62 0 95.5 34.5t33.5 100.5q0 55 -34 88t-95 33h-131v-256z" />
    <glyph glyph-name="uni044B" unicode="&#x44b;" horiz-adv-x="1558" 
d="M133 0v1044h307v-317h131q207 0 322 -93t115 -263q0 -178 -114.5 -274.5t-322.5 -96.5h-438zM440 236h131q62 0 95.5 34.5t33.5 100.5q0 55 -34 88t-95 33h-131v-256zM1118 0v1044h307v-1044h-307z" />
    <glyph glyph-name="uni044C" unicode="&#x44c;" horiz-adv-x="1048" 
d="M133 0v1044h307v-317h131q207 0 322 -93t115 -263q0 -178 -114.5 -274.5t-322.5 -96.5h-438zM440 236h131q62 0 95.5 34.5t33.5 100.5q0 55 -34 88t-95 33h-131v-256z" />
    <glyph glyph-name="uni044D" unicode="&#x44d;" horiz-adv-x="997" 
d="M61 76l76 213q133 -68 256 -68q98 0 157 45.5t64 112.5q0 5 1 15.5t1 15.5h-344v225h344q0 5 -1 16.5t-1 16.5q-6 68 -63.5 111.5t-151.5 43.5q-144 0 -256 -71l-80 219q129 96 355 96q206 0 328.5 -98t146.5 -262q12 -82 12 -183q0 -85 -12 -184q-21 -163 -146 -264
t-335 -101q-205 0 -351 101z" />
    <glyph glyph-name="uni044E" unicode="&#x44e;" horiz-adv-x="1595" 
d="M133 0v1044h307v-399h127q4 44 8 62q23 162 142 262t315 100q197 0 317.5 -100t141.5 -262q12 -102 12 -189q0 -81 -12 -180q-24 -162 -143.5 -262.5t-315.5 -100.5t-316 101t-141 262l-6 61h-129v-399h-307zM864 659q-13 -128 2 -274q6 -68 49.5 -112t116.5 -44
q74 0 117 44t51 110q16 133 2 276q-6 68 -50.5 113t-119.5 45q-73 0 -117.5 -45t-50.5 -113z" />
    <glyph glyph-name="uni044F" unicode="&#x44f;" horiz-adv-x="1130" 
d="M92 684q0 172 112.5 266t319.5 94h473v-1044h-297v358h-112l-176 -358h-316l140 266l65 78q9 10 6 20.5t-16 14.5q-92 32 -145.5 114t-53.5 191zM389 692q0 -55 34.5 -86t96.5 -31h182v232h-182q-62 0 -96.5 -31t-34.5 -84z" />
    <glyph glyph-name="uni0450" unicode="&#x450;" horiz-adv-x="1052" 
d="M92 510q0 80 12 182q23 166 137.5 269.5t297.5 103.5q222 0 332 -130.5t110 -379.5l-43 -106h-561q0 -27 2 -39q16 -181 229 -181q105 0 234 60l78 -219q-136 -90 -312 -90q-209 0 -344 99t-160 255q-12 99 -12 176zM160 1536h307l287 -352h-308zM381 655h321
q-16 170 -159 170t-162 -170z" />
    <glyph glyph-name="uni0451" unicode="&#x451;" horiz-adv-x="1052" 
d="M92 510q0 80 12 182q23 166 137.5 269.5t297.5 103.5q222 0 332 -130.5t110 -379.5l-43 -106h-561q0 -27 2 -39q16 -181 229 -181q105 0 234 60l78 -219q-136 -90 -312 -90q-209 0 -344 99t-160 255q-12 99 -12 176zM193 1184v250h274v-250h-274zM381 655h321
q-16 170 -159 170t-162 -170zM610 1184v250h275v-250h-275z" />
    <glyph glyph-name="uni0452" unicode="&#x452;" horiz-adv-x="1202" 
d="M25 1157v213h157v168h299v-168h281v-213h-281v-149q115 61 248 61q70 0 132 -20t111 -58.5t78 -100.5t29 -140v-750q0 -110 -39.5 -197.5t-104.5 -140.5t-141 -82t-157 -35l-70 269q101 23 153 66.5t52 119.5v625q0 91 -29.5 129.5t-111.5 38.5t-116 -39.5t-34 -128.5
v-625h-299v1157h-157z" />
    <glyph glyph-name="uni0453" unicode="&#x453;" horiz-adv-x="884" 
d="M133 0v1044h690v-245h-383v-799h-307zM227 1184l287 352h307l-286 -352h-308z" />
    <glyph glyph-name="uni0454" unicode="&#x454;" horiz-adv-x="997" 
d="M92 524q0 101 12 183q24 164 147 262t329 98q225 0 354 -96l-80 -219q-112 71 -256 71q-94 0 -151.5 -43.5t-63.5 -111.5q0 -5 -1 -16.5t-1 -16.5h344v-225h-344q0 -5 1 -15.5t1 -15.5q5 -67 64 -112.5t157 -45.5q123 0 256 68l76 -213q-146 -101 -350 -101
q-210 0 -335.5 101t-146.5 264q-12 99 -12 184z" />
    <glyph glyph-name="uni0455" unicode="&#x455;" horiz-adv-x="974" 
d="M82 94l86 221q94 -60 157 -76t156 -16q73 0 108.5 26t35.5 68q0 77 -95 82l-110 7q-157 8 -247.5 83.5t-90.5 227.5q0 168 111.5 260t302.5 92q119 0 203 -21t165 -73l-86 -221q-63 41 -126.5 56t-153.5 15q-73 0 -111.5 -24.5t-38.5 -63.5q0 -67 94 -73l113 -7
q158 -8 248 -86.5t90 -230.5q0 -176 -111 -269.5t-303 -93.5q-118 0 -206 27t-191 90z" />
    <glyph glyph-name="uni0456" unicode="&#x456;" horiz-adv-x="665" 
d="M41 791v253h491v-1044h-307v791h-184zM225 1184v250h307v-250h-307z" />
    <glyph glyph-name="uni0457" unicode="&#x457;" horiz-adv-x="665" 
d="M-8 1184v250h274v-250h-274zM41 791v253h491v-1044h-307v791h-184zM410 1184v250h274v-250h-274z" />
    <glyph glyph-name="uni0458" unicode="&#x458;" horiz-adv-x="665" 
d="M20 -186q102 25 153.5 71.5t51.5 130.5v777h-184v251h491v-1015q0 -96 -26.5 -175.5t-69.5 -133.5t-101 -93t-119.5 -58.5t-125.5 -23.5zM225 1184v250h305v-250h-305z" />
    <glyph glyph-name="uni0459" unicode="&#x459;" horiz-adv-x="1658" 
d="M41 240q151 23 178 141q43 186 43 663h789v-317h131q207 0 321.5 -93t114.5 -263q0 -178 -114 -274.5t-322 -96.5h-439v799h-186q-6 -176 -41 -443q-45 -339 -403 -381zM1051 236h131q62 0 95.5 34.5t33.5 100.5q0 55 -34 88t-95 33h-131v-256z" />
    <glyph glyph-name="uni045A" unicode="&#x45a;" horiz-adv-x="1634" 
d="M133 0v1044h307v-354h279v354h307v-358h131q208 0 322 -87.5t114 -248.5q0 -168 -114 -259t-322 -91h-438v444h-279v-444h-307zM1026 236h131q62 0 95.5 29.5t33.5 84.5q0 45 -34.5 73t-94.5 28h-131v-215z" />
    <glyph glyph-name="uni045B" unicode="&#x45b;" horiz-adv-x="1177" 
d="M0 1157v213h158v168h299v-168h280v-213h-280v-149q115 61 248 61q70 0 132 -20t111 -58.5t78 -100.5t29 -140v-750h-307v625q0 91 -30 129.5t-112 38.5t-115.5 -39.5t-33.5 -128.5v-625h-299v1157h-158z" />
    <glyph glyph-name="uni045C" unicode="&#x45c;" horiz-adv-x="1071" 
d="M133 0v1044h299v-399h76l192 399h320l-252 -514l262 -530h-332l-190 399h-76v-399h-299zM322 1184l286 352h307l-286 -352h-307z" />
    <glyph glyph-name="uni045D" unicode="&#x45d;" horiz-adv-x="1167" 
d="M133 0v1044h297v-395l-31 -180q-3 -15 10.5 -21t22.5 9l346 587h256v-1044h-297v373l29 180q3 16 -10 22t-23 -10l-344 -565h-256zM207 1536h307l287 -352h-307z" />
    <glyph glyph-name="uni045E" unicode="&#x45e;" horiz-adv-x="989" 
d="M20 1044h314l127 -444l20 -190q1 -12 9 -16.5t16.5 0t9.5 16.5l23 190l102 444h307l-338 -1132q-43 -154 -169.5 -249t-301.5 -101l-73 260q106 10 175.5 59t90.5 123l30 111zM125 1473l207 51q41 -117 164 -117q122 0 163 117l207 -51q-29 -84 -71.5 -139t-117.5 -88.5
t-181 -33.5t-181 33.5t-118 88.5t-72 139z" />
    <glyph glyph-name="uni045F" unicode="&#x45f;" horiz-adv-x="1146" 
d="M133 0v1044h307v-798h267v798h307v-1044h-297v-266h-287v266h-297z" />
    <glyph glyph-name="uni0460" unicode="&#x460;" horiz-adv-x="1656" 
d="M82 696q0 390 108 738h316q-100 -383 -100 -697q0 -207 15.5 -312.5t44 -138t83.5 -32.5q37 0 62 12.5t39.5 32t22 54.5t9.5 67t2 82v276h-160v266h600v-266h-151v-276q0 -50 2 -82t9.5 -67t21.5 -54.5t39 -32t61 -12.5q55 0 83.5 32.5t44 138t15.5 312.5q0 322 -98 697
h315q109 -351 109 -738q0 -174 -24 -303.5t-63.5 -208.5t-99.5 -126.5t-124 -65t-146 -17.5q-68 0 -146 28t-141 89q-59 -61 -132.5 -89t-139.5 -28q-85 0 -151.5 17.5t-129.5 65t-104.5 126.5t-66.5 208.5t-25 303.5z" />
    <glyph glyph-name="uni0461" unicode="&#x461;" horiz-adv-x="1562" 
d="M61 532q0 114 32.5 268t80.5 224h293q-50 -74 -82.5 -217.5t-32.5 -253.5q0 -102 13.5 -168.5t39.5 -96t51.5 -39t61.5 -9.5q23 0 41.5 9t30.5 21.5t20 35.5t12 40.5t6 48.5t2.5 48t0.5 49v4v528h301v-528v-4v-49t2.5 -48t6 -49t12 -40.5t20 -35.5t30 -21t41.5 -9
q36 0 61.5 9.5t51.5 39t39.5 96t13.5 168.5q0 110 -32.5 254t-81.5 217h293q48 -70 80 -223.5t32 -268.5q0 -139 -33 -244t-80.5 -163t-113.5 -93.5t-119.5 -46t-110.5 -10.5q-161 0 -262 91q-104 -91 -264 -91q-57 0 -110.5 10.5t-119.5 46t-113.5 93.5t-80.5 163t-33 244z
" />
    <glyph glyph-name="uni0462" unicode="&#x462;" horiz-adv-x="1251" 
d="M0 1069v234h164v131h328v-131h327v-234h-327v-168h217q222 0 351.5 -120t129.5 -322q0 -213 -129 -336t-352 -123h-545v1069h-164zM492 266h217q72 0 112.5 49t40.5 138q0 81 -41 131.5t-112 50.5h-217v-369z" />
    <glyph glyph-name="uni0463" unicode="&#x463;" horiz-adv-x="1167" 
d="M61 811v233h191v390h307v-390h301v-233h-301v-84h131q207 0 321.5 -93t114.5 -263q0 -178 -114 -274.5t-322 -96.5h-438v811h-191zM559 236h131q62 0 95.5 34.5t33.5 100.5q0 55 -34 88t-95 33h-131v-256z" />
    <glyph glyph-name="uni0464" unicode="&#x464;" horiz-adv-x="1675" 
d="M143 0v1434h328v-584h225q3 91 9 158q15 200 161.5 325t364.5 125q114 0 200 -21.5t177 -68.5l-84 -268q-69 40 -123.5 55.5t-134.5 15.5q-103 0 -165.5 -48.5t-68.5 -131.5q-1 -28 -4 -75.5t-4 -65.5h410v-266h-410q1 -17 4 -64.5t4 -77.5q7 -86 64.5 -133t154.5 -45
q56 0 106 11t80.5 24t80.5 39l96 -256q-90 -56 -172 -81.5t-191 -25.5q-227 0 -379 125.5t-167 325.5q-6 67 -9 158h-225v-584h-328z" />
    <glyph glyph-name="uni0465" unicode="&#x465;" horiz-adv-x="1437" 
d="M133 0v1044h307v-409h97q4 48 8 72q24 164 146.5 262t328.5 98q225 0 354 -96l-80 -219q-112 71 -256 71q-94 0 -151.5 -43.5t-63.5 -111.5q0 -5 -1 -16.5t-1 -16.5h344v-225h-344q0 -5 1 -15.5t1 -15.5q5 -67 64 -112.5t157 -45.5q123 0 256 68l76 -213
q-146 -101 -350 -101q-210 0 -335 101t-146 264q-1 13 -4 36t-4 34h-97v-410h-307z" />
    <glyph glyph-name="uni0466" unicode="&#x466;" horiz-adv-x="1433" 
d="M20 0l476 1434h442l475 -1434h-334l-147 467l-72 -100v-367h-293v367l-67 96l-146 -463h-334zM592 760l123 -162l125 166l-80 254l-23 135q-3 17 -20.5 17t-20.5 -17l-22 -135z" />
    <glyph glyph-name="uni0467" unicode="&#x467;" horiz-adv-x="1122" 
d="M-41 0l408 1044h389l407 -1044h-286l-111 285l-66 -45v-240h-284v240l-60 41l-108 -281h-289zM449 520l83 -61q10 -7 27 -7t27 7l86 63l-64 164l-28 109q-3 15 -18.5 15t-18.5 -15l-29 -109z" />
    <glyph glyph-name="uni0468" unicode="&#x468;" horiz-adv-x="2029" 
d="M143 0v1434h328v-574h430l191 574h442l475 -1434h-334l-147 467l-72 -100v-367h-293v367l-67 96l-146 -463h-334l191 573h-336v-573h-328zM1188 760l123 -162l125 166l-80 254l-23 135q-3 17 -20.5 17t-20.5 -17l-22 -135z" />
    <glyph glyph-name="uni0469" unicode="&#x469;" horiz-adv-x="1720" 
d="M133 0v1044h307v-409h365l160 409h389l407 -1044h-286l-111 285l-66 -45v-240h-284v240l-60 41l-108 -281h-289l160 410h-277v-410h-307zM1047 520l83 -61q10 -7 27 -7t27 7l86 63l-64 164l-28 109q-3 15 -18.5 15t-18.5 -15l-29 -109z" />
    <glyph glyph-name="uni046A" unicode="&#x46a;" horiz-adv-x="1605" 
d="M20 0l82 360q39 175 95.5 277t154.5 149l74 17q18 3 23.5 12.5t-5.5 24.5l-311 393v201h1340v-201l-312 -393q-11 -15 -5 -24.5t24 -12.5l73 -17q97 -47 153 -149.5t97 -280.5l82 -356h-328l-81 362q-25 111 -72.5 167.5t-136.5 56.5v-586h-328v586q-89 0 -136.5 -56.5
t-72.5 -167.5l-82 -362h-328zM542.5 1154.5q-3.5 -12.5 8.5 -24.5l72 -65l135 -215h90l135 215l72 65q12 12 8 24.5t-21 12.5h-479q-17 0 -20.5 -12.5z" />
    <glyph glyph-name="uni046B" unicode="&#x46b;" horiz-adv-x="1236" 
d="M0 0q9 31 23 85t23.5 91.5t25 88.5t29.5 87t34 75t41 64t48.5 43t58.5 23q10 1 14 12t-2 21l-217 352v102h1081v-102l-217 -352q-6 -10 -2 -21t14 -12q31 -5 58.5 -23t48.5 -43t41 -64t34 -75t29.5 -87t25 -88.5t23.5 -91.5t23 -85h-283q-46 207 -61 258
q-47 147 -121 168q-14 4 -29 4v-430h-249v430q-42 0 -73.5 -25.5t-56 -92t-35.5 -109t-34 -149.5l-12 -54h-283zM391.5 811.5q-2.5 -7.5 3.5 -12.5l68 -49l57 -95h197l55 95l68 49q6 5 3.5 12.5t-9.5 7.5h-433q-7 0 -9.5 -7.5z" />
    <glyph glyph-name="uni046C" unicode="&#x46c;" horiz-adv-x="2230" 
d="M143 0v1434h328v-574h582l-295 373v201h1339v-201l-311 -393q-11 -15 -5.5 -24.5t23.5 -12.5l74 -17q97 -47 153 -149.5t97 -280.5l82 -356h-328l-82 362q-25 111 -72.5 167.5t-136.5 56.5v-586h-327v586q-89 0 -136.5 -56.5t-72.5 -167.5l-82 -362h-328l82 360
q28 129 64 213h-320v-573h-328zM1167.5 1154.5q-3.5 -12.5 8.5 -24.5l71 -65l135 -215h91l135 215l71 65q12 12 8.5 24.5t-20.5 12.5h-479q-17 0 -20.5 -12.5z" />
    <glyph glyph-name="uni046D" unicode="&#x46d;" horiz-adv-x="1759" 
d="M133 0v1044h307v-409h348l-188 307v102h1081v-102l-217 -352q-6 -11 -2 -21t15 -12q35 -5 65.5 -26t54.5 -58.5t42.5 -75t36.5 -95.5t29.5 -99t28 -105.5t25.5 -97.5h-282q-46 207 -61 258q-47 147 -121 168q-14 4 -29 4v-430h-250v430q-42 0 -73.5 -25.5t-56 -92
t-35.5 -109t-34 -149.5l-12 -54h-283q9 32 33.5 127.5t45.5 162.5t46 120h-207v-410h-307zM914.5 811.5q-2.5 -7.5 3.5 -12.5l67 -49l57 -95h197l55 95l68 49q6 5 3.5 12.5t-9.5 7.5h-432q-7 0 -9.5 -7.5z" />
    <glyph glyph-name="uni046E" unicode="&#x46e;" horiz-adv-x="1085" 
d="M-41 -109q0 369 432 369h90q105 0 162 43t57 121t-57 126t-176 48h-279v266h299q172 0 172 154q0 75 -54 120.5t-150 45.5q-179 0 -320 -76l-88 242q98 61 199.5 84.5t226.5 23.5q88 0 171.5 -23.5t156.5 -70t117.5 -128t44.5 -187.5q0 -218 -154 -318q195 -97 195 -328
q0 -85 -31.5 -156.5t-83 -120t-120 -82t-141 -49t-147.5 -15.5h-90q-80 0 -116.5 -21t-36.5 -68q0 -88 120 -88q169 0 465 97l35 -275q-151 -46 -275.5 -70t-267.5 -24q-163 0 -259.5 96.5t-96.5 263.5zM166 1931h246l57 -114l20 -70q13 -28 25 0l21 70l61 114h246
l-185 -352h-307z" />
    <glyph glyph-name="uni046F" unicode="&#x46f;" horiz-adv-x="964" 
d="M20 -18q0 115 71.5 187.5t213.5 72.5h115q75 0 116.5 25.5t41.5 74.5q0 31 -43 58.5t-129 27.5h-185v197h185q157 0 157 94q0 43 -44.5 70.5t-125.5 27.5q-161 0 -276 -61l-80 221q180 92 377 92q85 0 163.5 -18.5t144 -54.5t105 -96.5t39.5 -137.5q0 -96 -34.5 -150
t-100.5 -86q152 -62 152 -233q0 -94 -64.5 -166t-164.5 -107.5t-216 -35.5h-86q-56 0 -68 -8q-8 -7 -8 -19q0 -49 177 -49q198 0 331 65l31 -262q-172 -71 -344 -71q-215 0 -333 90.5t-118 251.5zM61 1536h246l58 -115l20 -69q13 -28 25 0l20 69l62 115h245l-184 -352h-307z
" />
    <glyph glyph-name="uni0470" unicode="&#x470;" horiz-adv-x="1581" 
d="M0 1434h328l82 -527q18 -110 67.5 -167.5t140.5 -57.5v752h328v-752q96 0 160.5 60t64.5 165v527h328v-463q0 -266 -147.5 -419t-405.5 -153v-399h-328v399q-80 0 -146.5 13.5t-131.5 49t-114 92.5t-87 148t-57 211z" />
    <glyph glyph-name="uni0471" unicode="&#x471;" horiz-adv-x="1458" 
d="M20 1044h308l82 -546q12 -118 58 -183t120 -65v1286h307v-1286q81 0 138 66.5t57 181.5v546h286v-483q0 -265 -129.5 -418t-351.5 -153v-502h-307v502q-73 0 -134 13.5t-119.5 48.5t-102.5 92t-78.5 148t-51.5 212z" />
    <glyph glyph-name="uni0472" unicode="&#x472;" horiz-adv-x="1269" 
d="M92 717q0 180 22 301.5t54 182t86 114.5q143 143 381 143t381 -143q54 -54 86 -114.5t54 -182t22 -301.5t-22 -301.5t-54 -182t-86 -114.5q-144 -144 -381 -144t-381 144q-54 54 -86 114.5t-54 182t-22 301.5zM424 614q4 -106 8 -159q6 -93 61 -147t142 -54t142 54
t61 147l6 108q-36 -4 -58 -4q-66 0 -117.5 17.5t-92.5 35t-80 17.5q-34 0 -72 -15zM426 872q45 5 57 5q66 0 118 -17.5t93 -35t80 -17.5q37 0 72 14q-4 108 -8 160q-6 93 -61 147t-142 54t-142 -54t-61 -147z" />
    <glyph glyph-name="uni0473" unicode="&#x473;" horiz-adv-x="1124" 
d="M92 518q0 107 12 189q23 162 142 262t315 100q197 0 317.5 -100t141.5 -262q12 -102 12 -189q0 -81 -12 -180q-24 -162 -143.5 -262.5t-315.5 -100.5t-316 101t-141 262q-12 99 -12 180zM391 651q36 19 74 19q43 0 76.5 -17.5t60 -35t51.5 -17.5q43 0 80 47q0 3 -1 11
t-1 12q-6 68 -50.5 112.5t-119.5 44.5q-73 0 -117.5 -44.5t-50.5 -112.5q0 -3 -1 -9.5t-1 -9.5zM393 395q0 -3 1 -9.5t1 -10.5q6 -68 49.5 -112t116.5 -44q74 0 117 44t51 110q0 3 1 8t1 8q-32 -16 -69 -16q-43 0 -76.5 17.5t-60.5 34.5t-52 17q-43 0 -80 -47z" />
    <glyph glyph-name="uni0474" unicode="&#x474;" horiz-adv-x="1245" 
d="M41 1434h324l176 -969l12 -184q1 -12 9 -16.5t16.5 0t9.5 16.5l14 184l119 610q37 195 134 283t259 88q52 0 131 -14v-269q-24 2 -47 2q-84 0 -126.5 -42.5t-63.5 -137.5l-220 -985h-436z" />
    <glyph glyph-name="uni0475" unicode="&#x475;" horiz-adv-x="1103" 
d="M41 1044h301l129 -651l16 -160q3 -18 19 -18t16 18l17 160l63 320q33 164 125.5 253t235.5 89q56 0 110 -11v-253q-14 2 -43 2q-68 0 -110.5 -46t-65.5 -149l-131 -598h-436z" />
    <glyph glyph-name="uni0476" unicode="&#x476;" horiz-adv-x="1245" 
d="M41 1434h324l176 -969l12 -184q1 -12 9 -16.5t16.5 0t9.5 16.5l14 184l119 610q37 195 134 283t259 88q52 0 131 -14v-269q-24 2 -47 2q-84 0 -126.5 -42.5t-63.5 -137.5l-220 -985h-436zM41 1931h307l287 -352h-307zM502 1931h307l287 -352h-308z" />
    <glyph glyph-name="uni0477" unicode="&#x477;" horiz-adv-x="1103" 
d="M-92 1536h307l287 -352h-307zM41 1044h301l129 -651l16 -160q3 -18 19 -18t16 18l17 160l63 320q33 164 125.5 253t235.5 89q56 0 110 -11v-253q-14 2 -43 2q-68 0 -110.5 -46t-65.5 -149l-131 -598h-436zM360 1536h308l286 -352h-307z" />
    <glyph glyph-name="uni0478" unicode="&#x478;" horiz-adv-x="2258" 
d="M92 717q0 180 22 301.5t54 182t86 114.5q143 143 381 143t381 -143q54 -54 86 -114.5t54 -182t22 -301.5t-22 -301.5t-54 -182t-86 -114.5q-144 -144 -381 -144t-381 144q-54 54 -86 114.5t-54 182t-22 301.5zM422 717q0 -122 10 -252q6 -93 61 -147t142 -54t142 54
t61 147q10 130 10 252t-10 252q-6 93 -61 146.5t-142 53.5t-142 -53.5t-61 -146.5q-10 -130 -10 -252zM1290 1044h314l127 -444l20 -190q1 -12 9 -16.5t16.5 0t9.5 16.5l22 190l103 444h307l-338 -1132q-43 -154 -169.5 -249t-301.5 -101l-74 260q106 10 176.5 59t90.5 123
l30 111z" />
    <glyph glyph-name="uni0479" unicode="&#x479;" horiz-adv-x="2070" 
d="M92 518q0 107 12 189q23 162 142 262t315 100q197 0 317.5 -100t141.5 -262q12 -102 12 -189q0 -81 -12 -180q-24 -162 -143.5 -262.5t-315.5 -100.5t-316 101t-141 262q-12 99 -12 180zM393 659q-13 -128 2 -274q6 -68 49.5 -112t116.5 -44q74 0 117 44t51 110
q16 133 2 276q-6 68 -50.5 113t-119.5 45q-73 0 -117.5 -45t-50.5 -113zM1022 1044h313l127 -444l21 -190q1 -12 9 -16.5t16.5 0t9.5 16.5l22 190l29 113q33 164 125 253t235 89q57 0 111 -11v-253q-14 2 -43 2q-66 0 -110 -46.5t-75 -148.5l-200 -686q-45 -154 -170.5 -249
t-300.5 -101l-74 260q106 10 175.5 59t90.5 123l31 111z" />
    <glyph glyph-name="uni0480" unicode="&#x480;" horiz-adv-x="1032" 
d="M92 717q0 137 10 270q15 209 163.5 340t369.5 131q100 0 177 -27.5t157 -87.5l-88 -243q-56 40 -101 55.5t-110 15.5q-105 0 -168.5 -53.5t-71.5 -146.5q-10 -160 -10 -254q0 -91 10 -254q9 -96 67.5 -148t157.5 -51q154 0 316 43v-594h-287v262h-29q-230 0 -384 131
t-169 340q-10 133 -10 271z" />
    <glyph glyph-name="uni0481" unicode="&#x481;" horiz-adv-x="942" 
d="M92 524q0 103 12 185q23 162 142 261t317 99q197 0 316 -98l-82 -226q-93 72 -213 72q-84 0 -135 -42.5t-56 -108.5q-11 -143 0 -285q5 -66 57 -109t140 -43q148 0 291 37v-553h-287v262h-25q-202 0 -323 101t-142 264q-12 99 -12 184z" />
    <glyph glyph-name="uni0482" unicode="&#x482;" 
 />
    <glyph glyph-name="uni0483" unicode="&#x483;" horiz-adv-x="0" 
 />
    <glyph glyph-name="uni0484" unicode="&#x484;" horiz-adv-x="0" 
 />
    <glyph glyph-name="uni0485" unicode="&#x485;" horiz-adv-x="0" 
 />
    <glyph glyph-name="uni0486" unicode="&#x486;" horiz-adv-x="0" 
 />
    <glyph glyph-name="uni0487" unicode="&#x487;" horiz-adv-x="0" 
 />
    <glyph glyph-name="uni0488" unicode="&#x488;" 
 />
    <glyph glyph-name="uni0489" unicode="&#x489;" 
 />
    <glyph glyph-name="uni048A" unicode="&#x48a;" horiz-adv-x="1351" 
d="M143 0v1434h318v-625l-31 -180q-3 -15 11.5 -21.5t21.5 8.5l418 818h297v-1147h163v-62l-225 -512h-307l127 287h-76v625l29 180q3 15 -11.5 21t-21.5 -9l-416 -817h-297zM291 1862l207 51q41 -117 164 -117t163 117l207 -51q-29 -84 -71.5 -138.5t-117.5 -88t-181 -33.5
q-156 0 -241.5 66t-129.5 194z" />
    <glyph glyph-name="uni048B" unicode="&#x48b;" horiz-adv-x="1177" 
d="M133 0v1044h297v-395l-31 -180q-3 -15 10.5 -21t22.5 9l346 587h256v-798h144v-62l-189 -450h-287l113 266h-78v373l29 180q3 16 -10 22t-23 -10l-344 -565h-256zM215 1473l207 51q41 -117 164 -117q124 0 164 117l206 -51q-29 -84 -71.5 -139t-117.5 -88.5t-181 -33.5
t-181 33.5t-118 88.5t-72 139z" />
    <glyph glyph-name="uni048C" unicode="&#x48c;" horiz-adv-x="1251" 
d="M0 1069v234h164v131h328v-131h327v-234h-327v-168h217q222 0 351.5 -120t129.5 -322q0 -213 -129 -336t-352 -123h-545v1069h-164zM492 266h217q72 0 112.5 49t40.5 138q0 81 -41 131.5t-112 50.5h-217v-369z" />
    <glyph glyph-name="uni048D" unicode="&#x48d;" horiz-adv-x="1110" 
d="M61 811v233h134v492h307v-492h358v-233h-358v-84h131q207 0 321.5 -93t114.5 -263q0 -178 -114 -274.5t-322 -96.5h-438v811h-134zM502 236h131q62 0 95.5 34.5t33.5 100.5q0 55 -34 88t-95 33h-131v-256z" />
    <glyph glyph-name="uni048E" unicode="&#x48e;" horiz-adv-x="1230" 
d="M143 2v1434h566q214 0 337 -122.5t123 -336.5q0 -123 -47.5 -218t-136.5 -153l94 -164l-202 -116l-121 211q-16 -2 -47 -2h-240v-533h-326zM469 780h145l-86 148l203 116l49 -83l4 -103q1 -21 14 -25t25 11q49 61 49 139q0 89 -43 137.5t-120 48.5h-240v-389z" />
    <glyph glyph-name="uni048F" unicode="&#x48f;" horiz-adv-x="1157" 
d="M133 -410v1454h307v-59q38 37 99 60.5t125 23.5q183 0 278 -85.5t113 -250.5q10 -100 10 -207q0 -71 -10 -211q-15 -181 -125 -266l90 -158l-203 -116l-119 205h-14q-39 0 -70 8l-131 75q-22 11 -32.5 6.5t-10.5 -22.5v-457h-307zM440 377q0 -53 34 -89t95 -48l-90 149
l193 105l30 -54l13 -96q2 -15 10.5 -21t17 -1t11.5 20q32 156 -6 356q-10 50 -47 82.5t-103 32.5q-158 0 -158 -141v-295z" />
    <glyph glyph-name="uni0490" unicode="&#x490;" horiz-adv-x="970" 
d="M143 0v1434h480v286h307v-573h-459v-1147h-328z" />
    <glyph glyph-name="uni0491" unicode="&#x491;" horiz-adv-x="884" 
d="M133 0v1044h404v289h286v-532h-383v-801h-307z" />
    <glyph glyph-name="uni0492" unicode="&#x492;" horiz-adv-x="991" 
d="M0 604v234h164v596h786v-287h-458v-309h204v-234h-204v-604h-328v604h-164z" />
    <glyph glyph-name="uni0493" unicode="&#x493;" horiz-adv-x="954" 
d="M49 403v234h154v407h690v-245h-383v-162h235v-234h-235v-403h-307v403h-154z" />
    <glyph glyph-name="uni0494" unicode="&#x494;" horiz-adv-x="1251" 
d="M143 0v1434h961v-287h-633v-346q0 -38 41 -21l119 54q47 8 106 8q93 0 170 -32t136.5 -97t92.5 -172.5t33 -249.5q0 -173 -47.5 -305.5t-146 -211.5t-236.5 -79q-88 0 -170 20l58 256q30 -10 67 -10q49 0 82.5 47.5t47.5 119.5t14 163q0 136 -52.5 205t-144.5 69
q-87 0 -170 -33v-532h-328z" />
    <glyph glyph-name="uni0495" unicode="&#x495;" horiz-adv-x="1159" 
d="M133 0v1044h752v-245h-445v-224q0 -37 41 -20l119 53q47 8 107 8q175 0 283 -111t108 -337q0 -136 -43 -241.5t-132.5 -168.5t-213.5 -63q-88 0 -170 20l57 256q30 -10 68 -10q52 0 77 58.5t25 148.5q0 85 -41.5 128.5t-114.5 43.5q-88 0 -170 -33v-307h-307z" />
    <glyph glyph-name="uni0496" unicode="&#x496;" horiz-adv-x="1835" 
d="M41 1434h346l234 -584h116v584h320v-584h117l233 584h346l-303 -697l178 -450h187v-574h-308v287h-106l-227 584h-117v-584h-320v584h-116l-228 -584h-342l293 737z" />
    <glyph glyph-name="uni0497" unicode="&#x497;" horiz-adv-x="1570" 
d="M41 0l242 522l-238 522h320l172 -399h75v399h299v-399h76l172 399h320l-234 -516l131 -282h174v-512h-286v266h-107l-170 399h-76v-399h-299v399h-75l-170 -399h-326z" />
    <glyph glyph-name="uni0498" unicode="&#x498;" horiz-adv-x="1103" 
d="M41 131l96 260q89 -75 166.5 -103t196.5 -28q105 0 162 43t57 121t-57.5 126t-176.5 48h-217v266h238q172 0 172 154q0 75 -50.5 120.5t-140.5 45.5q-178 0 -319 -76l-88 242q98 61 199.5 84.5t226.5 23.5q68 0 133 -14t127.5 -45.5t110 -77.5t76 -116.5t28.5 -155.5
q0 -218 -154 -318q195 -97 195 -328q0 -169 -114 -281t-300 -136l-18 -74q95 -15 151 -65.5t56 -122.5q0 -127 -135 -194t-355 -62l45 167q112 0 177 21.5t65 56.5q0 32 -46 43t-169 11l53 215q-116 9 -210 43.5t-181 105.5z" />
    <glyph glyph-name="uni0499" unicode="&#x499;" horiz-adv-x="948" 
d="M20 94l89 240q78 -57 140 -74.5t175 -17.5q75 0 116.5 25.5t41.5 74.5q0 31 -43 58.5t-129 27.5h-123v197h123q157 0 157 94q0 43 -44.5 70.5t-125.5 27.5q-161 0 -276 -61l-80 221q180 92 377 92q85 0 163.5 -18.5t144 -54.5t105 -96.5t39.5 -137.5q0 -96 -34.5 -150
t-100.5 -86q152 -62 152 -233q0 -120 -102 -201t-253 -102l-20 -78q95 -15 151 -65.5t56 -122.5q0 -127 -135 -194t-355 -62l45 167q112 0 177 21.5t65 56.5q0 32 -46 43t-169 11l55 219q-198 12 -336 108z" />
    <glyph glyph-name="uni049A" unicode="&#x49a;" horiz-adv-x="1261" 
d="M143 0v1434h320v-584h117l233 584h346l-307 -697l182 -450h207v-574h-307v287h-127l-227 584h-117v-584h-320z" />
    <glyph glyph-name="uni049B" unicode="&#x49b;" horiz-adv-x="1112" 
d="M133 0v1044h299v-399h76l192 399h320l-252 -514l141 -284h183v-512h-287v266h-107l-190 399h-76v-399h-299z" />
    <glyph glyph-name="uni049C" unicode="&#x49c;" horiz-adv-x="1468" 
d="M143 0v1434h320v-584h90v317h254v-215l-27 -94q-5 -19 9.5 -24t23.5 14l274 586h340l-288 -545l-95 -131q-16 -21 0 -43l89 -127l284 -588h-336l-268 586q-9 18 -23.5 13t-9.5 -24l27 -94v-235h-254v338h-90v-584h-320z" />
    <glyph glyph-name="uni049D" unicode="&#x49d;" horiz-adv-x="1314" 
d="M133 0v1044h299v-399h90v256h221v-153l-26 -95q-5 -19 9.5 -24t23.5 14l188 401h336l-203 -360l-94 -131q-16 -21 0 -43l88 -127l190 -383h-331l-174 381q-9 19 -23.5 14t-9.5 -24l26 -95v-133h-221v236h-90v-379h-299z" />
    <glyph glyph-name="uni049E" unicode="&#x49e;" horiz-adv-x="1241" 
d="M20 1067v233h164v134h320v-134h143v-233h-143v-217h117l233 584h346l-307 -697l297 -737h-342l-227 584h-117v-584h-320v1067h-164z" />
    <glyph glyph-name="uni049F" unicode="&#x49f;" horiz-adv-x="1071" 
d="M0 1157v213h133v166h299v-166h305v-213h-305v-434h76l176 324h336l-256 -451l266 -596h-332l-190 457h-76v-457h-299v1157h-133z" />
    <glyph glyph-name="uni04A0" unicode="&#x4a0;" horiz-adv-x="1507" 
d="M41 1188v246h729v-584h117l233 584h346l-307 -697l297 -737h-342l-227 584h-117v-584h-319v1188h-410z" />
    <glyph glyph-name="uni04A1" unicode="&#x4a1;" horiz-adv-x="1245" 
d="M41 799v245h565v-399h76l192 399h320l-252 -514l262 -530h-332l-190 399h-76v-399h-299v799h-266z" />
    <glyph glyph-name="uni04A2" unicode="&#x4a2;" horiz-adv-x="1382" 
d="M143 0v1434h328v-574h369v574h327v-1147h144v-574h-307v287h-164v573h-369v-573h-328z" />
    <glyph glyph-name="uni04A3" unicode="&#x4a3;" horiz-adv-x="1220" 
d="M133 0v1044h307v-399h279v399h307v-798h143v-512h-286v266h-164v399h-279v-399h-307z" />
    <glyph glyph-name="uni04A4" unicode="&#x4a4;" horiz-adv-x="1626" 
d="M143 0v1434h328v-574h369v574h745v-287h-418v-1147h-327v573h-369v-573h-328z" />
    <glyph glyph-name="uni04A5" unicode="&#x4a5;" horiz-adv-x="1435" 
d="M133 0v1044h307v-399h279v399h655v-245h-348v-799h-307v399h-279v-399h-307z" />
    <glyph glyph-name="uni04A6" unicode="&#x4a6;" horiz-adv-x="1896" 
d="M143 0v1434h1014v-633q0 -38 41 -21l119 54q47 8 106 8q93 0 170 -32t136.5 -97t92.5 -172.5t33 -249.5q0 -174 -47.5 -306.5t-146 -211t-236.5 -78.5q-88 0 -170 20l58 256q30 -10 67 -10q49 0 82.5 47.5t47.5 119.5t14 163q0 136 -52.5 205t-144.5 69q-87 0 -170 -33
v-532h-328v1147h-358v-1147h-328z" />
    <glyph glyph-name="uni04A7" unicode="&#x4a7;" horiz-adv-x="1712" 
d="M133 0v1044h881v-469q0 -37 41 -20l119 53q47 8 106 8q175 0 283 -111t108 -337q0 -136 -43 -241.5t-132.5 -168.5t-213.5 -63q-88 0 -170 20l57 256q30 -10 68 -10q52 0 77 58.5t25 148.5q0 85 -41 128.5t-114 43.5q-88 0 -170 -33v-307h-307v799h-267v-799h-307z" />
    <glyph glyph-name="uni04A8" unicode="&#x4a8;" horiz-adv-x="1515" 
d="M92 717q0 137 10 270q15 209 169 340t384 131v-287q-90 0 -154 -55t-71 -145q-10 -160 -10 -254q0 -91 10 -254q11 -109 75.5 -167t182.5 -58q21 0 57 4q-80 104 -123.5 236.5t-43.5 277.5q0 221 107.5 347t313.5 126q203 0 308.5 -126t105.5 -347q0 -127 -53.5 -261
t-149.5 -247q52 -10 101 -10q36 0 88 10v-250q-65 -18 -127 -18q-165 0 -305 73q-156 -78 -324 -78q-230 0 -378 131.5t-163 339.5q-10 133 -10 271zM889 750q0 -221 106 -359q107 142 107 359q0 73 -7.5 118.5t-32.5 76t-69 30.5q-104 0 -104 -225z" />
    <glyph glyph-name="uni04A9" unicode="&#x4a9;" horiz-adv-x="1347" 
d="M92 510q0 115 12 197q22 160 143 260t314 100v-250q-73 0 -117.5 -45t-50.5 -113q-12 -140 2 -274q6 -68 53 -112t127 -44q38 0 54 2q-80 138 -80 306q0 183 96.5 289t263.5 106q155 0 250.5 -98.5t95.5 -272.5q0 -194 -149 -356q54 0 143 26v-231q-70 -23 -178 -23
q-118 0 -225 52q-132 -52 -271 -52q-203 0 -327.5 98.5t-143.5 256.5q-12 99 -12 178zM829 547q0 -141 41 -219q109 92 109 243q0 66 -15.5 102t-56.5 36q-78 0 -78 -162z" />
    <glyph glyph-name="uni04AA" unicode="&#x4aa;" horiz-adv-x="1032" 
d="M92 717q0 137 10 270q15 209 163.5 340t369.5 131q100 0 177 -27.5t157 -87.5l-88 -243q-56 40 -101 55.5t-110 15.5q-105 0 -168.5 -53.5t-71.5 -146.5q-10 -160 -10 -254q0 -91 10 -254q9 -96 67.5 -148t157.5 -51q46 0 87.5 11.5t65.5 24t66 38.5l97 -256
q-78 -55 -150 -81t-166 -26q-33 0 -49 2l-16 -65q95 -15 151 -65.5t56 -122.5q0 -127 -135 -194t-355 -62l45 167q112 0 177 21.5t65 56.5q0 32 -46 43t-169 11l61 243q-147 52 -237.5 166.5t-100.5 269.5q-10 133 -10 271z" />
    <glyph glyph-name="uni04AB" unicode="&#x4ab;" horiz-adv-x="942" 
d="M92 524q0 103 12 185q23 162 142 261t317 99q197 0 316 -98l-82 -226q-93 72 -213 72q-84 0 -135 -42.5t-56 -108.5q-11 -143 0 -285q5 -66 57 -109t140 -43q106 0 213 66l78 -219q-129 -101 -312 -101h-20l-17 -63q95 -15 151 -65.5t56 -122.5q0 -127 -134.5 -194
t-354.5 -62l45 167q112 0 177 21.5t65 56.5q0 32 -46 43t-169 11l59 237q-119 39 -190.5 127.5t-86.5 208.5q-12 99 -12 184z" />
    <glyph glyph-name="uni04AC" unicode="&#x4ac;" horiz-adv-x="1044" 
d="M41 1147v287h963v-287h-318v-860h143v-574h-307v287h-164v1147h-317z" />
    <glyph glyph-name="uni04AD" unicode="&#x4ad;" horiz-adv-x="921" 
d="M41 799v245h840v-245h-267v-553h144v-512h-287v266h-164v799h-266z" />
    <glyph glyph-name="uni04AE" unicode="&#x4ae;" horiz-adv-x="1040" 
d="M0 1434h330l151 -410l23 -160q2 -12 9 -16.5t14.5 0t11.5 16.5l24 160l152 410h325l-356 -912v-522h-328v522z" />
    <glyph glyph-name="uni04AF" unicode="&#x4af;" horiz-adv-x="1011" 
d="M41 1044h301l129 -548l16 -160q1 -12 9.5 -16.5t16.5 0t9 16.5l17 160l131 548h301l-312 -1044v-410h-307v410z" />
    <glyph glyph-name="uni04B0" unicode="&#x4b0;" horiz-adv-x="1040" 
d="M0 1434h330l151 -410l23 -160q2 -12 9 -16.5t14.5 0t11.5 16.5l24 160l152 410h325l-319 -820h188v-233h-225v-381h-328v381h-225v233h188z" />
    <glyph glyph-name="uni04B1" unicode="&#x4b1;" horiz-adv-x="1011" 
d="M41 1044h301l129 -548l16 -160q1 -12 9.5 -16.5t16.5 0t9 16.5l17 160l131 548h301l-312 -1044h236v-233h-236v-177h-307v177h-235v233h235z" />
    <glyph glyph-name="uni04B2" unicode="&#x4b2;" horiz-adv-x="1239" 
d="M41 0l293 727l-293 707h346l156 -418l22 -160q2 -12 9 -16.5t14.5 0t11.5 16.5l25 160l155 418h346l-297 -707l181 -440h209v-574h-308v287h-131l-155 438l-25 160q-4 12 -11.5 16.5t-14.5 0t-9 -16.5l-22 -160l-156 -438h-346z" />
    <glyph glyph-name="uni04B3" unicode="&#x4b3;" horiz-adv-x="1091" 
d="M41 0l252 522l-252 522h319l121 -286l23 -99q3 -12 10 -16.5t14 0t11 16.5l24 99l121 286h315l-251 -522l133 -276h190v-512h-287v266h-100l-121 287l-24 98q-4 12 -11 16.5t-14 0t-10 -16.5l-23 -98l-121 -287h-319z" />
    <glyph glyph-name="uni04B4" unicode="&#x4b4;" horiz-adv-x="1585" 
d="M41 1147v287h860v-287h-217v-860h358v1147h328v-1147h143v-574h-307v287h-850v1147h-315z" />
    <glyph glyph-name="uni04B5" unicode="&#x4b5;" horiz-adv-x="1382" 
d="M41 799v245h717v-245h-144v-553h267v798h307v-798h143v-512h-287v266h-737v799h-266z" />
    <glyph glyph-name="uni04B6" unicode="&#x4b6;" horiz-adv-x="1320" 
d="M102 950v484h328v-463q0 -92 47 -138.5t131 -46.5q88 0 170 33v615h328v-1147h143v-574h-307v287h-164v551q0 37 -41 20l-119 -53q-47 -8 -106 -8q-88 0 -161 25.5t-129.5 77.5t-88 138t-31.5 199z" />
    <glyph glyph-name="uni04B7" unicode="&#x4b7;" horiz-adv-x="1181" 
d="M102 692v352h308v-284q0 -87 31.5 -124.5t109.5 -37.5q89 0 129 66v380h307v-798h143v-512h-286v266h-168v379q0 18 -11.5 22.5t-31.5 -6.5l-111 -65q-31 -8 -69 -8q-75 0 -135.5 19t-110.5 60t-77.5 115t-27.5 176z" />
    <glyph glyph-name="uni04B8" unicode="&#x4b8;" horiz-adv-x="1331" 
d="M102 930v504h328v-484q0 -67 30.5 -105t92.5 -61q9 -3 16 3.5t4 15.5l-45 121v243h246v-393q41 7 86 25v635h328v-1434h-328v530q0 38 -41 21l-45 -21v-284h-246v246q-195 16 -310.5 124.5t-115.5 313.5z" />
    <glyph glyph-name="uni04B9" unicode="&#x4b9;" horiz-adv-x="1216" 
d="M102 692v352h308v-284q0 -70 21.5 -106.5t78.5 -47.5q8 -2 13.5 5t2.5 14l-45 127v120h215v-258q59 18 80 50v380h307v-1044h-311v379q0 31 -43 16l-33 -12v-184h-215v123h-28q-75 0 -135.5 19t-110.5 60t-77.5 115t-27.5 176z" />
    <glyph glyph-name="uni04BA" unicode="&#x4ba;" horiz-adv-x="1249" 
d="M143 0v1434h328v-551q0 -38 41 -21l119 53q53 9 106 9q88 0 161 -25.5t129.5 -77.5t88 -138.5t31.5 -199.5v-483h-328v463q0 92 -47 138t-131 46q-87 0 -170 -33v-614h-328z" />
    <glyph glyph-name="uni04BB" unicode="&#x4bb;" horiz-adv-x="1153" 
d="M133 0v1538h299v-530q115 61 248 61q70 0 132 -20t111 -58.5t78 -100.5t29 -140v-750h-307v625q0 91 -29.5 129.5t-111.5 38.5t-116 -39.5t-34 -128.5v-625h-299z" />
    <glyph glyph-name="uni04BC" unicode="&#x4bc;" horiz-adv-x="1548" 
d="M0 965q0 148 94 270l197 -119q-37 -64 -37 -112q0 -58 25 -83.5t81 -25.5h19q62 563 534 563q87 0 163 -19t147 -66t121.5 -120t81 -189t30.5 -265l-82 -183h-669q-1 -188 71.5 -270t218.5 -82q105 0 199 35.5t143 79.5l107 -254q-199 -150 -469 -150q-119 0 -235.5 36
t-186.5 106q-40 40 -66.5 76t-53 93.5t-41.5 139t-19 190.5q-173 1 -273 96t-100 253zM705 895h415q0 141 -57 207.5t-150 66.5t-150 -67t-58 -207z" />
    <glyph glyph-name="uni04BD" unicode="&#x4bd;" horiz-adv-x="1230" 
d="M0 709q0 107 72 204l147 -90q-24 -53 -24 -92q0 -38 20.5 -55t63.5 -19l4 35q23 166 137 269.5t297 103.5q222 0 332 -130.5t110 -379.5l-43 -106h-561q0 -27 2 -39q16 -181 229 -181q105 0 234 60l78 -219q-136 -90 -312 -90q-209 0 -343.5 98.5t-159.5 255.5
q-8 52 -11 112q-126 3 -199 74.5t-73 188.5zM559 655h322q-16 170 -160 170q-143 0 -162 -170z" />
    <glyph glyph-name="uni04BE" unicode="&#x4be;" horiz-adv-x="1548" 
d="M0 965q0 148 94 270l197 -119q-37 -64 -37 -112q0 -58 25 -83.5t81 -25.5h19q62 563 534 563q87 0 163 -19t147 -66t121.5 -120t81 -189t30.5 -265l-82 -183h-669q-1 -188 71.5 -270t218.5 -82q105 0 199 35.5t143 79.5l107 -254q-175 -131 -397 -148q-44 -31 -63 -64.5
t-19 -82.5q0 -72 62 -104.5t181 -34.5l-30 -217q-218 2 -342.5 81t-124.5 248q0 120 75 195q-153 39 -233 119q-40 40 -66.5 76t-53 93.5t-41.5 139t-19 190.5q-173 1 -273 96t-100 253zM705 895h415q0 141 -57 207.5t-150 66.5t-150 -67t-58 -207z" />
    <glyph glyph-name="uni04BF" unicode="&#x4bf;" horiz-adv-x="1230" 
d="M0 709q0 107 72 204l147 -90q-24 -53 -24 -92q0 -38 20.5 -55t63.5 -19l4 35q23 166 137 269.5t297 103.5q222 0 332 -130.5t110 -379.5l-43 -106h-561q0 -27 2 -39q16 -181 229 -181q105 0 234 60l78 -219q-129 -87 -295 -90q-53 -48 -53 -125q0 -137 243 -140l-30 -217
q-218 2 -342.5 81.5t-124.5 248.5q0 113 69 188q-118 41 -191 125t-91 193q-8 52 -11 112q-126 3 -199 74.5t-73 188.5zM559 655h322q-16 170 -160 170q-143 0 -162 -170z" />
    <glyph glyph-name="uni04C0" unicode="&#x4c0;" horiz-adv-x="612" 
d="M143 0v1434h326v-1434h-326z" />
    <glyph glyph-name="uni04C1" unicode="&#x4c1;" horiz-adv-x="1794" 
d="M41 1434h346l234 -584h116v584h320v-584h117l233 584h346l-303 -697l293 -737h-342l-227 584h-117v-584h-320v584h-116l-228 -584h-342l293 737zM526 1862l207 51q41 -117 164 -117t164 117l207 -51q-44 -128 -129.5 -194t-241.5 -66t-241.5 66t-129.5 194z" />
    <glyph glyph-name="uni04C2" unicode="&#x4c2;" horiz-adv-x="1529" 
d="M41 0l242 522l-238 522h320l172 -399h75v399h299v-399h76l172 399h320l-234 -516l244 -528h-332l-170 399h-76v-399h-299v399h-75l-170 -399h-326zM385 1473l207 51q40 -117 164 -117t164 117l206 -51q-29 -84 -71.5 -139t-117.5 -88.5t-181 -33.5t-181 33.5t-118 88.5
t-72 139z" />
    <glyph glyph-name="uni04C3" unicode="&#x4c3;" horiz-adv-x="1251" 
d="M143 0v1434h328v-551q0 -23 8.5 -32t32.5 -9h127l174 592h346l-225 -648q112 -60 173.5 -184t61.5 -311q0 -173 -47.5 -305.5t-146 -211.5t-236.5 -79q-88 0 -170 20l58 256q30 -10 67 -10q49 0 82.5 47.5t47.5 119.5t14 163q0 140 -61 207t-191 67h-115v-565h-328z" />
    <glyph glyph-name="uni04C4" unicode="&#x4c4;" horiz-adv-x="1200" 
d="M133 0v1044h328v-378q0 -15 6.5 -18t27.5 -3h7h82l166 399h346l-203 -442q225 -98 225 -432q0 -210 -101.5 -342.5t-287.5 -132.5q-88 0 -170 20l57 256q30 -10 68 -10q52 0 77 59t25 150q0 119 -51.5 174t-171.5 55h-102v-399h-328z" />
    <glyph glyph-name="uni04C5" unicode="&#x4c5;" horiz-adv-x="1341" 
d="M20 246q175 30 193 219q33 335 39 969h915v-1147h164v-62l-225 -512h-307l127 287h-86v1147h-285q-1 -36 -3.5 -150t-4 -152.5t-4.5 -126t-6.5 -132.5t-9 -104t-13.5 -105q-26 -163 -135 -266.5t-285 -135.5z" />
    <glyph glyph-name="uni04C6" unicode="&#x4c6;" horiz-adv-x="1193" 
d="M41 240q151 23 178 141q43 186 43 663h789v-798h143v-62l-188 -450h-287l112 266h-88v799h-186q-6 -176 -41 -443q-45 -339 -403 -381z" />
    <glyph glyph-name="uni04C7" unicode="&#x4c7;" horiz-adv-x="1310" 
d="M143 0v1434h328v-574h369v574h327v-1434q0 -189 -111.5 -302.5t-318.5 -152.5l-73 271q82 15 129 62.5t47 121.5v573h-369v-573h-328z" />
    <glyph glyph-name="uni04C8" unicode="&#x4c8;" horiz-adv-x="1159" 
d="M133 0v1044h307v-399h279v399h307v-1044q0 -110 -39.5 -197.5t-104.5 -140.5t-141 -82t-157 -35l-70 269q101 23 153 66.5t52 119.5v399h-279v-399h-307z" />
    <glyph glyph-name="uni04C9" unicode="&#x4c9;" horiz-adv-x="1341" 
d="M143 0v1434h328v-574h369v574h327v-1147h164v-62l-225 -512h-307l127 287h-86v573h-369v-573h-328z" />
    <glyph glyph-name="uni04CA" unicode="&#x4ca;" horiz-adv-x="1169" 
d="M133 0v1044h307v-399h279v399h307v-798h143v-62l-188 -450h-287l113 266h-88v399h-279v-399h-307z" />
    <glyph glyph-name="uni04CB" unicode="&#x4cb;" horiz-adv-x="1249" 
d="M102 950v484h328v-463q0 -92 47 -138.5t131 -46.5q88 0 170 33v615h328v-1434h-164v-287h-307v574h143v264q0 37 -41 20l-119 -53q-47 -8 -106 -8q-88 0 -161 25.5t-129.5 77.5t-88 138t-31.5 199z" />
    <glyph glyph-name="uni04CC" unicode="&#x4cc;" horiz-adv-x="1140" 
d="M102 713v331h308v-264q0 -87 31.5 -124.5t109.5 -37.5q111 0 149 66v360h308v-1044h-168v-266h-287v512h143v153q0 38 -43 17l-131 -66q-31 -8 -69 -8q-75 0 -135.5 19t-110.5 60.5t-77.5 115.5t-27.5 176z" />
    <glyph glyph-name="uni04CD" unicode="&#x4cd;" horiz-adv-x="1423" 
d="M143 0v1434h267l268 -506q6 -12 18.5 -12t18.5 12l268 506h266v-1147h164v-62l-225 -512h-307l127 287h-66v594l29 180q3 15 -10.5 21t-22.5 -9l-197 -317h-106l-180 317q-9 15 -22.5 9t-10.5 -21l29 -180v-594h-308z" />
    <glyph glyph-name="uni04CE" unicode="&#x4ce;" horiz-adv-x="1370" 
d="M133 0v1042h279l247 -432q7 -12 19 -12t20 12l250 432h279v-796h143v-62l-188 -450h-287l113 266h-70v354l27 172q3 15 -9.5 21.5t-21.5 -8.5l-209 -322h-104l-195 322q-9 15 -22.5 8.5t-10.5 -21.5l29 -172v-354h-289z" />
    <glyph glyph-name="uni04CF" unicode="&#x4cf;" horiz-adv-x="573" 
d="M133 0v1536h307v-1536h-307z" />
    <glyph glyph-name="uni04D0" unicode="&#x4d0;" horiz-adv-x="1249" 
d="M61 0l283 1167h-149v267h665l348 -1434h-325l-70 332h-356l-70 -332h-326zM264 1862l207 51q41 -117 164 -117t164 117l207 -51q-44 -128 -129.5 -194t-241.5 -66t-241.5 66t-129.5 194zM514 598h242l-88 420l-15 129q-1 12 -10 16.5t-17.5 0t-9.5 -16.5l-14 -129z" />
    <glyph glyph-name="uni04D1" unicode="&#x4d1;" horiz-adv-x="1034" 
d="M72 291q0 143 101 222t259 79h178v100q0 129 -182 129q-119 0 -260 -82l-84 230q174 100 367 100q215 0 324.5 -102.5t109.5 -272.5v-409l108 -156l-235 -154l-66 88q-22 29 -47 7q-111 -86 -252 -86q-148 0 -234.5 85.5t-86.5 221.5zM147 1473l207 51q40 -117 164 -117
t164 117l207 -51q-29 -84 -72 -139t-118 -88.5t-181 -33.5t-181 33.5t-118 88.5t-72 139zM338 295q0 -40 34.5 -68t86.5 -28q70 0 110.5 43.5t40.5 113.5v27q0 26 -37 16l-73 -22h-64q-98 0 -98 -82z" />
    <glyph glyph-name="uni04D2" unicode="&#x4d2;" horiz-adv-x="1249" 
d="M61 0l283 1167h-149v267h665l348 -1434h-325l-70 332h-356l-70 -332h-326zM289 1573v250h274v-250h-274zM514 598h242l-88 420l-15 129q-1 12 -10 16.5t-17.5 0t-9.5 -16.5l-14 -129zM707 1573v250h274v-250h-274z" />
    <glyph glyph-name="uni04D3" unicode="&#x4d3;" horiz-adv-x="1034" 
d="M72 291q0 143 101 222t259 79h178v100q0 129 -182 129q-119 0 -260 -82l-84 230q174 100 367 100q215 0 324.5 -102.5t109.5 -272.5v-409l108 -156l-235 -154l-66 88q-22 29 -47 7q-111 -86 -252 -86q-148 0 -234.5 85.5t-86.5 221.5zM172 1184v250h274v-250h-274z
M338 295q0 -40 34.5 -68t86.5 -28q70 0 110.5 43.5t40.5 113.5v27q0 26 -37 16l-73 -22h-64q-98 0 -98 -82zM590 1184v250h274v-250h-274z" />
    <glyph glyph-name="uni04D4" unicode="&#x4d4;" horiz-adv-x="1781" 
d="M61 0l281 1157h-147v277h1484v-277h-583v-307h549v-266h-549v-297h583v-287h-880v332h-342l-70 -332h-326zM514 598h285v559h-166z" />
    <glyph glyph-name="uni04D5" unicode="&#x4d5;" horiz-adv-x="1570" 
d="M72 291q0 143 101 222t259 79h178v100q0 129 -182 129q-119 0 -260 -82l-84 230q174 100 367 100q158 0 266 -59l37 -41q16 -19 32 0l35 39q102 57 236 57q222 0 332 -130.5t110 -379.5l-43 -106h-561q0 -115 58.5 -167.5t172.5 -52.5q105 0 234 60l78 -219
q-133 -88 -312 -88q-196 0 -327 86l-39 43q-17 20 -35 -2l-35 -39q-125 -88 -276 -88q-157 0 -249.5 86.5t-92.5 222.5zM338 295q0 -40 34.5 -68t86.5 -28q70 0 110.5 43.5t40.5 113.5v27q0 26 -37 16l-73 -22h-64q-98 0 -98 -82zM899 655h322q-16 170 -160 170
q-143 0 -162 -170z" />
    <glyph glyph-name="uni04D6" unicode="&#x4d6;" horiz-adv-x="1126" 
d="M143 0v1434h881v-287h-584v-297h549v-266h-549v-297h584v-287h-881zM233 1862l207 51q41 -117 164 -117q124 0 164 117l207 -51q-44 -128 -129.5 -194t-241.5 -66t-241.5 66t-129.5 194z" />
    <glyph glyph-name="uni04D7" unicode="&#x4d7;" horiz-adv-x="1052" 
d="M92 510q0 80 12 182q23 166 137.5 269.5t297.5 103.5q222 0 332 -130.5t110 -379.5l-43 -106h-561q0 -27 2 -39q16 -181 229 -181q105 0 234 60l78 -219q-136 -90 -312 -90q-209 0 -344 99t-160 255q-12 99 -12 176zM168 1473l207 51q40 -117 164 -117q123 0 163 117
l207 -51q-29 -84 -71.5 -139t-117.5 -88.5t-181 -33.5t-181 33.5t-118 88.5t-72 139zM381 655h321q-16 170 -159 170t-162 -170z" />
    <glyph glyph-name="uni04D8" unicode="&#x4d8;" horiz-adv-x="1269" 
d="M92 635v182h754q0 188 -73.5 270t-219.5 82q-99 0 -187.5 -35t-134.5 -79l-106 254q189 149 448 149q120 0 236.5 -36t185.5 -105q44 -44 72.5 -85.5t56 -109t41 -168t13.5 -237.5q0 -172 -30.5 -304.5t-80.5 -214t-122 -133t-147 -71t-163 -19.5q-87 0 -163 19
t-147 66.5t-121.5 120.5t-81 189t-30.5 265zM428 539q0 -141 57 -208t150 -67t150 67.5t57 207.5h-414z" />
    <glyph glyph-name="uni04D9" unicode="&#x4d9;" horiz-adv-x="1052" 
d="M72 489l43 107h561q0 27 -2 39q-16 180 -230 180q-106 0 -233 -59l-78 219q136 90 311 90q209 0 344 -99t160 -255q13 -107 13 -176q0 -73 -13 -183q-23 -166 -137 -269t-297 -103q-222 0 -332 130t-110 379zM350 389q16 -170 160 -170q143 0 162 170h-322z" />
    <glyph glyph-name="uni04DA" unicode="&#x4da;" horiz-adv-x="1269" 
d="M92 635v182h754q0 188 -73.5 270t-219.5 82q-99 0 -187.5 -35t-134.5 -79l-106 254q189 149 448 149q120 0 236.5 -36t185.5 -105q44 -44 72.5 -85.5t56 -109t41 -168t13.5 -237.5q0 -172 -30.5 -304.5t-80.5 -214t-122 -133t-147 -71t-163 -19.5q-87 0 -163 19
t-147 66.5t-121.5 120.5t-81 189t-30.5 265zM268 1573v250h275v-250h-275zM428 539q0 -141 57 -208t150 -67t150 67.5t57 207.5h-414zM686 1573v250h275v-250h-275z" />
    <glyph glyph-name="uni04DB" unicode="&#x4db;" horiz-adv-x="1062" 
d="M72 489l43 107h561q0 27 -2 39q-16 180 -230 180q-106 0 -233 -59l-78 219q136 90 311 90q209 0 344 -99t160 -255q13 -107 13 -176q0 -73 -13 -183q-23 -166 -137 -269t-297 -103q-222 0 -332 130t-110 379zM193 1184v250h274v-250h-274zM350 389q16 -170 160 -170
q143 0 162 170h-322zM610 1184v250h275v-250h-275z" />
    <glyph glyph-name="uni04DC" unicode="&#x4dc;" horiz-adv-x="1794" 
d="M41 1434h346l234 -584h116v584h320v-584h117l233 584h346l-303 -697l293 -737h-342l-227 584h-117v-584h-320v584h-116l-228 -584h-342l293 737zM551 1573v250h274v-250h-274zM969 1573v250h274v-250h-274z" />
    <glyph glyph-name="uni04DD" unicode="&#x4dd;" horiz-adv-x="1529" 
d="M41 0l242 522l-238 522h320l172 -399h75v399h299v-399h76l172 399h320l-234 -516l244 -528h-332l-170 399h-76v-399h-299v399h-75l-170 -399h-326zM410 1184v250h274v-250h-274zM827 1184v250h275v-250h-275z" />
    <glyph glyph-name="uni04DE" unicode="&#x4de;" horiz-adv-x="1103" 
d="M41 131l96 260q89 -75 166.5 -103t196.5 -28q105 0 162 43t57 121t-57.5 126t-176.5 48h-217v266h238q172 0 172 154q0 75 -50.5 120.5t-140.5 45.5q-178 0 -319 -76l-88 242q98 61 199.5 84.5t226.5 23.5q68 0 133 -14t127.5 -45.5t110 -77.5t76 -116.5t28.5 -155.5
q0 -218 -154 -318q195 -97 195 -328q0 -190 -141 -306.5t-359 -116.5q-150 0 -263.5 33.5t-217.5 117.5zM166 1573v250h274v-250h-274zM584 1573v250h274v-250h-274z" />
    <glyph glyph-name="uni04DF" unicode="&#x4df;" horiz-adv-x="948" 
d="M20 94l89 240q78 -57 140 -74.5t175 -17.5q75 0 116.5 25.5t41.5 74.5q0 31 -43 58.5t-129 27.5h-123v197h123q157 0 157 94q0 43 -44.5 70.5t-125.5 27.5q-161 0 -276 -61l-80 221q180 92 377 92q85 0 163.5 -18.5t144 -54.5t105 -96.5t39.5 -137.5q0 -96 -34.5 -150
t-100.5 -86q152 -62 152 -233q0 -94 -64.5 -166t-164.5 -107.5t-216 -35.5q-135 0 -233 23.5t-189 86.5zM109 1184v250h274v-250h-274zM526 1184v250h275v-250h-275z" />
    <glyph glyph-name="uni04E0" unicode="&#x4e0;" horiz-adv-x="1093" 
d="M31 131l96 260q89 -75 166.5 -103t195.5 -28q105 0 162.5 43t57.5 121q0 88 -57 141t-177 53h-217v185l203 272l61 55q15 12 10.5 24.5t-22.5 12.5h-438v267h854v-201l-312 -356q398 -65 398 -441q0 -91 -31.5 -168.5t-82.5 -129.5t-117 -88.5t-134 -53t-135 -16.5
q-150 0 -263.5 33.5t-217.5 117.5z" />
    <glyph glyph-name="uni04E1" unicode="&#x4e1;" horiz-adv-x="983" 
d="M61 -338l91 213q59 -38 111.5 -51.5t133.5 -13.5q121 0 186.5 57t65.5 160q0 85 -60 136.5t-186 51.5h-157v184l192 289l54 53q15 12 10 24.5t-23 12.5h-377v266h750v-200l-281 -383q369 -75 369 -434q0 -207 -143 -336t-377 -129q-112 0 -196.5 22t-162.5 78z" />
    <glyph glyph-name="uni04E2" unicode="&#x4e2;" horiz-adv-x="1320" 
d="M143 0v1434h318v-625l-31 -180q-3 -15 11.5 -21.5t21.5 8.5l418 818h297v-1434h-318v625l29 180q3 15 -11.5 21t-21.5 -9l-416 -817h-297zM352 1569v233h617v-233h-617z" />
    <glyph glyph-name="uni04E3" unicode="&#x4e3;" horiz-adv-x="1167" 
d="M133 0v1044h297v-395l-31 -180q-3 -15 10.5 -21t22.5 9l346 587h256v-1044h-297v373l29 180q3 16 -10 22t-23 -10l-344 -565h-256zM276 1180v233h617v-233h-617z" />
    <glyph glyph-name="uni04E4" unicode="&#x4e4;" horiz-adv-x="1320" 
d="M143 0v1434h318v-625l-31 -180q-3 -15 11.5 -21.5t21.5 8.5l418 818h297v-1434h-318v625l29 180q3 15 -11.5 21t-21.5 -9l-416 -817h-297zM315 1573v250h275v-250h-275zM733 1573v250h275v-250h-275z" />
    <glyph glyph-name="uni04E5" unicode="&#x4e5;" horiz-adv-x="1167" 
d="M133 0v1044h297v-395l-31 -180q-3 -15 10.5 -21t22.5 9l346 587h256v-1044h-297v373l29 180q3 16 -10 22t-23 -10l-344 -565h-256zM240 1184v250h274v-250h-274zM657 1184v250h275v-250h-275z" />
    <glyph glyph-name="uni04E6" unicode="&#x4e6;" horiz-adv-x="1269" 
d="M92 717q0 180 22 301.5t54 182t86 114.5q143 143 381 143t381 -143q54 -54 86 -114.5t54 -182t22 -301.5t-22 -301.5t-54 -182t-86 -114.5q-144 -144 -381 -144t-381 144q-54 54 -86 114.5t-54 182t-22 301.5zM289 1573v250h274v-250h-274zM422 717q0 -122 10 -252
q6 -93 61 -147t142 -54t142 54t61 147q10 130 10 252t-10 252q-6 93 -61 146.5t-142 53.5t-142 -53.5t-61 -146.5q-10 -130 -10 -252zM707 1573v250h274v-250h-274z" />
    <glyph glyph-name="uni04E7" unicode="&#x4e7;" horiz-adv-x="1124" 
d="M92 518q0 107 12 189q23 162 142 262t315 100q197 0 317.5 -100t141.5 -262q12 -102 12 -189q0 -81 -12 -180q-24 -162 -143.5 -262.5t-315.5 -100.5t-316 101t-141 262q-12 99 -12 180zM217 1184v250h275v-250h-275zM393 659q-13 -128 2 -274q6 -68 49.5 -112t116.5 -44
q74 0 117 44t51 110q16 133 2 276q-6 68 -50.5 113t-119.5 45q-73 0 -117.5 -45t-50.5 -113zM635 1184v250h274v-250h-274z" />
    <glyph glyph-name="uni04E8" unicode="&#x4e8;" horiz-adv-x="1269" 
d="M92 717q0 180 22 301.5t54 182t86 114.5q143 143 381 143t381 -143q54 -54 86 -114.5t54 -182t22 -301.5t-22 -301.5t-54 -182t-86 -114.5q-144 -144 -381 -144t-381 144q-54 54 -86 114.5t-54 182t-22 301.5zM424 600q4 -90 8 -135q6 -93 61 -147t142 -54t142 54t61 147
q4 45 8 135h-422zM424 834h422q-4 90 -8 135q-6 93 -61 146.5t-142 53.5t-142 -53.5t-61 -146.5q-4 -45 -8 -135z" />
    <glyph glyph-name="uni04E9" unicode="&#x4e9;" horiz-adv-x="1124" 
d="M92 518q0 107 12 189q23 162 142 262t315 100q197 0 317.5 -100t141.5 -262q12 -102 12 -189q0 -81 -12 -180q-24 -162 -143.5 -262.5t-315.5 -100.5t-316 101t-141 262q-12 99 -12 180zM391 639h342l-2 20q-6 68 -50.5 113t-119.5 45q-73 0 -117.5 -45t-50.5 -113z
M393 406l2 -21q6 -68 49.5 -112t116.5 -44q74 0 117 44t51 110q0 4 1 11.5t1 11.5h-338z" />
    <glyph glyph-name="uni04EA" unicode="&#x4ea;" horiz-adv-x="1269" 
d="M92 717q0 180 22 301.5t54 182t86 114.5q143 143 381 143t381 -143q54 -54 86 -114.5t54 -182t22 -301.5t-22 -301.5t-54 -182t-86 -114.5q-144 -144 -381 -144t-381 144q-54 54 -86 114.5t-54 182t-22 301.5zM289 1573v250h274v-250h-274zM424 600q4 -90 8 -135
q6 -93 61 -147t142 -54t142 54t61 147q4 45 8 135h-422zM424 834h422q-4 90 -8 135q-6 93 -61 146.5t-142 53.5t-142 -53.5t-61 -146.5q-4 -45 -8 -135zM707 1573v250h274v-250h-274z" />
    <glyph glyph-name="uni04EB" unicode="&#x4eb;" horiz-adv-x="1124" 
d="M92 518q0 107 12 189q23 162 142 262t315 100q197 0 317.5 -100t141.5 -262q12 -102 12 -189q0 -81 -12 -180q-24 -162 -143.5 -262.5t-315.5 -100.5t-316 101t-141 262q-12 99 -12 180zM217 1184v250h275v-250h-275zM391 639h342l-2 20q-6 68 -50.5 113t-119.5 45
q-73 0 -117.5 -45t-50.5 -113zM393 406l2 -21q6 -68 49.5 -112t116.5 -44q74 0 117 44t51 110q0 4 1 11.5t1 11.5h-338zM635 1184v250h274v-250h-274z" />
    <glyph glyph-name="uni04EC" unicode="&#x4ec;" horiz-adv-x="1073" 
d="M61 82l97 256q50 -26 80 -38.5t80 -24t106 -11.5q97 -2 154.5 45t64.5 133q1 30 4 77.5t4 64.5h-409v266h409q-1 18 -4 65.5t-4 75.5q-6 84 -64.5 132t-154.5 48q-80 0 -134.5 -15.5t-123.5 -55.5l-84 268q91 47 177 68.5t200 21.5q212 0 354.5 -125t157.5 -325
q10 -143 10 -291t-10 -291q-15 -200 -167.5 -325.5t-379.5 -125.5q-109 0 -191 25.5t-172 81.5zM150 1573v250h274v-250h-274zM567 1573v250h275v-250h-275z" />
    <glyph glyph-name="uni04ED" unicode="&#x4ed;" horiz-adv-x="997" 
d="M61 76l76 213q133 -68 256 -68q98 0 157 45.5t64 112.5q0 5 1 15.5t1 15.5h-344v225h344q0 5 -1 16.5t-1 16.5q-6 68 -63.5 111.5t-151.5 43.5q-144 0 -256 -71l-80 219q129 96 355 96q206 0 328.5 -98t146.5 -262q12 -82 12 -183q0 -85 -12 -184q-21 -163 -146 -264
t-335 -101q-205 0 -351 101zM94 1184v250h275v-250h-275zM512 1184v250h274v-250h-274z" />
    <glyph glyph-name="uni04EE" unicode="&#x4ee;" horiz-adv-x="1085" 
d="M-20 1434h335l217 -617l21 -207q1 -10 18 -10t19 10l20 207l164 617h332l-361 -1084q-66 -199 -165 -287t-271 -88q-52 0 -113 19t-108 47l94 258q61 -41 123 -41q75 0 109 80zM229 1569v233h617v-233h-617z" />
    <glyph glyph-name="uni04EF" unicode="&#x4ef;" horiz-adv-x="989" 
d="M20 1044h314l127 -444l20 -190q1 -12 9 -16.5t16.5 0t9.5 16.5l23 190l102 444h307l-338 -1132q-43 -154 -169.5 -249t-301.5 -101l-73 260q106 10 175.5 59t90.5 123l30 111zM186 1180v233h617v-233h-617z" />
    <glyph glyph-name="uni04F0" unicode="&#x4f0;" horiz-adv-x="1085" 
d="M-20 1434h335l217 -617l21 -207q1 -10 18 -10t19 10l20 207l164 617h332l-361 -1084q-66 -199 -165 -287t-271 -88q-52 0 -113 19t-108 47l94 258q61 -41 123 -41q75 0 109 80zM193 1573v250h274v-250h-274zM610 1573v250h275v-250h-275z" />
    <glyph glyph-name="uni04F1" unicode="&#x4f1;" horiz-adv-x="989" 
d="M20 1044h314l127 -444l20 -190q1 -12 9 -16.5t16.5 0t9.5 16.5l23 190l102 444h307l-338 -1132q-43 -154 -169.5 -249t-301.5 -101l-73 260q106 10 175.5 59t90.5 123l30 111zM150 1184v250h274v-250h-274zM567 1184v250h275v-250h-275z" />
    <glyph glyph-name="uni04F2" unicode="&#x4f2;" horiz-adv-x="1085" 
d="M-20 1434h335l217 -617l21 -207q1 -10 18 -10t19 10l20 207l164 617h332l-361 -1084q-66 -199 -165 -287t-271 -88q-52 0 -113 19t-108 47l94 258q61 -41 123 -41q75 0 109 80zM137 1573l287 352h307l-287 -352h-307zM590 1573l287 352h307l-287 -352h-307z" />
    <glyph glyph-name="uni04F3" unicode="&#x4f3;" horiz-adv-x="989" 
d="M20 1044h314l127 -444l20 -190q1 -12 9 -16.5t16.5 0t9.5 16.5l23 190l102 444h307l-338 -1132q-43 -154 -169.5 -249t-301.5 -101l-73 260q106 10 175.5 59t90.5 123l30 111zM94 1184l287 352h307l-287 -352h-307zM547 1184l287 352h307l-287 -352h-307z" />
    <glyph glyph-name="uni04F4" unicode="&#x4f4;" horiz-adv-x="1249" 
d="M102 950v484h328v-463q0 -92 47 -138.5t131 -46.5q88 0 170 33v615h328v-1434h-328v551q0 37 -41 20l-119 -53q-47 -8 -106 -8q-88 0 -161 25.5t-129.5 77.5t-88 138t-31.5 199zM227 1573v250h275v-250h-275zM645 1573v250h275v-250h-275z" />
    <glyph glyph-name="uni04F5" unicode="&#x4f5;" horiz-adv-x="1120" 
d="M102 692v352h308v-284q0 -87 31.5 -124.5t109.5 -37.5q89 0 129 66v380h307v-1044h-311v379q0 18 -11.5 22.5t-31.5 -6.5l-111 -65q-31 -8 -69 -8q-75 0 -135.5 19t-110.5 60t-77.5 115t-27.5 176zM219 1184v250h275v-250h-275zM637 1184v250h274v-250h-274z" />
    <glyph glyph-name="uni04F6" unicode="&#x4f6;" horiz-adv-x="970" 
d="M143 0v1434h787v-287h-459v-860h143v-574h-307v287h-164z" />
    <glyph glyph-name="uni04F7" unicode="&#x4f7;" horiz-adv-x="884" 
d="M133 0v1044h690v-245h-383v-553h144v-512h-287v266h-164z" />
    <glyph glyph-name="uni04F8" unicode="&#x4f8;" horiz-adv-x="1763" 
d="M143 0v1434h328v-533h217q222 0 351.5 -120t129.5 -322q0 -213 -129 -336t-352 -123h-545zM471 266h217q72 0 113 49t41 138q0 81 -41.5 131.5t-112.5 50.5h-217v-369zM557 1573v250h274v-250h-274zM975 1573v250h274v-250h-274zM1292 0v1434h328v-1434h-328z" />
    <glyph glyph-name="uni04F9" unicode="&#x4f9;" horiz-adv-x="1558" 
d="M133 0v1044h307v-317h131q207 0 322 -93t115 -263q0 -178 -114.5 -274.5t-322.5 -96.5h-438zM434 1184v250h275v-250h-275zM440 236h131q62 0 95.5 34.5t33.5 100.5q0 55 -34 88t-95 33h-131v-256zM852 1184v250h274v-250h-274zM1118 0v1044h307v-1044h-307z" />
    <glyph glyph-name="uni04FA" unicode="&#x4fa;" horiz-adv-x="1060" 
d="M57 -184q82 15 129 62.5t47 121.5v606h-143v234h143v594h787v-287h-459v-307h266v-234h-266v-606q0 -189 -111.5 -302.5t-318.5 -152.5z" />
    <glyph glyph-name="uni04FB" unicode="&#x4fb;" horiz-adv-x="954" 
d="M-2 -186q101 23 153 66.5t52 119.5v403h-154v234h154v407h690v-245h-383v-162h235v-234h-235v-403q0 -110 -39.5 -197.5t-104.5 -140.5t-141 -82t-157 -35z" />
    <glyph glyph-name="uni04FC" unicode="&#x4fc;" horiz-adv-x="1167" 
d="M41 0l293 727l-293 707h346l156 -418l22 -160q2 -12 9 -16.5t14.5 0t11.5 16.5l25 160l155 418h346l-297 -707l181 -440q63 -159 61.5 -286t-60 -221t-154.5 -153t-222 -82l-74 271q77 13 122.5 58.5t55.5 132t-37 214.5l-77 217l-25 160q-4 12 -11.5 16.5t-14.5 0
t-9 -16.5l-22 -160l-156 -438h-346z" />
    <glyph glyph-name="uni04FD" unicode="&#x4fd;" horiz-adv-x="1040" 
d="M41 0l252 522l-252 522h319l121 -286l23 -99q3 -12 10 -16.5t14 0t11 16.5l24 99l121 286h315l-251 -522l141 -293q37 -77 52 -160.5t2 -167.5t-53.5 -154.5t-121.5 -124.5t-195 -75l-73 269q110 15 146.5 99t-15.5 210l-68 162l-24 98q-4 12 -11 16.5t-14 0t-10 -16.5
l-23 -98l-121 -287h-319z" />
    <glyph glyph-name="uni04FE" unicode="&#x4fe;" horiz-adv-x="1167" 
d="M41 0l246 610h-185v234h183l-244 590h346l156 -418l22 -160q2 -12 9 -16.5t14.5 0t11.5 16.5l25 160l155 418h346l-247 -590h186v-234h-188l249 -610h-346l-155 438l-25 160q-4 12 -11.5 16.5t-14.5 0t-9 -16.5l-22 -160l-156 -438h-346z" />
    <glyph glyph-name="uni04FF" unicode="&#x4ff;" horiz-adv-x="1040" 
d="M41 0l197 406h-125v233h125l-197 405h319l121 -286l23 -99q3 -12 10 -16.5t14 0t11 16.5l24 99l121 286h315l-196 -405h129v-233h-129l196 -406h-315l-121 287l-24 98q-4 12 -11 16.5t-14 0t-10 -16.5l-23 -98l-121 -287h-319z" />
    <glyph glyph-name="uni2000" unicode="&#x2000;" horiz-adv-x="1001" 
 />
    <glyph glyph-name="uni2001" unicode="&#x2001;" horiz-adv-x="2003" 
 />
    <glyph glyph-name="uni2002" unicode="&#x2002;" 
 />
    <glyph glyph-name="uni2003" unicode="&#x2003;" horiz-adv-x="1581" 
 />
    <glyph glyph-name="uni2004" unicode="&#x2004;" horiz-adv-x="667" 
 />
    <glyph glyph-name="uni2005" unicode="&#x2005;" horiz-adv-x="500" 
 />
    <glyph glyph-name="uni2006" unicode="&#x2006;" horiz-adv-x="333" 
 />
    <glyph glyph-name="uni2007" unicode="&#x2007;" horiz-adv-x="333" 
 />
    <glyph glyph-name="uni2008" unicode="&#x2008;" horiz-adv-x="250" 
 />
    <glyph glyph-name="uni2009" unicode="&#x2009;" horiz-adv-x="400" 
 />
    <glyph glyph-name="uni200A" unicode="&#x200a;" horiz-adv-x="111" 
 />
    <glyph glyph-name="uni2010" unicode="&#x2010;" horiz-adv-x="716" 
d="M102 408v278h512v-278h-512z" />
    <glyph glyph-name="uni2011" unicode="&#x2011;" horiz-adv-x="716" 
d="M102 408v278h512v-278h-512z" />
    <glyph glyph-name="figuredash" unicode="&#x2012;" horiz-adv-x="716" 
d="M102 408v278h512v-278h-512z" />
    <glyph glyph-name="endash" unicode="&#x2013;" 
d="M102 408v278h1024v-278h-1024z" />
    <glyph glyph-name="emdash" unicode="&#x2014;" horiz-adv-x="1581" 
d="M102 408v278h1377v-278h-1377z" />
    <glyph glyph-name="quoteleft" unicode="&#x2018;" horiz-adv-x="536" 
d="M20 819v234q0 100 25 182t67.5 137t101.5 94t124 57.5t137 22.5l-29 -155q-120 -10 -183.5 -82t-63.5 -193h180v-297h-359z" />
    <glyph glyph-name="quoteright" unicode="&#x2019;" horiz-adv-x="700" 
d="M123 809l29 156q120 10 183.5 81.5t63.5 192.5h-180v297h359v-233q0 -124 -37.5 -219.5t-103 -152.5t-144.5 -87t-170 -35z" />
    <glyph glyph-name="quotesinglbase" unicode="&#x201a;" horiz-adv-x="638" 
d="M-20 -430l28 156q147 4 228 78t81 196h-180v297h359v-234q0 -124 -43 -220.5t-116.5 -154t-164 -87t-192.5 -31.5z" />
    <glyph glyph-name="quotedblleft" unicode="&#x201c;" horiz-adv-x="1212" 
d="M123 819v234q0 100 25 182t67.5 137t101.5 94t124 57.5t137 22.5l-29 -155q-120 -10 -184 -82t-64 -193h180v-297h-358zM635 819v234q0 100 25 182t67.5 137t101.5 94t124 57.5t137 22.5l-29 -155q-120 -10 -184 -82t-64 -193h180v-297h-358z" />
    <glyph glyph-name="quotedblright" unicode="&#x201d;" horiz-adv-x="1212" 
d="M123 809l29 156q120 10 183.5 81.5t63.5 192.5h-180v297h359v-233q0 -124 -37.5 -219.5t-103 -152.5t-144.5 -87t-170 -35zM635 809l29 156q120 10 183.5 81.5t63.5 192.5h-180v297h359v-233q0 -124 -37.5 -219.5t-103 -152.5t-144.5 -87t-170 -35z" />
    <glyph glyph-name="quotedblbase" unicode="&#x201e;" horiz-adv-x="1089" 
d="M-20 -430l28 156q121 10 184.5 81.5t63.5 192.5h-180v297h358v-234q0 -124 -37.5 -219.5t-103 -152.5t-144 -86.5t-169.5 -34.5zM492 -430l28 156q121 10 184.5 81.5t63.5 192.5h-180v297h358v-234q0 -124 -37.5 -219.5t-103 -152.5t-144 -86.5t-169.5 -34.5z" />
    <glyph glyph-name="dagger" unicode="&#x2020;" horiz-adv-x="1118" 
d="M246 1194v145h237v267h154v-267h235v-145h-235v-514h-154v514h-237z" />
    <glyph glyph-name="bullet" unicode="&#x2022;" horiz-adv-x="802" 
d="M143 729q0 66 11 117t37.5 96t79 69.5t128.5 24.5t129 -24.5t80.5 -70.5t39 -98.5t11.5 -119.5q0 -69 -11.5 -122t-39 -99t-80.5 -71t-129 -25q-61 0 -107 17.5t-74 46t-45.5 71t-23.5 87.5t-6 101z" />
    <glyph glyph-name="ellipsis" unicode="&#x2026;" horiz-adv-x="1714" 
d="M143 0v307h322v-307h-322zM696 0v307h322v-307h-322zM1249 0v307h322v-307h-322z" />
    <glyph glyph-name="uni202F" unicode="&#x202f;" horiz-adv-x="400" 
 />
    <glyph glyph-name="guilsinglleft" unicode="&#x2039;" horiz-adv-x="829" 
d="M102 379v205l289 276h336l-297 -291l-115 -71q-26 -16 0 -33l115 -72l297 -291h-336z" />
    <glyph glyph-name="guilsinglright" unicode="&#x203a;" horiz-adv-x="829" 
d="M102 102l297 291l115 72q26 17 0 33l-115 71l-297 291h336l289 -276v-205l-289 -277h-336z" />
    <glyph glyph-name="uni205F" unicode="&#x205f;" horiz-adv-x="500" 
 />
    <glyph glyph-name="Euro" unicode="&#x20ac;" horiz-adv-x="1277" 
d="M82 389v254h256v148h-256v253h274q32 186 176 300t349 114q100 0 176.5 -27.5t156.5 -87.5l-88 -243q-56 40 -101 55.5t-110 15.5q-82 0 -139 -33t-82 -94h330v-253h-356v-148h356v-254h-332q52 -128 209 -125q46 0 87.5 11.5t65.5 24t66 38.5l97 -256q-78 -55 -150 -81
t-166 -26q-206 0 -353.5 107t-187.5 285q-7 22 -28 22h-250z" />
    <glyph glyph-name="uni20B4" unicode="&#x20b4;" horiz-adv-x="1064" 
d="M0 403v254h1065v-254h-705q9 -68 64.5 -104.5t144.5 -36.5q99 0 176 24t175 83l94 -258q-106 -68 -211.5 -99.5t-241.5 -31.5q-235 0 -366.5 107.5t-141.5 315.5h-53zM0 791v253h688q-5 58 -57.5 95t-159.5 37q-156 0 -299 -76l-90 241q156 117 399 117t373 -110
t141 -304h70v-253h-1065z" />
    <glyph glyph-name="uni20B8" unicode="&#x20b8;" horiz-adv-x="1044" 
d="M41 745v287h963v-287h-318v-745h-328v745h-317zM41 1180v254h963v-254h-963z" />
    <glyph glyph-name="uni20BD" unicode="&#x20bd;" 
d="M0 213v254h184v106h-184v254h184v607h543q204 0 322 -117.5t118 -321.5q0 -193 -118.5 -307.5t-321.5 -114.5h-217v-106h453v-254h-453v-213h-326v213h-184zM510 840h217q66 0 104.5 44.5t38.5 116.5q0 79 -37.5 122.5t-105.5 43.5h-217v-327z" />
    <glyph glyph-name="uni2116" unicode="&#x2116;" horiz-adv-x="2435" 
d="M143 0v1434h267l448 -787q9 -15 22.5 -9t10.5 21l-31 181v594h307v-1434h-266l-446 786q-9 15 -22.5 9t-10.5 -21l29 -180v-594h-308zM1341 1010q0 84 13 155q24 129 142.5 211t313.5 82q197 0 318.5 -81.5t140.5 -211.5q12 -82 12 -155q0 -83 -12 -144
q-26 -130 -145 -211.5t-314 -81.5q-196 0 -315.5 81t-140.5 212q-13 83 -13 144zM1370 164v278h881v-278h-881zM1642 1112q-12 -84 3 -190q6 -44 49 -71.5t116 -27.5q74 0 118 27t50 68q16 95 2 194q-6 42 -51 71t-119 29q-73 0 -117.5 -28.5t-50.5 -71.5z" />
    <glyph glyph-name="trademark" unicode="&#x2122;" horiz-adv-x="2082" 
d="M102 1374v254h830v-254h-270v-657h-289v657h-271zM1028 717v911h254l205 -328q6 -10 17.5 -10t17.5 10l204 328h254v-911h-270v280l27 158q2 14 -10 19t-21 -7l-158 -198h-100l-145 198q-9 12 -21 7t-10 -19l26 -160v-278h-270z" />
    <glyph glyph-name="minus" unicode="&#x2212;" horiz-adv-x="1146" 
d="M102 578v278h942v-278h-942z" />
    <glyph glyph-name="radical" unicode="&#x221a;" 
 />
    <glyph glyph-name="infinity" unicode="&#x221e;" 
 />
    <glyph glyph-name="approxequal" unicode="&#x2248;" 
d="M47 573q141 125 350 125q73 0 134 -18t96 -39t86.5 -39t107.5 -18q121 0 221 84l125 -207q-143 -125 -356 -125q-73 0 -133.5 18t-95 39.5t-85.5 39.5t-106 18q-119 0 -219 -84zM47 983q141 125 350 125q73 0 134 -18t96 -39.5t86.5 -39.5t107.5 -18q121 0 221 84
l125 -207q-143 -125 -356 -125q-73 0 -133.5 18t-95 39.5t-85.5 39.5t-106 18q-119 0 -219 -84z" />
    <glyph glyph-name="notequal" unicode="&#x2260;" 
d="M102 389v254h267l55 148h-322v253h418l148 390h327l-145 -390h194v-253h-290l-56 -148h346v-254h-442l-145 -389h-332l147 389h-170z" />
    <glyph glyph-name="lessequal" unicode="&#x2264;" 
d="M102 164v254h942v-254h-942zM143 721v354l901 240v-250l-665 -147q-17 -3 -17 -17.5t17 -17.5l665 -140v-256z" />
    <glyph glyph-name="greaterequal" unicode="&#x2265;" horiz-adv-x="1146" 
d="M102 164v254h942v-254h-942zM102 487v256l666 140q17 3 17 17.5t-17 17.5l-666 147v250l902 -240v-354z" />
    <glyph glyph-name="uni25FC" unicode="&#x25fc;" horiz-adv-x="1044" 
d="M0 0v1044h1044v-1044h-1044z" />
    <glyph glyph-name="uniFB00" unicode="&#xfb00;" horiz-adv-x="1495" 
d="M41 791v253h176v95q0 180 122.5 281.5t330.5 101.5q204 0 340 -99q122 119 356 119q99 0 186.5 -28.5t147.5 -79.5l-96 -189q-88 60 -193 60q-190 0 -190 -125v-136h213v-253h-213v-791h-308v791h-389v-791h-307v791h-176zM524 1044h389v136q0 22 2 34q-97 70 -200 70
q-191 0 -191 -125v-115z" />
    <glyph glyph-name="uniFB03" unicode="&#xfb03;" horiz-adv-x="2009" 
d="M41 791v253h176v95q0 180 122.5 281.5t330.5 101.5q200 0 338 -97q117 117 358 117q99 0 186.5 -28.5t147.5 -79.5h176v-250h-307v82q-71 39 -158 39q-190 0 -190 -125v-136h655v-1044h-307v791h-348v-791h-308v791h-389v-791h-307v791h-176zM524 1044h389v136q0 22 2 34
q-97 70 -200 70q-191 0 -191 -125v-115z" />
    <glyph glyph-name="uniFB04" unicode="&#xfb04;" horiz-adv-x="2080" 
d="M41 791v253h176v95q0 180 122.5 281.5t330.5 101.5q202 0 334 -95q115 115 335 115q135 0 248 -61v55h299v-1237q0 -13 10 -23t23 -10h111v-264h-197q-107 0 -176.5 68.5t-69.5 175.5v991q-100 68 -217 68q-149 0 -149 -125v-136h254v-253h-254v-791h-308v791h-389v-791
h-307v791h-176zM524 1044h389v136q0 22 2 34q-97 70 -200 70q-191 0 -191 -125v-115z" />
    <glyph glyph-name="A.ss01" horiz-adv-x="1249" 
d="M61 0l349 1434h450l348 -1434h-325l-70 332h-356l-70 -332h-326zM516 598h236l-84 399l-15 156q-1 17 -18 17t-19 -17l-14 -156z" />
    <glyph glyph-name="G.ss01" horiz-adv-x="1189" 
d="M92 717q0 158 12 278q26 224 173.5 343.5t384.5 119.5q228 0 387 -125l-101 -256q-99 94 -286 94q-123 0 -181 -57t-69 -170q-11 -136 -11 -227q0 -74 11 -246q15 -202 211 -205q93 0 168 17v290h-181v287h467v-770q-151 -105 -434 -110q-244 -3 -382 114.5t-157 343.5
q-12 160 -12 279z" />
    <glyph glyph-name="I.ss01" horiz-adv-x="614" 
d="M143 0v1434h328v-1434h-328z" />
    <glyph glyph-name="J.ss01" horiz-adv-x="913" 
d="M113 33l51 274q78 -41 170 -41q41 0 68 10.5t39.5 31t17 40.5t4.5 49v1037h328v-1037q0 -63 -11.5 -118.5t-43.5 -113t-82 -98t-133 -66.5t-191 -26q-125 0 -217 58z" />
    <glyph glyph-name="Z.ss01" horiz-adv-x="1099" 
d="M72 0v201l581 942v24h-581v267h956v-201l-582 -942v-25h582v-266h-956z" />
    <glyph glyph-name="i.ss01" horiz-adv-x="565" 
d="M133 0v1047h299v-1047h-299zM133 1184v250h299v-250h-299z" />
    <glyph glyph-name="dotlessi.ss01" horiz-adv-x="573" 
d="M133 0v1044h307v-1044h-307z" />
    <glyph glyph-name="j.ss01" horiz-adv-x="690" 
d="M-8 -276q93 11 153 85t60 207v1031h301v-1018q0 -112 -26.5 -205.5t-70.5 -157t-103 -109t-122.5 -68t-130.5 -26.5zM205 1184v250h299v-250h-299z" />
    <glyph glyph-name="brevecombcy" horiz-adv-x="0" 
d="M-860 1473l207 51q41 -117 164 -117t163 117l207 -51q-29 -84 -71.5 -139t-117.5 -88.5t-181 -33.5t-181 33.5t-118 88.5t-72 139z" />
    </font>
</defs>
</svg>
