<?xml version="1.0" encoding="UTF-8" standalone="no"?>
<!DOCTYPE svg PUBLIC "-//W3C//DTD SVG 1.1//EN" "http://www.w3.org/Graphics/SVG/1.1/DTD/svg11.dtd">
<svg xmlns="http://www.w3.org/2000/svg" xmlns:xl="http://www.w3.org/1999/xlink" version="1.1" viewBox="0 0 260 260" width="260pt" height="260pt" xmlns:dc="http://purl.org/dc/elements/1.1/">
  <metadata> Produced by OmniGraffle 7.6
    <dc:date>2018-01-22 13:26:24 +0000</dc:date>
  </metadata>
  <defs/>
  <g stroke="none" stroke-opacity="1" stroke-dasharray="none" fill="none" fill-opacity="1">
    <title>Canvas 1</title>
    <g>
      <title>Layer 1</title>
      <rect x="0" y="0" width="260" height="260" fill="#192226"/>
      <path d="M 14.025 0 L 22.977 0 C 20.466 5.065 17.385 9.634 13.479 13.535 C 9.59 17.419 5.04 20.482 0 22.981 L 0 14.028 C 2.804 12.22 5.403 10.169 7.76 7.815 C 10.134 5.444 12.203 2.826 14.025 0 Z M 260.005 160.46 C 256.255 168.25 253.544 177.076 251.625 186.681 C 248.019 204.732 243.601 221.334 232.44 232.494 C 221.281 243.653 204.662 248.049 186.612 251.663 C 177.044 253.579 168.252 256.276 160.491 260.002 L 140.663 260.002 C 150.89 252.14 164.034 247.18 179.11 244.161 C 197.16 240.547 213.779 236.152 224.938 224.992 C 236.098 213.833 240.516 197.231 244.123 179.179 C 247.139 164.081 252.114 150.908 260.005 140.658 L 260.005 160.458 Z M 12.475 142.48 C 7.402 147.553 3.3 153.603 .002 160.455 L .002 140.652 C 1.546 138.646 3.199 136.752 4.974 134.978 L 5.075 135.066 L 4.981 134.971 C 15.797 124.156 31.072 117.766 49.109 114.155 C 67.158 110.54 83.778 106.145 94.937 94.986 C 106.096 83.826 110.516 67.225 114.121 49.173 C 117.726 31.122 124.133 15.819 134.974 4.978 L 135.078 5.068 L 134.981 4.971 C 136.756 3.196 138.654 1.54 140.662 -.004 L 160.49 -.004 C 153.622 3.293 147.56 7.395 142.483 12.473 L 142.397 12.387 L 142.476 12.479 C 131.634 23.321 125.228 38.624 121.623 56.675 C 118.018 74.726 113.598 91.328 102.439 102.488 C 91.28 113.647 74.66 118.042 56.611 121.657 C 38.574 125.269 23.298 131.658 12.483 142.473 L 12.397 142.387 L 12.482 142.477 Z M 208.275 2842171e-20 L 214.844 2842171e-20 C 209.672 1.435 204.248 2.622 198.69 3.735 C 180.653 7.347 165.377 13.736 154.563 24.551 L 154.546 24.535 L 154.556 24.557 C 143.73 35.414 137.324 50.717 133.718 68.768 C 130.112 86.819 125.701 103.429 114.534 114.581 C 103.363 125.736 86.739 130.12 68.69 133.735 C 50.652 137.346 35.377 143.735 24.562 154.551 L 24.546 154.534 L 24.556 154.557 C 13.726 165.427 7.319 180.727 3.714 198.777 C 2.609 204.305 1.43 209.697 .004 214.839 L .004 208.269 C .859 204.738 1.629 201.115 2.365 197.429 C 5.97 179.377 12.361 164.059 23.202 153.217 L 23.23 153.232 L 23.209 153.211 C 34.025 142.401 49.3 136.011 67.337 132.401 C 85.387 128.787 101.998 124.384 113.165 113.233 C 124.329 102.086 128.759 85.487 132.365 67.436 C 135.971 49.385 142.361 34.066 153.203 23.225 L 153.23 23.239 L 153.209 23.219 C 164.019 12.401 179.299 6.013 197.329 2.4 C 201.049 1.656 204.709 .877 208.269 .014 Z M 260.005 14.028 L 260.005 22.981 C 250.571 27.656 239.419 30.348 227.655 32.704 C 209.618 36.315 194.342 42.704 183.528 53.52 L 183.497 53.489 L 183.521 53.527 C 172.679 64.369 166.289 79.687 162.683 97.738 C 159.078 115.789 154.647 132.388 143.483 143.534 C 132.316 154.686 115.705 159.089 97.655 162.704 C 79.617 166.315 64.342 172.704 53.527 183.52 L 53.496 183.489 L 53.521 183.526 C 42.679 194.368 36.289 209.686 32.683 227.737 C 30.339 239.472 27.645 250.592 22.981 260 L 14.029 260 C 20.774 249.54 24.125 236.23 26.964 222.019 C 30.57 203.968 36.96 188.65 47.802 177.808 L 47.858 177.851 L 47.809 177.801 C 58.624 166.985 73.899 160.597 91.936 156.984 C 109.986 153.371 126.598 148.967 137.765 137.816 C 148.928 126.668 153.359 110.07 156.964 92.019 C 160.569 73.968 166.96 58.649 177.802 47.808 L 177.859 47.852 L 177.809 47.801 C 188.624 36.985 203.9 30.596 221.937 26.985 C 236.177 24.129 249.527 20.786 260.007 14.025 Z M 260.005 60.155 L 260.005 62.59 C 259.324 62.73 258.642 62.868 257.958 63.006 C 239.92 66.618 224.645 73.008 213.829 83.822 L 213.816 83.809 L 213.823 83.829 C 202.981 94.671 196.591 109.989 192.985 128.04 C 189.38 146.091 184.949 162.69 173.786 173.837 C 162.618 184.988 146.007 189.391 127.957 193.005 C 109.919 196.617 94.644 203.007 83.829 213.821 L 83.816 213.808 L 83.822 213.828 C 72.981 224.67 66.591 239.988 62.985 258.04 C 62.854 258.695 62.722 259.349 62.588 260 L 60.157 260 C 60.435 258.684 60.706 257.358 60.973 256.024 C 64.578 237.973 70.969 222.655 81.81 211.813 L 81.831 211.821 L 81.817 211.806 C 92.632 200.991 107.907 194.602 125.945 190.99 C 143.994 187.376 160.606 182.972 171.773 171.822 C 182.937 160.675 187.367 144.076 190.973 126.024 C 194.578 107.973 200.969 92.654 211.81 81.813 L 211.831 81.821 L 211.816 81.807 C 222.631 70.992 237.907 64.602 255.944 60.99 C 257.294 60.713 258.654 60.434 259.994 60.15 Z M 260.005 84.574 L 260.005 85.466 C 248.941 89.252 239.427 94.587 232.011 102.003 L 232.003 101.996 L 232.004 102.01 C 221.179 112.866 214.773 128.17 211.167 146.221 C 207.562 164.273 203.149 180.882 191.982 192.034 C 180.811 203.189 164.188 207.573 146.138 211.187 C 128.1 214.799 112.825 221.188 102.01 232.003 L 102.003 231.996 L 102.004 232.009 C 94.596 239.439 89.257 248.95 85.469 260 L 84.592 260 C 88.388 248.667 93.782 238.919 101.337 231.343 L 101.35 231.343 L 101.344 231.337 C 112.159 220.521 127.435 214.132 145.471 210.521 C 163.521 206.906 180.136 202.515 191.315 191.367 C 202.487 180.228 206.909 163.622 210.515 145.57 C 214.12 127.519 220.511 112.201 231.337 101.343 L 231.35 101.343 L 231.344 101.337 C 238.924 93.81 248.674 88.41 260.024 84.612 Z M 260.005 100.679 L 260.005 111.725 C 256.292 114.104 252.896 116.798 249.851 119.842 L 249.808 119.8 L 249.845 119.849 C 239.019 130.705 232.628 146.025 229.023 164.076 C 225.418 182.128 220.995 198.733 209.823 209.874 C 198.644 221.021 182.029 225.412 163.979 229.026 C 145.942 232.638 130.666 239.028 119.851 249.842 L 119.809 249.8 L 119.845 249.849 C 116.808 252.895 114.12 256.29 111.745 259.999 L 100.702 259.999 C 103.929 253.461 107.904 247.669 112.777 242.781 L 112.816 242.806 L 112.783 242.774 C 123.598 231.958 138.874 225.57 156.912 221.957 C 174.961 218.344 191.576 213.951 202.756 202.805 C 213.927 191.665 218.35 175.059 221.955 157.008 C 225.56 138.956 231.951 123.638 242.777 112.781 L 242.816 112.807 L 242.783 112.774 C 247.633 107.874 253.423 103.894 259.973 100.664 Z M 260.005 114.539 L 260.005 116.278 C 257.336 118.184 254.849 120.272 252.564 122.558 L 252.556 122.551 L 252.557 122.564 C 241.731 133.421 235.341 148.739 231.735 166.791 C 228.13 184.842 223.707 201.448 212.535 212.588 C 201.357 223.735 184.742 228.126 166.692 231.741 C 148.654 235.353 133.379 241.742 122.564 252.557 L 122.557 252.549 L 122.557 252.563 C 120.277 254.85 118.194 257.335 116.292 260.001 L 114.554 260.001 C 116.647 256.943 118.968 254.114 121.538 251.537 L 121.546 251.539 L 121.541 251.533 C 132.357 240.719 147.632 234.329 165.67 230.717 C 183.719 227.103 200.334 222.711 211.513 211.565 C 222.684 200.424 227.108 183.819 230.713 165.767 C 234.318 147.716 240.713 132.394 251.539 121.537 L 251.547 121.54 L 251.541 121.535 C 254.131 118.975 256.961 116.645 260.021 114.555 Z M 260.005 208.259 L 260.005 214.829 C 256.775 226.478 252.278 236.843 244.53 244.579 C 236.8 252.3 226.458 256.774 214.84 259.998 L 208.272 259.998 C 222 256.669 234.299 252.071 243.168 243.216 C 252.058 234.346 256.678 222.016 260.008 208.256 Z M 60.155 -.001 L 62.589 -.001 C 59.049 17.288 54.545 33.093 43.786 43.836 C 33.042 54.564 17.259 59.045 .004 62.588 L .004 60.154 C 16.469 56.671 31.446 52.13 41.77 41.821 C 52.109 31.497 56.673 16.497 60.155 -.001 Z M 84.593 -.001 L 85.47 -.001 C 83.723 5.096 82.306 10.521 81.167 16.22 C 77.562 34.271 73.15 50.881 61.983 62.033 C 50.812 73.188 34.189 77.571 16.139 81.186 C 10.47 82.321 5.075 83.73 .005 85.465 L .005 84.573 C 4.881 82.941 10.051 81.604 15.472 80.519 C 33.521 76.905 50.136 72.513 61.316 61.366 C 72.487 50.226 76.91 33.62 80.515 15.568 C 81.605 10.113 82.949 4.907 84.593 -.001 Z M 100.705 -.001 L 111.748 -.001 C 105.655 9.514 101.62 21.087 99.025 34.076 C 95.42 52.127 90.997 68.733 79.825 79.873 C 68.647 91.02 52.031 95.411 33.982 99.025 C 21.021 101.621 9.486 105.65 .008 111.725 L .008 100.679 C 7.959 96.755 17.021 93.938 26.914 91.957 C 44.963 88.343 61.579 83.951 72.757 72.804 C 83.929 61.664 88.351 45.058 91.957 27.007 C 93.94 17.084 96.764 7.985 100.708 2842171e-20 Z M 114.555 -.001 L 116.292 -.001 C 109.163 9.993 104.581 22.538 101.735 36.788 C 98.129 54.839 93.706 71.446 82.535 82.585 C 71.356 93.731 54.741 98.123 36.691 101.737 C 22.467 104.587 9.961 109.162 .004 116.274 L .004 114.535 C 9.789 107.83 21.926 103.467 35.668 100.715 C 53.718 97.101 70.333 92.709 81.512 81.562 C 92.683 70.422 97.106 53.816 100.712 35.765 C 103.462 21.996 107.832 9.817 114.552 -.004 Z" fill="#004587"/>
      <path d="M 252.95 260 C 254.238 258.971 255.471 257.874 256.642 256.703 C 257.834 255.51 258.95 254.254 259.996 252.943 L 259.996 260.003 L 252.956 260.003 Z M 43.07 173.08 C 32.244 183.936 25.839 199.24 22.233 217.291 C 18.947 233.741 14.993 248.981 5.871 260.001 L 5684342e-20 260.001 L 5684342e-20 252.944 C 8.741 241.979 12.61 227.012 15.831 210.89 C 19.436 192.838 25.843 177.536 36.685 166.695 L 36.738 166.735 L 36.692 166.688 C 47.507 155.873 62.782 149.484 80.82 145.872 C 98.869 142.257 115.489 137.862 126.648 126.704 C 137.807 115.544 142.227 98.943 145.832 80.891 C 149.437 62.84 155.844 47.537 166.686 36.696 L 166.739 36.736 L 166.692 36.69 C 177.508 25.874 192.783 19.485 210.821 15.873 C 226.981 12.64 241.991 8.779 252.961 .004 L 260.011 .004 L 260.011 5.877 C 248.974 15.021 233.689 18.962 217.214 22.261 C 199.177 25.873 183.901 32.262 173.087 43.077 L 173.025 43.016 L 173.079 43.083 C 162.254 53.94 155.849 69.243 152.242 87.294 C 148.637 105.345 144.225 121.955 133.058 133.106 C 121.888 144.261 105.264 148.645 87.215 152.259 C 69.178 155.871 53.902 162.26 43.087 173.075 L 43.026 173.014 L 43.087 173.084 Z M 5.872 0 C 4.981 1.075 4.041 2.111 3.048 3.104 C 2.073 4.077 1.056 4.998 5684342e-20 5.872 L 5684342e-20 0 Z M 26.447 0 L 27.898 0 C 25.13 6.415 21.597 12.151 16.843 16.898 C 12.106 21.628 6.391 25.143 5684342e-20 27.899 L 5684342e-20 26.448 C 5.984 23.76 11.349 20.37 15.835 15.89 C 20.339 11.394 23.747 6.009 26.447 0 Z M 64.616 0 L 74.549 0 C 73.889 2.543 73.295 5.151 72.762 7.82 C 69.156 25.871 64.733 42.478 53.562 53.617 C 42.383 64.764 25.768 69.155 7.718 72.77 C 5.085 73.298 2.511 73.884 .001 74.535 L .001 64.622 C 17.912 61.021 34.378 56.603 45.472 45.526 C 56.578 34.435 61.02 17.946 64.616 0 Z M 95.277 0 L 98.711 0 C 95.102 7.654 92.474 16.286 90.602 25.66 C 86.997 43.711 82.585 60.321 71.418 71.473 C 60.246 82.627 43.623 87.011 25.574 90.626 C 16.229 92.497 7.627 95.113 .001 98.705 L .001 95.262 C 7.024 92.215 14.815 89.934 23.203 88.255 C 41.252 84.64 57.867 80.249 69.047 69.102 C 80.218 57.962 84.641 41.356 88.247 23.305 C 89.928 14.883 92.215 7.056 95.277 0 Z M 162.481 0 L 164.642 0 C 156.592 3.5 149.554 8.01 143.785 13.779 L 143.773 13.767 L 143.779 13.786 C 132.937 24.628 126.531 39.931 122.925 57.982 C 119.32 76.033 114.901 92.635 103.741 103.795 C 92.582 114.954 75.963 119.349 57.913 122.963 C 39.875 126.575 24.6 132.964 13.785 143.779 L 13.773 143.767 L 13.779 143.786 C 8.015 149.55 3.506 156.575 .004 164.602 L .004 162.447 C 3.406 155.037 7.709 148.524 13.113 143.12 L 13.131 143.125 L 13.119 143.113 C 23.935 132.298 39.21 125.908 57.247 122.297 C 75.296 118.682 91.916 114.287 103.075 103.128 C 114.234 91.969 118.654 75.367 122.259 57.316 C 125.865 39.265 132.271 23.962 143.112 13.121 L 143.131 13.126 L 143.119 13.114 C 148.519 7.691 155.049 3.389 162.479 -.012 Z M 223.441 0 L 235.23 0 C 226.054 4.315 215.342 6.872 204.076 9.128 C 186.038 12.74 170.763 19.13 159.947 29.944 L 159.923 29.92 L 159.942 29.951 C 149.116 40.808 142.71 56.111 139.104 74.162 C 135.499 92.213 131.086 108.824 119.919 119.974 C 108.748 131.13 92.125 135.513 74.076 139.128 C 56.038 142.739 40.763 149.129 29.948 159.944 L 29.924 159.919 L 29.943 159.95 C 19.116 170.807 12.711 186.11 9.105 204.161 C 6.861 215.397 4.305 226.073 .001 235.224 L .001 223.437 C 2.409 216.399 4.155 208.74 5.741 200.798 C 9.347 182.747 15.738 167.429 26.579 156.587 L 26.627 156.622 L 26.585 156.581 C 37.401 145.765 52.675 139.376 70.713 135.765 C 88.763 132.15 105.374 127.747 116.541 116.596 C 127.705 105.449 132.136 88.85 135.741 70.799 C 139.346 52.748 145.737 37.429 156.579 26.588 L 156.627 26.624 L 156.585 26.582 C 167.4 15.766 182.676 9.377 200.713 5.765 C 208.673 4.175 216.373 2.423 223.433 .006 Z M 260.001 26.448 L 260.001 27.899 C 251.325 31.641 241.409 33.985 231.015 36.066 C 212.978 39.678 197.702 46.067 186.887 56.883 L 186.878 56.873 L 186.88 56.889 C 176.038 67.73 169.649 83.049 166.042 101.099 C 162.436 119.151 158.007 135.749 146.843 146.897 C 135.676 158.047 119.065 162.452 101.015 166.065 C 82.977 169.678 67.702 176.067 56.887 186.881 L 56.878 186.872 L 56.881 186.888 C 46.039 197.73 39.649 213.048 36.043 231.099 C 33.973 241.463 31.631 251.348 27.899 259.998 L 26.448 259.998 C 30.441 251.111 32.886 240.861 35.036 230.092 C 38.641 212.04 45.032 196.722 55.874 185.881 L 55.896 185.89 L 55.88 185.874 C 66.695 175.059 81.971 168.67 100.008 165.057 C 118.058 161.443 134.669 157.04 145.836 145.889 C 157 134.742 161.431 118.143 165.036 100.092 C 168.641 82.04 175.032 66.722 185.874 55.881 L 185.896 55.89 L 185.88 55.874 C 196.694 45.059 211.97 38.67 230.007 35.057 C 240.817 32.899 251.107 30.453 260.017 26.45 Z M 260.001 64.623 L 260.001 74.536 C 245.316 78.343 232.826 84.351 223.59 93.587 L 223.55 93.547 L 223.583 93.593 C 212.758 104.45 206.367 119.768 202.761 137.82 C 199.156 155.871 194.734 172.477 183.562 183.617 C 172.383 194.763 155.768 199.156 137.718 202.769 C 119.681 206.382 104.406 212.771 93.591 223.585 L 93.55 223.545 L 93.584 223.592 C 84.358 232.845 78.354 245.337 74.549 259.999 L 64.616 259.999 L 64.671 259.728 C 68.277 241.677 74.667 226.359 85.509 215.517 L 85.563 215.558 L 85.515 215.511 C 96.33 204.695 111.606 198.306 129.643 194.695 C 147.692 191.08 164.304 186.677 175.472 175.526 C 186.634 164.379 191.066 147.78 194.671 129.729 C 198.276 111.678 204.667 96.359 215.509 85.518 L 215.563 85.56 L 215.515 85.512 C 226.33 74.697 241.606 68.308 259.644 64.696 L 260.004 64.622 Z M 260.001 95.262 L 260.001 98.705 C 252.907 102.046 246.658 106.23 241.446 111.442 L 241.429 111.425 L 241.439 111.448 C 230.613 122.304 224.207 137.607 220.601 155.659 C 216.996 173.71 212.584 190.32 201.416 201.472 C 190.245 212.626 173.622 217.01 155.572 220.624 C 137.535 224.236 122.26 230.626 111.444 241.441 L 111.428 241.425 L 111.437 241.447 C 106.232 246.666 102.05 252.912 98.709 259.998 L 95.275 259.998 C 98.777 251.929 103.29 244.867 109.065 239.075 L 109.087 239.084 L 109.072 239.068 C 119.888 228.254 135.163 221.864 153.2 218.252 C 171.25 214.638 187.865 210.246 199.044 199.1 C 210.216 187.959 214.638 171.354 218.243 153.302 C 221.848 135.251 228.239 119.933 239.065 109.075 L 239.086 109.084 L 239.071 109.069 C 244.871 103.319 251.931 98.796 260.011 95.291 Z M 260.001 162.45 L 260.001 164.605 C 256.915 171.678 254.611 179.53 252.923 187.984 C 249.318 206.036 244.898 222.638 233.738 233.797 C 222.579 244.956 205.96 249.351 187.91 252.965 C 179.494 254.651 171.68 256.941 164.639 260.003 L 162.478 260.003 C 169.902 256.604 178.227 254.105 187.244 252.299 C 205.294 248.685 221.913 244.289 233.071 233.13 C 244.231 221.971 248.65 205.369 252.257 187.318 C 254.047 178.258 256.567 169.898 259.987 162.448 Z M 260.001 223.44 L 260.001 235.227 C 257.39 240.778 254.137 245.767 249.92 249.977 C 245.723 254.168 240.755 257.405 235.232 260.002 L 223.443 260.002 C 232.375 256.945 240.306 252.824 246.542 246.599 C 252.792 240.349 256.932 232.399 260.002 223.439 Z" fill="#73797c"/>
      <path d="M 196.64 66.655 C 185.798 77.496 179.409 92.815 175.802 110.866 C 172.197 128.917 167.767 145.515 156.603 156.663 C 145.436 167.814 128.825 172.217 110.775 175.832 C 92.737 179.444 77.462 185.833 66.647 196.648 L 66.626 196.628 L 66.64 196.654 C 55.798 207.496 49.408 222.814 45.802 240.866 C 44.476 247.508 43.037 253.951 41.193 260 L 35.4 260 C 37.96 252.725 39.78 244.762 41.431 236.495 C 45.037 218.443 51.443 203.14 62.269 192.284 L 62.295 192.297 L 62.275 192.277 C 73.091 181.462 88.366 175.073 106.403 171.461 C 124.452 167.846 141.076 163.463 152.246 152.308 C 163.414 141.157 167.824 124.547 171.429 106.495 C 175.036 88.444 181.442 73.141 192.267 62.284 L 192.292 62.296 L 192.274 62.277 C 203.089 51.461 218.365 45.072 236.402 41.46 C 244.698 39.799 252.692 37.974 259.994 35.405 L 259.994 41.195 C 253.918 43.047 247.444 44.491 240.773 45.827 C 222.736 49.439 207.46 55.828 196.645 66.643 L 196.625 66.622 L 196.655 66.65 Z M 41.2 0 C 38.032 10.392 33.665 19.617 26.609 26.663 C 19.57 33.693 10.366 38.041 .002 41.2 L .002 35.406 C 8.588 32.385 16.217 28.336 22.254 22.308 C 28.308 16.263 32.376 8.613 35.407 0 L 41.2 0 Z M 260 137.76 L 260 140.021 C 251.947 150.322 246.891 163.628 243.84 178.904 C 240.235 196.955 235.815 213.557 224.656 224.717 C 213.497 235.875 196.878 240.271 178.828 243.885 C 163.573 246.94 150.296 251.981 140.019 260.006 L 137.757 260.006 C 148.198 251.393 161.938 246.059 177.82 242.878 C 195.869 239.264 212.488 234.868 223.647 223.709 C 234.806 212.55 239.226 195.948 242.832 177.896 C 246.002 161.996 251.352 148.226 259.992 137.766 Z M 260 171.7 L 260 187.661 C 259.516 189.643 259.068 191.662 258.656 193.717 C 255.051 211.769 250.621 228.366 239.457 239.514 C 228.29 250.665 211.679 255.068 193.629 258.683 C 191.611 259.087 189.63 259.525 187.684 260.001 L 171.752 260.001 C 177.412 257.927 183.5 256.284 189.94 254.993 C 207.99 251.379 224.609 246.984 235.767 235.825 C 246.927 224.666 251.346 208.063 254.952 190.012 C 256.242 183.512 257.892 177.392 259.992 171.692 Z M 137.76 -2842171e-20 L 140.022 -2842171e-20 C 138.148 1.464 136.372 3.027 134.703 4.696 L 134.689 4.683 L 134.697 4.702 C 123.855 15.543 117.449 30.846 113.843 48.898 C 110.237 66.949 105.818 83.551 94.659 94.71 C 83.499 105.869 66.88 110.264 48.83 113.879 C 30.793 117.491 15.517 123.88 4.702 134.696 L 4.689 134.683 L 4.695 134.702 C 3.028 136.37 1.466 138.144 .002 140.015 L .002 137.754 C 1.17 136.34 2.396 134.984 3.687 133.694 L 3.71 133.702 L 3.694 133.687 C 14.509 122.871 29.785 116.483 47.822 112.871 C 65.872 109.257 82.491 104.861 93.65 93.702 C 104.809 82.543 109.229 65.941 112.834 47.889 C 116.44 29.838 122.846 14.535 133.687 3.694 L 133.709 3.703 L 133.693 3.688 C 134.983 2.388 136.343 1.159 137.763 -.009 Z M 171.75 -2842171e-20 L 187.683 -2842171e-20 C 172.231 3.778 159.106 9.893 149.5 19.499 L 149.443 19.443 L 149.493 19.506 C 138.651 30.348 132.262 45.666 128.655 63.717 C 125.049 81.768 120.619 98.367 109.455 109.514 C 98.288 120.666 81.677 125.068 63.627 128.683 C 45.59 132.295 30.314 138.684 19.499 149.499 L 19.442 149.441 L 19.493 149.506 C 9.893 159.116 3.781 172.246 .005 187.666 L .005 171.705 C 3.74 161.547 8.864 152.767 15.811 145.821 L 15.871 145.867 L 15.818 145.814 C 26.633 135 41.909 128.61 59.946 124.998 C 77.995 121.383 94.615 116.989 105.774 105.83 C 116.933 94.671 121.352 78.069 124.958 60.017 C 128.563 41.965 134.97 26.663 145.812 15.821 L 145.871 15.868 L 145.818 15.815 C 152.778 8.856 161.568 3.732 171.758 -2842171e-20 Z M 260 86.363 L 260 90.048 C 250.366 93.736 242.023 98.713 235.369 105.367 L 235.357 105.355 L 235.363 105.373 C 224.537 116.23 218.146 131.548 214.541 149.6 C 210.935 167.651 206.513 184.257 195.342 195.397 C 184.162 206.544 167.547 210.936 149.498 214.55 C 131.461 218.162 116.185 224.551 105.37 235.366 L 105.358 235.353 L 105.363 235.372 C 98.719 242.034 93.747 250.376 90.063 259.999 L 86.377 259.999 C 90.145 249.233 95.409 239.952 102.666 232.675 L 102.684 232.679 L 102.673 232.669 C 113.488 221.853 128.763 215.464 146.801 211.852 C 164.85 208.238 181.465 203.846 192.645 192.699 C 203.816 181.56 208.239 164.953 211.844 146.902 C 215.449 128.851 221.84 113.533 232.666 102.676 L 232.684 102.68 L 232.672 102.669 C 239.922 95.391 249.202 90.122 259.982 86.352 Z M 260 122.84 L 260 128.579 C 259.76 128.811 259.521 129.044 259.285 129.28 L 259.269 129.264 L 259.279 129.286 C 248.453 140.143 242.062 155.462 238.457 173.513 C 234.852 191.564 230.429 208.17 219.258 219.31 C 208.078 230.456 191.463 234.849 173.414 238.463 C 155.377 242.075 140.101 248.464 129.285 259.279 L 129.269 259.262 L 129.279 259.285 C 129.045 259.519 128.813 259.758 128.583 259.996 L 122.849 259.996 C 123.933 258.699 125.068 257.454 126.256 256.262 L 126.281 256.274 L 126.263 256.257 C 137.078 245.441 152.353 239.052 170.39 235.441 C 188.441 231.826 205.056 227.435 216.234 216.288 C 227.406 205.148 231.829 188.543 235.433 170.491 C 239.039 152.439 245.43 137.121 256.255 126.264 L 256.279 126.275 L 256.262 126.258 C 257.472 125.088 258.712 123.948 260.012 122.858 Z M 86.38 -2842171e-20 L 90.065 -2842171e-20 C 87.745 6.059 85.936 12.625 84.543 19.6 C 80.938 37.651 76.515 54.257 65.343 65.397 C 54.165 76.544 37.55 80.936 19.501 84.55 C 12.56 85.94 6.029 87.741 .003 90.047 L .003 86.362 C 5.266 84.521 10.886 83.037 16.803 81.852 C 34.853 78.238 51.468 73.846 62.647 62.699 C 73.818 51.559 78.241 34.953 81.847 16.902 C 83.035 10.951 84.527 5.295 86.38 -2842171e-20 Z M 122.853 -2842171e-20 L 128.586 -2842171e-20 C 118.181 10.81 111.987 25.855 108.459 43.516 C 104.854 61.567 100.431 78.173 89.259 89.313 C 78.08 100.46 61.465 104.852 43.416 108.466 C 25.778 111.996 10.778 118.186 .009 128.576 L .009 122.837 C 10.488 114.064 24.351 108.652 40.4 105.438 C 58.45 101.823 75.065 97.432 86.244 86.285 C 97.415 75.146 101.838 58.539 105.444 40.488 C 108.644 24.421 114.064 10.517 122.854 -.002 Z" fill="#0099d4"/>
      <path d="M 260 247.37 C 258.316 249.876 256.428 252.21 254.291 254.343 C 252.173 256.458 249.859 258.328 247.377 259.997 L 244.824 259.997 C 247.896 258.082 250.732 255.886 253.283 253.336 C 255.856 250.763 258.07 247.899 260 244.796 L 260 247.376 Z M 247.38 2842171e-20 C 236.769 7.135 223.078 10.57 208.45 13.5 C 190.413 17.111 175.138 23.501 164.322 34.316 L 164.314 34.308 L 164.315 34.323 C 153.489 45.18 147.083 60.483 143.477 78.534 C 139.871 96.585 135.459 113.196 124.293 124.347 C 113.122 135.503 96.499 139.886 78.449 143.5 C 60.412 147.112 45.136 153.501 34.321 164.317 L 34.314 164.309 L 34.315 164.323 C 23.489 175.18 17.083 190.483 13.477 208.534 C 10.562 223.134 7.119 236.784 .003 247.374 L .003 244.8 C 6.44 234.446 9.696 221.416 12.47 207.527 C 16.075 189.476 22.486 174.17 33.327 163.328 L 33.334 163.33 L 33.33 163.326 C 44.146 152.511 59.42 146.121 77.458 142.509 C 95.507 138.895 112.127 134.5 123.286 123.341 C 134.446 112.182 138.865 95.58 142.47 77.528 C 146.075 59.477 152.486 44.171 163.327 33.329 L 163.334 33.33 L 163.33 33.326 C 174.146 22.511 189.421 16.121 207.458 12.509 C 221.378 9.72 234.448 6.466 244.818 .001 L 247.378 .001 Z M 7.08 2842171e-20 L 10.616 2842171e-20 C 9.144 2.058 7.523 3.993 5.728 5.785 C 3.951 7.56 2.036 9.163 -.001 10.619 L -.001 7.082 C 1.295 6.048 2.534 4.947 3.713 3.77 C 4.911 2.575 6.03 1.315 7.08 2842171e-20 Z M 130 .006 L 130.019 .012 L 129.999 2842171e-20 L 131.503 2842171e-20 C 131.248 .246 130.994 .493 130.743 .744 L 130.738 .739 L 130.74 .755 C 119.899 11.596 113.489 26.895 109.883 44.946 C 106.278 62.998 101.858 79.6 90.699 90.759 C 79.54 101.918 62.921 106.313 44.871 109.927 C 26.834 113.539 11.558 119.929 .743 130.744 L .738 130.738 L .741 130.754 C .49 131.005 .243 131.26 -.003 131.515 L -.003 130.008 L .013 130.014 L .006 129.994 C 10.822 119.179 26.097 112.789 44.134 109.177 C 62.183 105.562 78.803 101.168 89.962 90.009 C 101.121 78.85 105.541 62.248 109.146 44.196 C 112.756 26.148 119.166 10.845 130.006 .003 Z M 132 2.006 L 132.016 2.008 L 132.006 1.999 C 132.69 1.315 133.393 .649 134.111 2842171e-20 L 136.265 2842171e-20 C 135.142 .962 134.056 1.964 133.013 3.007 L 133.005 2.998 L 133.011 3.017 C 122.169 13.858 115.759 29.158 112.154 47.209 C 108.548 65.26 104.129 81.862 92.969 93.022 C 81.81 104.181 65.191 108.576 47.141 112.191 C 29.103 115.803 13.828 122.192 3.013 133.007 L 3.005 132.998 L 3.011 133.018 C 1.968 134.061 .967 135.146 .004 136.27 L .004 134.108 C .652 133.39 1.317 132.689 2 132.006 L 2.016 132.009 L 2.006 131.999 C 12.822 121.184 28.097 114.795 46.134 111.183 C 64.184 107.568 80.803 103.173 91.963 92.014 C 103.122 80.855 107.541 64.253 111.147 46.202 C 114.747 28.153 121.147 12.851 131.997 2.009 Z M 155.57 25.581 L 155.59 25.586 L 155.577 25.574 C 166.393 14.759 181.668 8.37 199.705 4.758 C 206.529 3.392 213.147 1.913 219.344 2842171e-20 L 220.77 2842171e-20 C 214.264 2.08 207.27 3.652 200.047 5.099 C 182.009 8.711 166.734 15.1 155.918 25.915 L 155.908 25.904 L 155.912 25.922 C 145.07 36.764 138.664 52.066 135.058 70.118 C 131.453 88.169 127.033 104.771 115.874 115.93 C 104.715 127.089 88.095 131.485 70.046 135.099 C 52.008 138.711 36.733 145.1 25.918 155.915 L 25.907 155.904 L 25.911 155.922 C 15.054 166.752 8.648 182.062 5.043 200.112 C 3.609 207.282 2.047 214.232 -.016 220.702 L -.016 219.274 C 1.88 213.118 3.348 206.547 4.702 199.771 C 8.307 181.719 14.714 166.417 25.555 155.575 L 25.574 155.581 L 25.561 155.569 C 36.377 144.754 51.652 138.364 69.689 134.753 C 87.739 131.138 104.358 126.743 115.518 115.584 C 126.677 104.425 131.096 87.822 134.702 69.772 C 138.312 51.719 144.722 36.416 155.562 25.575 Z M 173.76 43.758 L 173.771 43.763 L 173.762 43.755 C 184.578 32.94 199.854 26.55 217.891 22.939 C 234.031 19.706 249.021 15.841 260.001 7.082 L 260.001 10.62 C 249.239 18.317 235.079 21.915 219.902 24.954 C 201.865 28.566 186.589 34.955 175.774 45.771 L 175.76 45.756 L 175.768 45.777 C 164.926 56.618 158.536 71.937 154.93 89.988 C 151.325 108.039 146.893 124.637 135.73 135.785 C 124.563 146.936 107.952 151.34 89.902 154.953 C 71.865 158.566 56.589 164.955 45.774 175.77 L 45.759 175.755 L 45.767 175.776 C 34.925 186.617 28.535 201.935 24.929 219.987 C 21.904 235.135 18.296 249.259 10.616 259.999 L 7.081 259.999 C 15.818 249.044 19.695 234.087 22.914 217.972 C 26.519 199.921 32.914 184.599 43.756 173.757 L 43.766 173.762 L 43.758 173.755 C 54.574 162.939 69.849 156.55 87.886 152.938 C 105.935 149.324 122.547 144.921 133.714 133.769 C 144.878 122.622 149.308 106.024 152.913 87.973 C 156.523 69.931 162.913 54.608 173.763 43.767 Z M 200.97 70.98 L 201.034 71.031 L 200.977 70.973 C 211.791 60.157 227.067 53.769 245.104 50.156 C 250.214 49.133 255.211 48.047 260.001 46.764 L 260.001 56.818 C 257.762 57.315 255.49 57.788 253.196 58.247 C 235.159 61.859 219.883 68.248 209.067 79.063 L 209.004 79 L 209.061 79.069 C 198.219 89.91 191.829 105.229 188.223 123.28 C 184.618 141.331 180.187 157.929 169.024 169.077 C 157.856 180.228 141.245 184.632 123.195 188.246 C 105.158 191.858 89.882 198.247 79.067 209.062 L 79.005 209 L 79.06 209.068 C 68.218 219.91 61.828 235.228 58.222 253.279 C 57.769 255.545 57.304 257.786 56.814 259.998 L 46.757 259.998 C 48.032 255.235 49.111 250.27 50.127 245.188 C 53.733 227.136 60.139 211.833 70.964 200.976 L 71.029 201.029 L 70.97 200.97 C 81.785 190.154 97.061 183.766 115.098 180.154 C 133.148 176.54 149.771 172.156 160.941 161.001 C 172.109 149.85 176.519 133.24 180.125 115.188 C 183.745 97.128 190.145 81.824 200.975 70.968 Z M 226.28 96.291 L 226.3 96.297 L 226.287 96.284 C 234.953 87.618 246.482 81.794 260 77.963 L 260 81.886 C 247.783 85.71 237.322 91.293 229.309 99.305 L 229.299 99.295 L 229.303 99.312 C 218.477 110.169 212.086 125.488 208.481 143.539 C 204.876 161.591 200.453 178.197 189.282 189.336 C 178.102 200.485 161.487 204.875 143.438 208.49 C 125.4 212.101 110.126 218.49 99.31 229.306 L 99.3 229.295 L 99.304 229.312 C 91.299 237.332 85.721 247.792 81.898 259.992 L 77.956 259.992 C 81.789 246.49 87.62 234.965 96.278 226.282 L 96.297 226.289 L 96.284 226.275 C 107.1 215.461 122.375 209.071 140.412 205.459 C 158.462 201.845 175.085 197.461 186.255 186.307 C 197.423 175.155 201.834 158.545 205.44 140.494 C 209.05 122.434 215.45 107.134 226.28 96.275 Z M 237.73 107.74 L 237.744 107.739 L 237.737 107.734 C 243.839 101.632 251.361 96.94 259.996 93.36 L 259.996 93.821 C 251.497 97.384 244.088 102.034 238.062 108.059 L 238.058 108.053 L 238.056 108.065 C 227.23 118.922 220.839 134.24 217.234 152.292 C 213.629 170.343 209.205 186.949 198.034 198.089 C 186.855 209.235 170.24 213.628 152.191 217.242 C 134.153 220.854 118.878 227.243 108.062 238.058 L 108.057 238.052 L 108.056 238.065 C 102.041 244.096 97.396 251.504 93.837 259.995 L 93.355 259.995 C 96.935 251.365 101.627 243.843 107.731 237.739 L 107.743 237.738 L 107.738 237.733 C 118.553 226.917 133.829 220.528 151.866 216.917 C 169.915 213.302 186.527 208.899 197.694 197.748 C 208.858 186.601 213.288 170.002 216.893 151.95 C 220.493 133.92 226.883 118.61 237.723 107.76 Z M 254.23 124.24 L 254.246 124.243 L 254.236 124.234 C 256.037 122.433 257.964 120.755 260.004 119.192 L 260.004 120.987 C 258.334 122.322 256.746 123.739 255.244 125.241 L 255.238 125.235 L 255.238 125.247 C 244.412 136.104 238.021 151.422 234.416 169.474 C 230.81 187.525 226.387 204.13 215.215 215.271 C 204.037 226.417 187.422 230.809 169.372 234.424 C 151.335 238.036 136.059 244.425 125.244 255.24 L 125.238 255.234 L 125.237 255.246 C 123.739 256.748 122.327 258.335 120.995 260.003 L 119.2 260.003 C 120.76 257.964 122.433 256.04 124.229 254.239 L 124.245 254.241 L 124.236 254.232 C 135.052 243.417 150.327 237.028 168.364 233.416 C 186.413 229.802 203.028 225.41 214.207 214.263 C 225.378 203.124 229.802 186.517 233.407 168.466 C 237.007 150.426 243.397 135.106 254.227 124.256 Z M 46.76 0 L 56.812 0 C 53.396 15.412 48.783 29.33 39.02 39.078 C 29.273 48.812 15.377 53.403 -.002 56.818 L -.002 46.764 C 12.127 43.516 22.937 39 30.945 31.003 C 38.97 22.99 43.505 12.159 46.76 0 Z M 77.956 0 L 81.898 0 C 80.549 4.307 79.419 8.83 78.478 13.54 C 74.873 31.591 70.45 48.197 59.278 59.337 C 48.1 70.484 31.484 74.875 13.435 78.49 C 8.761 79.426 4.272 80.549 -.002 81.886 L -.002 77.963 C 3.351 77.012 6.827 76.185 10.413 75.466 C 28.462 71.852 45.086 67.468 56.257 56.313 C 67.424 45.162 71.836 28.552 75.441 10.501 C 76.163 6.886 76.996 3.381 77.956 0 Z M 93.356 0 L 93.838 0 C 90.99 6.791 88.837 14.274 87.235 22.297 C 83.629 40.348 79.207 56.954 68.035 68.094 C 56.857 79.241 40.242 83.632 22.192 87.247 C 14.202 88.847 6.756 90.992 -.002 93.825 L -.002 93.364 C 6.67 90.598 14.005 88.496 21.867 86.922 C 39.916 83.307 56.528 78.904 67.695 67.753 C 78.858 56.605 83.289 40.007 86.894 21.956 C 88.471 14.066 90.578 6.699 93.356 2842171e-20 Z M 119.198 0 L 120.992 0 C 112.694 10.391 107.519 23.916 104.412 39.471 C 100.806 57.522 96.383 74.128 85.212 85.268 C 74.033 96.415 57.418 100.807 39.369 104.421 C 23.836 107.531 10.353 112.701 .001 120.983 L .001 119.188 C 10.214 111.364 23.328 106.424 38.361 103.414 C 56.411 99.8 73.026 95.408 84.205 84.261 C 95.376 73.122 99.799 56.515 103.405 38.464 C 106.415 23.41 111.365 10.255 119.205 .004 Z M 259.998 130.01 L 259.998 131.518 C 249.607 142.309 243.407 157.315 239.885 174.949 C 236.28 193.001 231.861 209.602 220.701 220.762 C 209.542 231.921 192.922 236.316 174.873 239.931 C 157.254 243.459 142.27 249.638 131.505 260.003 L 130.001 260.003 C 140.817 249.188 156.092 242.799 174.129 239.187 C 192.179 235.572 208.798 231.177 219.957 220.019 C 231.117 208.859 235.535 192.257 239.141 174.206 C 242.747 156.155 249.154 140.852 259.995 130.011 L 259.995 130.021 Z M 259.998 134.11 L 259.998 136.272 C 250.957 146.832 245.406 160.897 242.148 177.211 C 238.541 195.263 234.123 211.865 222.963 223.024 C 211.804 234.184 195.185 238.579 177.135 242.193 C 160.837 245.457 146.795 250.988 136.259 260.003 L 134.105 260.003 C 144.759 250.39 159.231 244.569 176.128 241.187 C 194.177 237.572 210.796 233.177 221.956 222.018 C 233.114 210.859 237.534 194.256 241.14 176.205 C 244.53 159.295 250.37 144.795 260.01 134.115 Z M 259.998 219.28 L 259.998 220.707 C 256.872 230.508 252.596 239.207 245.873 245.93 C 239.179 252.624 230.52 256.883 220.767 260 L 219.341 260 C 229.536 256.854 238.59 252.53 245.53 245.59 C 252.5 238.62 256.84 229.52 260 219.28 Z" fill="#0099d4"/>
    </g>
  </g>
</svg>
