<svg width="22" height="42" viewBox="0 0 22 42" xmlns="http://www.w3.org/2000/svg" xmlns:xlink="http://www.w3.org/1999/xlink"><title>pattern</title><desc>Created using Figma</desc><g transform="translate(293 -74)" fill="#FFF"><use xlink:href="#a" transform="translate(-293 74)"/><use xlink:href="#b" transform="translate(-293 112.532)"/><use xlink:href="#c" transform="translate(-288.784 81.321)"/></g><defs><path id="a" d="M0 0h21.465v3.853H0V0z"/><path id="b" d="M0 0h21.465v3.468H0V0z"/><path id="c" fill-rule="evenodd" d="M5.75 0h1.916v1.541h1.15V4.24h1.15V7.32h1.15v3.083h1.15V13.1h1.15v1.926h-1.15v2.698h-1.15v3.082h-1.15v3.083h-1.15v2.697h-1.15v1.541H5.749v-1.54H4.6V23.89H3.45v-3.083H2.3v-3.082H1.15v-2.698H0v-1.926h1.15v-2.697H2.3V7.32h1.15V4.24H4.6V1.54h1.15V0z"/></defs></svg>